<svg xmlns="http://www.w3.org/2000/svg" viewBox="0 0 2102.21 1208.5"><defs><style>.cls-1{fill:#c7a861;}.cls-2,.cls-3,.cls-4,.cls-5,.cls-6,.cls-7{fill:none;stroke:#c7a861;}.cls-2,.cls-3,.cls-4,.cls-5,.cls-6{stroke-linecap:round;stroke-linejoin:round;}.cls-2{stroke-width:8.09px;}.cls-3{stroke-width:7.61px;}.cls-4{stroke-width:10.22px;}.cls-5{stroke-width:6.41px;}.cls-6{stroke-width:6.47px;}.cls-7{stroke-miterlimit:10;stroke-width:11.33px;}</style></defs><title>Leaves-SimpleAsset 16</title><g id="Layer_2" data-name="Layer 2"><g id="Layer_1-2" data-name="Layer 1"><path class="cls-1" d="M75.36,859.15c-.64-14.83-.63-29.62-.39-44.39s.7-29.55,1.42-44.31S78,741,79.25,726.22s2.61-29.46,4.69-44.15c.64,14.83.63,29.62.4,44.4s-.72,29.54-1.43,44.3S81.23,800.27,80,815,77.42,844.46,75.36,859.15Z"/><path class="cls-1" d="M2028.23,859.15c-2.07-14.69-3.49-29.42-4.68-44.15s-2.16-29.48-2.87-44.23-1.23-29.52-1.43-44.3-.24-29.57.4-44.4c2.07,14.69,3.49,29.42,4.69,44.15s2.14,29.48,2.86,44.23,1.18,29.53,1.42,44.31S2028.86,844.32,2028.23,859.15Z"/><path class="cls-2" d="M1351.61,534.58s-105.58-48.72-51-177.35S1495.49,229.9,1495.49,229.9,1274,443,1351.61,534.58Z"/><path class="cls-3" d="M1325.89,892.4s-82.48-68.83-75.55-127.94,56.59-99.81,63.14-125c0,0,31.3,40.79,44.77,63.36C1385.49,748.46,1408.1,815.62,1325.89,892.4Z"/><path class="cls-4" d="M1309.61,208.2s-110.41,1-136.2-58.82-7.23-102.17-15.48-113.51c0,0,88.74,14.45,119.7,65S1309.61,208.2,1309.61,208.2Z"/><path class="cls-1" d="M1373.27,990.05c-.89,5.3-2.91,10.35-5,15.3-.53,1.24-1.08,2.46-1.64,3.68s-1.13,2.44-1.74,3.64l-1.78,3.62c-.6,1.2-1.25,2.37-1.87,3.57q-7.65,14.17-16.62,27.57c-3,4.48-6,8.89-9.08,13.27s-6.25,8.71-9.5,13l-4.87,6.38-2.45,3.19-2.59,3.12-5.22,6.23c-.88,1-1.73,2.08-2.63,3.09l-2.8,2.95a231.55,231.55,0,0,1-50.3,40.71,226,226,0,0,1-28.91,14.46c-5,2-10,3.87-15.18,5.44a120.55,120.55,0,0,1-15.61,3.85c2.53-.88,5-1.8,7.48-2.83l3.69-1.51,3.65-1.61c2.43-1.05,4.81-2.25,7.21-3.35s4.73-2.41,7.09-3.6l1.77-.89,1.74-1,3.47-1.91c1.15-.65,2.32-1.25,3.46-1.93l3.38-2.06c2.24-1.4,4.57-2.64,6.75-4.12l6.63-4.31a285,285,0,0,0,47.76-40.9l2.73-2.83c.88-1,1.71-2,2.56-3l5.11-6,2.57-3,2.48-3.11,5-6.22c1.68-2.06,3.31-4.15,4.94-6.25l4.91-6.27c1.64-2.08,3.2-4.22,4.83-6.32s3.27-4.18,4.82-6.33l4.73-6.4,4.63-6.46c1.58-2.14,3.07-4.33,4.57-6.51l2.25-3.28,2.18-3.32c3-4.39,5.72-8.92,8.43-13.49l2-3.46,1.84-3.53A54.51,54.51,0,0,0,1373.27,990.05Z"/><path class="cls-2" d="M1195.51,1163.08s12.57-76.8,62.7-110.36S1388.57,969.14,1382,870.87c0,0,52.27,123.75-44.81,242.16C1266.66,1182.37,1195.51,1163.08,1195.51,1163.08Z"/><path class="cls-1" d="M1719.08,638a56.26,56.26,0,0,1-1.92,12.6c-.53,2.06-1.06,4.13-1.7,6.16s-1.24,4.07-1.93,6.08q-4.17,12.07-9.45,23.69c-3.44,7.77-7.28,15.35-11.16,22.89a239.55,239.55,0,0,1-12.87,22.16A184,184,0,0,1,1646,769.91a179,179,0,0,1-20.74,15c-3.66,2.19-7.36,4.32-11.17,6.2a95.06,95.06,0,0,1-11.71,5c14.8-8.24,28.07-18.63,40.29-30a224.47,224.47,0,0,0,32.09-38.11l1.77-2.57c.56-.87,1.08-1.77,1.62-2.66l3.22-5.34,1.63-2.66,1.54-2.75,3.09-5.5c2.1-3.65,4.06-7.37,6.1-11.05l5.9-11.14,2.88-5.6,2.79-5.65c1-1.87,1.84-3.78,2.74-5.68l1.34-2.85,1.27-2.88c1.78-3.81,3.33-7.71,4.86-11.62l1.08-3,1-3A42.82,42.82,0,0,0,1719.08,638Z"/><path class="cls-5" d="M1602.34,796.15s0-61.66,34.84-94.34,91.18-82.09,73.38-158.06c0,0,56.76,90-3.92,195.07C1660.44,802.09,1602.34,796.15,1602.34,796.15Z"/><path class="cls-1" d="M1782.5,638a44.16,44.16,0,0,0,1.53,6.12l1,3,1.08,3c1.54,3.91,3.09,7.81,4.86,11.62l1.28,2.88,1.34,2.85c.89,1.9,1.78,3.81,2.74,5.68l2.79,5.65,2.87,5.6,5.91,11.14c2,3.68,4,7.4,6.09,11.05l3.1,5.5,1.54,2.75,1.62,2.66,3.23,5.34c.54.89,1.06,1.79,1.62,2.66l1.77,2.57a224.87,224.87,0,0,0,32.08,38.11c12.23,11.34,25.5,21.73,40.3,30a95.06,95.06,0,0,1-11.71-5c-3.82-1.88-7.51-4-11.17-6.2a179,179,0,0,1-20.74-15,184,184,0,0,1-34.1-38.29,241.73,241.73,0,0,1-12.86-22.16c-3.89-7.54-7.72-15.12-11.16-22.89s-6.68-15.64-9.45-23.69c-.7-2-1.32-4-1.93-6.08s-1.17-4.1-1.7-6.16A55.69,55.69,0,0,1,1782.5,638Z"/><path class="cls-5" d="M1899.24,796.15s0-61.66-34.85-94.34-91.17-82.09-73.37-158.06c0,0-56.77,90,3.91,195.07C1841.14,802.09,1899.24,796.15,1899.24,796.15Z"/><path class="cls-1" d="M317.63,638a55.69,55.69,0,0,1-1.92,12.6c-.53,2.06-1,4.13-1.7,6.16s-1.23,4.07-1.93,6.08q-4.15,12.07-9.45,23.69c-3.44,7.77-7.27,15.35-11.16,22.89a241.73,241.73,0,0,1-12.86,22.16,184,184,0,0,1-34.1,38.29,179,179,0,0,1-20.74,15c-3.66,2.19-7.35,4.32-11.17,6.2a95.06,95.06,0,0,1-11.71,5c14.8-8.24,28.07-18.63,40.29-30a224.47,224.47,0,0,0,32.09-38.11L275,725.5c.56-.87,1.08-1.77,1.62-2.66l3.23-5.34,1.62-2.66,1.54-2.75,3.1-5.5c2.1-3.65,4.05-7.37,6.09-11.05l5.91-11.14,2.87-5.6,2.79-5.65c1-1.87,1.84-3.78,2.74-5.68l1.34-2.85,1.28-2.88c1.77-3.81,3.32-7.71,4.86-11.62l1.08-3,1-3A44.16,44.16,0,0,0,317.63,638Z"/><path class="cls-5" d="M200.89,796.15s0-61.66,34.85-94.34,91.17-82.09,73.37-158.06c0,0,56.77,90-3.91,195.07C259,802.09,200.89,796.15,200.89,796.15Z"/><path class="cls-1" d="M381.05,638a42.82,42.82,0,0,0,1.54,6.12l1,3,1.08,3c1.53,3.91,3.08,7.81,4.86,11.62l1.27,2.88,1.34,2.85c.9,1.9,1.78,3.81,2.74,5.68l2.79,5.65,2.88,5.6,5.9,11.14c2,3.68,4,7.4,6.1,11.05l3.09,5.5,1.54,2.75,1.63,2.66,3.22,5.34c.54.89,1.06,1.79,1.62,2.66l1.77,2.57a224.47,224.47,0,0,0,32.09,38.11c12.22,11.34,25.49,21.73,40.29,30a95.06,95.06,0,0,1-11.71-5c-3.81-1.88-7.51-4-11.17-6.2a179,179,0,0,1-20.74-15,184,184,0,0,1-34.09-38.29,239.55,239.55,0,0,1-12.87-22.16c-3.88-7.54-7.72-15.12-11.16-22.89s-6.67-15.64-9.45-23.69c-.69-2-1.32-4-1.93-6.08s-1.17-4.1-1.7-6.16A56.26,56.26,0,0,1,381.05,638Z"/><path class="cls-5" d="M497.79,796.15s0-61.66-34.84-94.34-91.18-82.09-73.38-158.06c0,0-56.76,90,3.92,195.07C439.69,802.09,497.79,796.15,497.79,796.15Z"/><path class="cls-6" d="M1168.66,1006s-41.08-33.08-32.37-71.39S1175.46,838,1147.6,804c0,0,71.1,37.37,70.39,110.13s-49.33,91.85-49.33,91.85"/><line class="cls-6" x1="1168.66" y1="1107.37" x2="1168.66" y2="1005.97"/><path class="cls-1" d="M1168.66,1006c1.1-10.26,2.45-20.42,3.73-30.57s2.61-20.28,3.75-30.41,2.15-20.26,2.71-30.41c.26-5.07.49-10.15.41-15.23a103.5,103.5,0,0,0-1.16-15.27,64.66,64.66,0,0,1,3.87,15,136.78,136.78,0,0,1,1.25,15.52,227,227,0,0,1-1.56,31c-1.16,10.25-2.85,20.43-5,30.51A261.68,261.68,0,0,1,1168.66,1006Z"/><path class="cls-1" d="M1324.19,859.15c-2.06-14.69-3.48-29.42-4.68-44.15s-2.16-29.48-2.87-44.23-1.23-29.52-1.43-44.3-.24-29.57.4-44.4c2.07,14.69,3.5,29.42,4.69,44.15s2.14,29.48,2.86,44.23,1.18,29.53,1.42,44.31S1324.83,844.32,1324.19,859.15Z"/><path class="cls-3" d="M767.08,892.4s82.49-68.83,75.55-127.94-56.59-99.81-63.14-125c0,0-31.3,40.79-44.77,63.36C707.49,748.46,684.88,815.62,767.08,892.4Z"/><path class="cls-1" d="M768.78,859.15c-.63-14.83-.62-29.62-.39-44.39s.7-29.55,1.42-44.31,1.63-29.5,2.86-44.23,2.62-29.46,4.69-44.15c.64,14.83.64,29.62.4,44.4s-.72,29.54-1.43,44.3-1.68,29.5-2.87,44.23S770.85,844.46,768.78,859.15Z"/><path class="cls-3" d="M632.46,892.4S550,823.57,556.92,764.46s56.59-99.81,63.14-125c0,0,31.3,40.79,44.77,63.36C692.06,748.46,714.67,815.62,632.46,892.4Z"/><path class="cls-1" d="M630.77,859.15c-2.07-14.69-3.49-29.42-4.68-44.15s-2.16-29.48-2.87-44.23-1.23-29.52-1.43-44.3-.25-29.57.4-44.4c2.07,14.69,3.49,29.42,4.69,44.15s2.14,29.48,2.86,44.23,1.18,29.53,1.42,44.31S631.4,844.32,630.77,859.15Z"/><path class="cls-3" d="M73.66,892.4s82.48-68.83,75.55-127.94-56.59-99.81-63.14-125c0,0-31.31,40.79-44.77,63.36C14.06,748.46-8.55,815.62,73.66,892.4Z"/><path class="cls-3" d="M2029.92,892.4s-82.48-68.83-75.54-127.94,56.59-99.81,63.14-125c0,0,31.3,40.79,44.77,63.36C2089.52,748.46,2112.13,815.62,2029.92,892.4Z"/><path class="cls-3" d="M1471.12,892.4s82.48-68.83,75.55-127.94-56.59-99.81-63.14-125c0,0-31.3,40.79-44.77,63.36C1411.52,748.46,1388.91,815.62,1471.12,892.4Z"/><path class="cls-1" d="M1472.82,859.15c-.64-14.83-.63-29.62-.39-44.39s.7-29.55,1.42-44.31,1.63-29.5,2.86-44.23,2.62-29.46,4.69-44.15c.64,14.83.63,29.62.4,44.4s-.72,29.54-1.43,44.3-1.68,29.5-2.87,44.23S1474.88,844.46,1472.82,859.15Z"/><path class="cls-1" d="M1351.61,534.58c-2.25-2.32-4.36-4.79-6.43-7.29s-4-5.12-5.87-7.77A168.57,168.57,0,0,1,1329,503a153.77,153.77,0,0,1-14.3-36.47c-.37-1.6-.82-3.18-1.12-4.8l-.94-4.85c-.33-1.61-.48-3.26-.72-4.89l-.34-2.45c-.1-.82-.14-1.64-.22-2.46l-.41-4.94-.14-4.95c0-.83-.06-1.66-.06-2.48l.07-2.48c0-1.65.08-3.31.16-5a131,131,0,0,1,8.75-38.6l2-4.54,1-2.27c.33-.75.67-1.51,1.07-2.23l2.28-4.4c.77-1.46,1.51-2.94,2.36-4.32l4.94-8.41c1.65-2.81,3.25-5.64,5.09-8.33l5.34-8.18,1.34-2c.45-.67.94-1.33,1.4-2l2.85-4,2.83-4c1-1.33,1.88-2.66,2.91-3.92l6.08-7.66c1-1.29,2.07-2.52,3.14-3.74l3.2-3.7c1.07-1.22,2.12-2.46,3.21-3.67l3.39-3.53,3.39-3.52c1.11-1.19,2.35-2.26,3.52-3.4,2.37-2.23,4.68-4.52,7.2-6.6l3.73-3.16c1.25-1,2.57-2,3.85-3,2.53-2,5.23-3.87,7.91-5.72,5.45-3.53,11.07-6.9,17.19-9.07a60.34,60.34,0,0,0-8.34,4.87c-2.69,1.76-5.26,3.71-7.8,5.66s-5,4-7.37,6.2c-1.19,1.07-2.41,2.11-3.57,3.21l-3.44,3.36c-2.35,2.19-4.52,4.55-6.72,6.88-1.09,1.17-2.24,2.29-3.27,3.52l-3.14,3.63-3.15,3.63c-1,1.23-2,2.49-3,3.74l-3,3.75c-1,1.25-2,2.49-2.94,3.8l-5.68,7.75c-1,1.28-1.86,2.61-2.76,3.94l-2.7,4-2.7,4c-.45.66-.91,1.31-1.34,2l-1.27,2-5.07,8.17c-.82,1.38-1.73,2.7-2.51,4.1l-2.4,4.17-4.8,8.34c-.84,1.38-1.53,2.79-2.25,4.2l-2.16,4.21c-.37.7-.69,1.42-1,2.15l-.94,2.17-1.88,4.34a127.9,127.9,0,0,0-8.67,36.62,133.6,133.6,0,0,0,2.54,37.71,149.43,149.43,0,0,0,5.05,18.39,172.17,172.17,0,0,0,7.16,17.77,182,182,0,0,0,9,17c1.63,2.77,3.37,5.48,5.15,8.17S1349.6,532.05,1351.61,534.58Z"/><path class="cls-1" d="M1183,69c9.37,9,18.32,18.44,27.13,28,4.44,4.73,8.73,9.59,13.1,14.38l12.86,14.59,12.64,14.79c4.13,5,8.34,9.92,12.39,15,8.19,10.06,16.24,20.24,23.86,30.79-9.37-9-18.33-18.43-27.13-27.95-4.45-4.73-8.73-9.59-13.1-14.39l-12.85-14.59-12.64-14.79c-4.13-5-8.34-9.92-12.39-15C1198.64,89.7,1190.59,79.52,1183,69Z"/><path class="cls-2" d="M749.82,534.58s105.58-48.72,51-177.35S605.94,229.9,605.94,229.9,827.43,443,749.82,534.58Z"/><path class="cls-4" d="M791.81,208.2s110.41,1,136.21-58.82S935.24,47.21,943.5,35.87c0,0-88.74,14.45-119.7,65S791.81,208.2,791.81,208.2Z"/><path class="cls-1" d="M728.16,990.05a54.51,54.51,0,0,0,3.17,7.31l1.84,3.53,2,3.46c2.71,4.57,5.43,9.1,8.43,13.49l2.18,3.32,2.25,3.28c1.5,2.18,3,4.37,4.57,6.51l4.63,6.46,4.73,6.4c1.55,2.15,3.22,4.22,4.82,6.33s3.19,4.24,4.83,6.32l4.91,6.27c1.63,2.1,3.25,4.19,4.93,6.25l5,6.22,2.48,3.11,2.57,3,5.1,6c.86,1,1.69,2,2.57,3l2.73,2.83A285,285,0,0,0,849.6,1134l6.63,4.31c2.18,1.48,4.51,2.72,6.74,4.12l3.39,2.06c1.13.68,2.31,1.28,3.46,1.93l3.47,1.91,1.74,1,1.77.89c2.36,1.19,4.68,2.48,7.08,3.6s4.78,2.3,7.22,3.35l3.64,1.61,3.7,1.51c2.46,1,4.95,2,7.48,2.83a120.15,120.15,0,0,1-15.61-3.85c-5.14-1.57-10.17-3.46-15.18-5.44a226,226,0,0,1-28.91-14.46,231.55,231.55,0,0,1-50.3-40.71l-2.8-2.95c-.9-1-1.75-2.06-2.63-3.09l-5.22-6.23-2.59-3.12-2.45-3.19-4.87-6.38c-3.25-4.25-6.36-8.63-9.5-13s-6.14-8.79-9.08-13.27q-9-13.37-16.62-27.57c-.62-1.2-1.27-2.37-1.87-3.57l-1.78-3.62c-.61-1.2-1.19-2.41-1.74-3.64s-1.11-2.44-1.64-3.68C731.06,1000.4,729.05,995.35,728.16,990.05Z"/><path class="cls-2" d="M905.92,1163.08s-12.57-76.8-62.7-110.36S712.86,969.14,719.47,870.87c0,0-52.27,123.75,44.81,242.16C834.77,1182.37,905.92,1163.08,905.92,1163.08Z"/><path class="cls-6" d="M932.77,1006s41.08-33.08,32.37-71.39S926,838,953.83,804c0,0-71.1,37.37-70.39,110.13S932.77,1006,932.77,1006"/><line class="cls-6" x1="932.77" y1="1107.37" x2="932.77" y2="1005.97"/><path class="cls-1" d="M932.77,1006a259.63,259.63,0,0,1-8-29.84c-2.12-10.08-3.81-20.26-5-30.51a227,227,0,0,1-1.56-31,136.76,136.76,0,0,1,1.24-15.52,64.68,64.68,0,0,1,3.88-15,102.16,102.16,0,0,0-1.16,15.27c-.08,5.08.14,10.16.4,15.23.57,10.15,1.58,20.28,2.72,30.41s2.43,20.26,3.74,30.41S931.67,995.71,932.77,1006Z"/><path class="cls-1" d="M749.82,534.58c2-2.53,3.85-5.19,5.64-7.86s3.53-5.4,5.16-8.17a179.56,179.56,0,0,0,9-17,172.24,172.24,0,0,0,7.17-17.77,149.43,149.43,0,0,0,5.05-18.39,133.6,133.6,0,0,0,2.53-37.71,127.56,127.56,0,0,0-8.66-36.62l-1.89-4.34-.94-2.17c-.3-.73-.62-1.45-1-2.15l-2.16-4.21c-.72-1.41-1.41-2.82-2.25-4.2l-4.8-8.34-2.4-4.17c-.79-1.4-1.69-2.72-2.51-4.1l-5.07-8.17-1.27-2c-.43-.68-.9-1.33-1.34-2l-2.7-4-2.7-4c-.9-1.33-1.8-2.66-2.76-3.94l-5.68-7.75c-.92-1.31-1.93-2.55-2.94-3.8l-3-3.75c-1-1.25-2-2.51-3-3.74l-3.15-3.63L721,307c-1-1.23-2.18-2.35-3.27-3.52-2.2-2.33-4.37-4.69-6.72-6.88l-3.44-3.36c-1.16-1.1-2.38-2.14-3.57-3.21-2.36-2.19-4.89-4.15-7.37-6.2s-5.11-3.9-7.8-5.66a60.93,60.93,0,0,0-8.34-4.87c6.11,2.17,11.74,5.54,17.19,9.07,2.68,1.85,5.38,3.68,7.91,5.72,1.28,1,2.6,2,3.85,3l3.72,3.16c2.52,2.08,4.84,4.37,7.21,6.6,1.17,1.14,2.41,2.21,3.52,3.4l3.39,3.52,3.38,3.53c1.09,1.21,2.14,2.45,3.22,3.67l3.2,3.7c1.07,1.22,2.15,2.45,3.14,3.74l6.07,7.66c1,1.26,2,2.59,2.91,3.92l2.84,4,2.84,4c.47.66,1,1.32,1.41,2l1.34,2,5.34,8.18c1.84,2.69,3.44,5.52,5.09,8.33l4.94,8.41c.85,1.38,1.59,2.86,2.36,4.32l2.28,4.4c.4.72.74,1.48,1.07,2.23l1,2.27,2,4.54a130.74,130.74,0,0,1,8.76,38.6c.08,1.65.1,3.31.16,5l.07,2.48c0,.82,0,1.65-.06,2.48l-.14,4.95-.41,4.94c-.08.82-.12,1.64-.23,2.46l-.33,2.45c-.24,1.63-.39,3.28-.72,4.89l-.94,4.85c-.3,1.62-.75,3.2-1.12,4.8A153.38,153.38,0,0,1,772.45,503a164.87,164.87,0,0,1-10.34,16.55c-1.87,2.65-3.84,5.24-5.86,7.77S752.07,532.26,749.82,534.58Z"/><path class="cls-1" d="M918.47,69c-7.63,10.55-15.68,20.73-23.87,30.79-4.05,5.07-8.26,10-12.4,15l-12.63,14.79-12.85,14.59c-4.37,4.8-8.66,9.66-13.1,14.39-8.81,9.52-17.76,18.92-27.13,27.95,7.62-10.55,15.66-20.73,23.85-30.79,4.06-5.07,8.27-10,12.4-15l12.64-14.79,12.86-14.59c4.37-4.79,8.66-9.65,13.1-14.38C900.15,87.41,909.1,78,918.47,69Z"/><path class="cls-4" d="M2011.76,208.2s-110.41,1-136.2-58.82-7.23-102.17-15.48-113.51c0,0,88.74,14.45,119.7,65S2011.76,208.2,2011.76,208.2Z"/><path class="cls-1" d="M2075.42,990.05c-.89,5.3-2.91,10.35-5,15.3-.53,1.24-1.08,2.46-1.64,3.68s-1.13,2.44-1.74,3.64l-1.78,3.62c-.6,1.2-1.25,2.37-1.87,3.57q-7.65,14.17-16.62,27.57c-3,4.48-6,8.89-9.08,13.27s-6.25,8.71-9.5,13l-4.87,6.38-2.45,3.19-2.59,3.12-5.22,6.23c-.88,1-1.73,2.08-2.63,3.09l-2.8,2.95a231.55,231.55,0,0,1-50.3,40.71,226,226,0,0,1-28.91,14.46c-5,2-10,3.87-15.18,5.44a120.55,120.55,0,0,1-15.61,3.85c2.53-.88,5-1.8,7.48-2.83l3.69-1.51,3.65-1.61c2.43-1.05,4.81-2.25,7.21-3.35s4.73-2.41,7.09-3.6l1.77-.89,1.74-1,3.47-1.91c1.15-.65,2.32-1.25,3.46-1.93l3.38-2.06c2.24-1.4,4.57-2.64,6.75-4.12L1954,1134a285,285,0,0,0,47.76-40.9l2.73-2.83c.88-1,1.71-2,2.56-3l5.11-6,2.57-3,2.48-3.11,5-6.22c1.68-2.06,3.31-4.15,4.94-6.25l4.91-6.27c1.64-2.08,3.2-4.22,4.83-6.32s3.26-4.18,4.82-6.33l4.73-6.4L2051,1031c1.58-2.14,3.07-4.33,4.57-6.51l2.25-3.28,2.18-3.32c3-4.39,5.72-8.92,8.43-13.49l2-3.46,1.84-3.53A54.51,54.51,0,0,0,2075.42,990.05Z"/><path class="cls-2" d="M1897.66,1163.08s12.57-76.8,62.7-110.36,130.36-83.58,123.75-181.85c0,0,52.27,123.75-44.81,242.16C1968.81,1182.37,1897.66,1163.08,1897.66,1163.08Z"/><path class="cls-6" d="M1870.81,1006s-41.08-33.08-32.37-71.39S1877.61,838,1849.75,804c0,0,71.1,37.37,70.39,110.13s-49.33,91.85-49.33,91.85"/><line class="cls-6" x1="1870.81" y1="1107.37" x2="1870.81" y2="1005.97"/><path class="cls-1" d="M1870.81,1006c1.1-10.26,2.45-20.42,3.73-30.57s2.61-20.28,3.75-30.41,2.15-20.26,2.71-30.41c.26-5.07.49-10.15.4-15.23a102.14,102.14,0,0,0-1.15-15.27,64.66,64.66,0,0,1,3.87,15,136.78,136.78,0,0,1,1.25,15.52,227,227,0,0,1-1.56,31c-1.16,10.25-2.85,20.43-5,30.51A261.68,261.68,0,0,1,1870.81,1006Z"/><path class="cls-1" d="M1885.11,69c9.37,9,18.32,18.44,27.13,28,4.44,4.73,8.73,9.59,13.1,14.38l12.86,14.59,12.64,14.79c4.13,5,8.34,9.92,12.39,15,8.19,10.06,16.24,20.24,23.86,30.79-9.37-9-18.33-18.43-27.13-27.95-4.45-4.73-8.73-9.59-13.1-14.39L1934,129.54l-12.63-14.79c-4.13-5-8.34-9.92-12.39-15C1900.79,89.7,1892.74,79.52,1885.11,69Z"/><path class="cls-2" d="M1452,534.58s105.58-48.72,51-177.35S1308.09,229.9,1308.09,229.9,1529.58,443,1452,534.58Z"/><path class="cls-4" d="M1494,208.2s110.41,1,136.21-58.82,7.22-102.17,15.48-113.51c0,0-88.74,14.45-119.7,65S1494,208.2,1494,208.2Z"/><path class="cls-1" d="M1430.31,990.05a54.51,54.51,0,0,0,3.17,7.31l1.84,3.53,2,3.46c2.71,4.57,5.43,9.1,8.43,13.49l2.18,3.32,2.25,3.28c1.5,2.18,3,4.37,4.57,6.51l4.63,6.46,4.73,6.4c1.55,2.15,3.22,4.22,4.82,6.33s3.19,4.24,4.83,6.32l4.91,6.27c1.63,2.1,3.25,4.19,4.93,6.25l5,6.22,2.48,3.11,2.57,3,5.1,6c.86,1,1.69,2,2.57,3l2.73,2.83a285,285,0,0,0,47.76,40.9l6.63,4.31c2.18,1.48,4.51,2.72,6.74,4.12l3.39,2.06c1.13.68,2.31,1.28,3.46,1.93l3.47,1.91,1.74,1,1.77.89c2.36,1.19,4.68,2.48,7.08,3.6s4.78,2.3,7.22,3.35l3.64,1.61,3.7,1.51c2.46,1,5,2,7.48,2.83a120.15,120.15,0,0,1-15.61-3.85c-5.14-1.57-10.17-3.46-15.18-5.44a226,226,0,0,1-28.91-14.46,231.55,231.55,0,0,1-50.3-40.71l-2.8-2.95c-.9-1-1.75-2.06-2.63-3.09l-5.22-6.23-2.59-3.12-2.45-3.19-4.87-6.38c-3.25-4.25-6.36-8.63-9.5-13s-6.14-8.79-9.08-13.27q-9-13.37-16.62-27.57c-.62-1.2-1.27-2.37-1.87-3.57l-1.78-3.62c-.61-1.2-1.19-2.41-1.74-3.64s-1.11-2.44-1.64-3.68C1433.21,1000.4,1431.2,995.35,1430.31,990.05Z"/><path class="cls-2" d="M1608.07,1163.08s-12.57-76.8-62.7-110.36S1415,969.14,1421.62,870.87c0,0-52.27,123.75,44.81,242.16C1536.92,1182.37,1608.07,1163.08,1608.07,1163.08Z"/><path class="cls-6" d="M1634.92,1006s41.08-33.08,32.37-71.39S1628.12,838,1656,804c0,0-71.1,37.37-70.39,110.13s49.33,91.85,49.33,91.85"/><line class="cls-6" x1="1634.92" y1="1107.37" x2="1634.92" y2="1005.97"/><path class="cls-1" d="M1634.92,1006a259.63,259.63,0,0,1-8-29.84c-2.12-10.08-3.81-20.26-5-30.51a227,227,0,0,1-1.56-31,136.76,136.76,0,0,1,1.24-15.52,64.68,64.68,0,0,1,3.88-15,102.16,102.16,0,0,0-1.16,15.27c-.08,5.08.14,10.16.4,15.23.57,10.15,1.58,20.28,2.72,30.41s2.43,20.26,3.74,30.41S1633.82,995.71,1634.92,1006Z"/><path class="cls-1" d="M1452,534.58c2-2.53,3.85-5.19,5.64-7.86s3.53-5.4,5.16-8.17a179.56,179.56,0,0,0,9-17,172.24,172.24,0,0,0,7.17-17.77,149.43,149.43,0,0,0,5-18.39,133.6,133.6,0,0,0,2.53-37.71,127.56,127.56,0,0,0-8.66-36.62l-1.89-4.34-.94-2.17a22,22,0,0,0-1-2.15l-2.15-4.21c-.72-1.41-1.41-2.82-2.25-4.2l-4.8-8.34-2.4-4.17c-.79-1.4-1.69-2.72-2.51-4.1l-5.07-8.17-1.27-2c-.43-.68-.9-1.33-1.34-2l-2.7-4-2.7-4c-.9-1.33-1.8-2.66-2.76-3.94l-5.68-7.75c-.92-1.31-1.93-2.55-2.94-3.8l-3-3.75c-1-1.25-2-2.51-3-3.74l-3.15-3.63-3.14-3.63c-1-1.23-2.18-2.35-3.27-3.52-2.2-2.33-4.38-4.69-6.72-6.88l-3.44-3.36c-1.16-1.1-2.38-2.14-3.57-3.21-2.36-2.19-4.89-4.15-7.37-6.2s-5.11-3.9-7.8-5.66a60.93,60.93,0,0,0-8.34-4.87c6.11,2.17,11.74,5.54,17.19,9.07,2.68,1.85,5.38,3.68,7.91,5.72,1.28,1,2.6,2,3.85,3l3.72,3.16c2.52,2.08,4.84,4.37,7.21,6.6,1.17,1.14,2.41,2.21,3.52,3.4l3.39,3.52,3.38,3.53c1.09,1.21,2.14,2.45,3.22,3.67l3.2,3.7c1.07,1.22,2.15,2.45,3.14,3.74l6.07,7.66c1,1.26,2,2.59,2.91,3.92l2.84,4,2.84,4c.47.66,1,1.32,1.41,2l1.34,2,5.34,8.18c1.84,2.69,3.44,5.52,5.09,8.33l4.94,8.41c.85,1.38,1.59,2.86,2.35,4.32l2.29,4.4c.4.72.74,1.48,1.07,2.23l1,2.27,2,4.54a130.74,130.74,0,0,1,8.76,38.6c.08,1.65.1,3.31.16,5l.07,2.48c0,.82,0,1.65-.06,2.48l-.14,4.95-.41,4.94c-.08.82-.12,1.64-.23,2.46l-.33,2.45c-.24,1.63-.39,3.28-.72,4.89l-.94,4.85c-.3,1.62-.75,3.2-1.12,4.8A153.38,153.38,0,0,1,1474.6,503a164.87,164.87,0,0,1-10.34,16.55c-1.87,2.65-3.84,5.24-5.86,7.77S1454.22,532.26,1452,534.58Z"/><path class="cls-2" d="M1682.47,251.59s105.59,48.72,51,177.35-194.9,127.33-194.9,127.33S1760.09,343.2,1682.47,251.59Z"/><path class="cls-1" d="M1695.38,263.66a97.84,97.84,0,0,1,11.13,14.83,130.89,130.89,0,0,1,8.66,16.51,135,135,0,0,1,6.18,17.68,128.24,128.24,0,0,1,3.49,18.47,126.51,126.51,0,0,1-1.47,37.6,146.26,146.26,0,0,1-11.94,35.69q-2.06,4.23-4.33,8.34c-1.52,2.74-3.08,5.39-4.62,8.09l-4.78,8c-1.66,2.62-3.32,5.24-5,7.83a309,309,0,0,1-22.13,29.93,221.71,221.71,0,0,1-26.09,26.54,158.18,158.18,0,0,1-14.87,11.18,81.32,81.32,0,0,1-16.44,8.56,60.72,60.72,0,0,0,8-4.6c2.55-1.7,5-3.48,7.46-5.36a172.28,172.28,0,0,0,13.82-12.05,257.67,257.67,0,0,0,24.33-27.35c1.88-2.41,3.69-4.87,5.5-7.32s3.57-4.95,5.3-7.47c3.52-5,6.83-10.13,10.09-15.29l4.78-7.82,4.64-7.91c1.49-2.66,3-5.32,4.48-8s2.82-5.35,4.1-8.07a146.42,146.42,0,0,0,11.65-34.11,129.62,129.62,0,0,0,2.49-17.86,137.78,137.78,0,0,0-.07-18.06,128,128,0,0,0-2.58-17.93,129.56,129.56,0,0,0-5-17.5,137.35,137.35,0,0,0-7.23-16.8q-2.07-4.09-4.45-8A86.61,86.61,0,0,0,1695.38,263.66Z"/><path class="cls-2" d="M1823.26,251.59s-105.59,48.72-51,177.35,194.89,127.33,194.89,127.33S1745.64,343.2,1823.26,251.59Z"/><path class="cls-1" d="M1812.52,261.86a85.16,85.16,0,0,0-5.19,7.71c-1.62,2.62-3.15,5.31-4.58,8a142.14,142.14,0,0,0-7.57,16.81,134,134,0,0,0-5.39,17.54,131.06,131.06,0,0,0-3,18c-2.42,24.24,2.46,48.78,12.88,70.72.63,1.38,1.28,2.75,2,4.1s1.37,2.72,2.09,4.06c1.41,2.68,3,5.36,4.48,8.05s3.12,5.31,4.67,8l4.79,7.89q9.77,15.67,21,30.35a259.28,259.28,0,0,0,24.47,27.59A172.79,172.79,0,0,0,1877,502.84q3.65,2.85,7.51,5.41a61.56,61.56,0,0,0,8,4.64,81.49,81.49,0,0,1-16.55-8.64,157.42,157.42,0,0,1-15-11.28,223.58,223.58,0,0,1-26.25-26.78,319.54,319.54,0,0,1-22.23-30.2c-1.67-2.64-3.4-5.25-5-7.91s-3.25-5.34-4.8-8.05-3.14-5.38-4.63-8.17q-1.16-2.07-2.21-4.2t-2.1-4.25a142.39,142.39,0,0,1-11.52-36.14,126.76,126.76,0,0,1-.63-37.9,129.22,129.22,0,0,1,3.94-18.52,137.28,137.28,0,0,1,6.57-17.68,135.38,135.38,0,0,1,9-16.49A101.24,101.24,0,0,1,1812.52,261.86Z"/><path class="cls-2" d="M279,251.59s105.58,48.72,51,177.35S135.07,556.27,135.07,556.27,356.56,343.2,279,251.59Z"/><path class="cls-1" d="M291.31,263.82a96.81,96.81,0,0,1,11.22,14.76A128.27,128.27,0,0,1,311.29,295a132.49,132.49,0,0,1,6.28,17.64,128.19,128.19,0,0,1,3.58,18.45,125.24,125.24,0,0,1-1.35,37.61,144.84,144.84,0,0,1-11.9,35.7c-1.36,2.83-2.82,5.61-4.33,8.35s-3.08,5.39-4.61,8.09l-4.78,8c-1.66,2.61-3.32,5.24-5,7.83A312.19,312.19,0,0,1,267,466.61a221.81,221.81,0,0,1-26.1,26.54,154,154,0,0,1-14.87,11.18,81.24,81.24,0,0,1-16.43,8.56,60,60,0,0,0,8-4.6q3.84-2.55,7.47-5.36a175.82,175.82,0,0,0,13.82-12.05,257.57,257.57,0,0,0,24.32-27.35c1.88-2.4,3.69-4.86,5.5-7.32s3.58-4.95,5.31-7.47c3.51-5,6.83-10.12,10.09-15.29l4.77-7.82,4.65-7.9c1.49-2.67,3-5.33,4.47-8s2.82-5.35,4.11-8.08a145.7,145.7,0,0,0,11.61-34.11,129.5,129.5,0,0,0,2.43-17.86,137.63,137.63,0,0,0-.13-18.05,126.39,126.39,0,0,0-2.67-17.92,130.58,130.58,0,0,0-5.08-17.47,138.92,138.92,0,0,0-7.34-16.75c-1.4-2.72-2.9-5.4-4.5-8A83.16,83.16,0,0,0,291.31,263.82Z"/><path class="cls-2" d="M419.73,251.59s-105.58,48.72-51,177.35S563.61,556.27,563.61,556.27,342.12,343.2,419.73,251.59Z"/><path class="cls-1" d="M406,263.82a84.24,84.24,0,0,0-5,7.72q-2.34,4-4.38,8.07a138.6,138.6,0,0,0-7.09,16.84A130.65,130.65,0,0,0,384.68,314a127.69,127.69,0,0,0-2.43,17.93,137.3,137.3,0,0,0,.06,18,132,132,0,0,0,2.58,17.83,148.58,148.58,0,0,0,11.75,34.05c1.29,2.72,2.67,5.41,4.11,8.06s3,5.32,4.48,8l4.64,7.89c1.6,2.6,3.15,5.23,4.77,7.81,3.26,5.16,6.57,10.29,10.08,15.28,1.73,2.51,3.54,5,5.3,7.46s3.62,4.91,5.5,7.3a258.18,258.18,0,0,0,24.3,27.32,173.64,173.64,0,0,0,13.81,12q3.62,2.82,7.46,5.35a60.49,60.49,0,0,0,8,4.6,80.55,80.55,0,0,1-16.41-8.55,152.12,152.12,0,0,1-14.86-11.17,221.13,221.13,0,0,1-26.07-26.49,313,313,0,0,1-22.12-29.89c-1.7-2.59-3.35-5.21-5-7.82l-4.77-8c-1.54-2.69-3.09-5.35-4.61-8.07s-3-5.51-4.34-8.33a147.7,147.7,0,0,1-12-35.6,126.41,126.41,0,0,1,1.63-56,133.32,133.32,0,0,1,6-17.71A131.26,131.26,0,0,1,395,278.71,97,97,0,0,1,406,263.82Z"/><path class="cls-1" d="M1620.61,69c-7.63,10.55-15.67,20.73-23.86,30.79-4,5.07-8.26,10-12.4,15l-12.63,14.79-12.85,14.59c-4.37,4.8-8.66,9.66-13.1,14.39-8.81,9.52-17.76,18.92-27.13,27.95,7.62-10.55,15.66-20.73,23.85-30.79,4.06-5.07,8.27-10,12.4-15l12.64-14.79,12.86-14.59c4.37-4.79,8.66-9.65,13.1-14.38C1602.3,87.41,1611.25,78,1620.61,69Z"/><path class="cls-7" d="M895.38,1208.5c0-100.86,167.5-268.36,203.52-306.18s255.75-225.13,255.75-405.23-299-218.56-299-335S1183.55,5.4,1183.55,5.4"/><path class="cls-7" d="M1204.43,1208.5c0-100.86-167.5-268.36-203.52-306.18S745.16,677.19,745.16,497.09s299-218.56,299-335S916.26,5.4,916.26,5.4"/><path class="cls-7" d="M1597.53,1208.5c0-100.86,167.5-268.36,203.52-306.18S2056.8,677.19,2056.8,497.09s-299-218.56-299-335S1885.7,5.4,1885.7,5.4"/><path class="cls-7" d="M1906.58,1208.5c0-100.86-167.5-268.36-203.52-306.18s-255.75-225.13-255.75-405.23,299-218.56,299-335S1618.41,5.4,1618.41,5.4"/><path class="cls-7" d="M194,1208.5c0-100.86,167.5-268.36,203.52-306.18S653.27,677.19,653.27,497.09s-299-218.56-299-335S482.18,5.4,482.18,5.4"/><path class="cls-7" d="M503.06,1208.5c0-100.86-167.5-268.36-203.52-306.18S43.79,677.19,43.79,497.09s299-218.56,299-335S214.89,5.4,214.89,5.4"/><path class="cls-2" d="M650.24,534.58s-105.58-48.72-51-177.35S794.12,229.9,794.12,229.9,572.63,443,650.24,534.58Z"/><path class="cls-4" d="M608.24,208.2s-110.41,1-136.2-58.82S464.81,47.21,456.56,35.87c0,0,88.74,14.45,119.69,65S608.24,208.2,608.24,208.2Z"/><path class="cls-1" d="M671.9,990.05c-.89,5.3-2.91,10.35-5,15.3-.53,1.24-1.09,2.46-1.65,3.68s-1.13,2.44-1.73,3.64l-1.79,3.62c-.6,1.2-1.24,2.37-1.86,3.57q-7.67,14.17-16.62,27.57c-2.95,4.48-6,8.89-9.08,13.27s-6.25,8.71-9.5,13l-4.88,6.38-2.44,3.19-2.59,3.12-5.23,6.23c-.87,1-1.73,2.08-2.63,3.09l-2.79,2.95a231.37,231.37,0,0,1-50.31,40.71,225.38,225.38,0,0,1-28.91,14.46c-5,2-10,3.87-15.18,5.44a120.41,120.41,0,0,1-15.6,3.85c2.52-.88,5-1.8,7.48-2.83l3.69-1.51,3.65-1.61c2.43-1.05,4.81-2.25,7.21-3.35s4.73-2.41,7.09-3.6l1.76-.89,1.74-1,3.48-1.91c1.15-.65,2.32-1.25,3.45-1.93l3.39-2.06c2.24-1.4,4.57-2.64,6.75-4.12l6.62-4.31a284.64,284.64,0,0,0,47.77-40.9l2.73-2.83c.87-1,1.71-2,2.56-3l5.11-6,2.57-3,2.48-3.11,5-6.22c1.68-2.06,3.31-4.15,4.93-6.25l4.91-6.27c1.65-2.08,3.21-4.22,4.83-6.32s3.27-4.18,4.83-6.33l4.72-6.4,4.64-6.46c1.58-2.14,3.06-4.33,4.57-6.51l2.25-3.28,2.18-3.32c3-4.39,5.72-8.92,8.43-13.49l2-3.46,1.85-3.53A54.51,54.51,0,0,0,671.9,990.05Z"/><path class="cls-2" d="M494.14,1163.08s12.56-76.8,62.7-110.36S687.2,969.14,680.58,870.87c0,0,52.27,123.75-44.8,242.16C565.29,1182.37,494.14,1163.08,494.14,1163.08Z"/><path class="cls-6" d="M467.29,1006s-41.08-33.08-32.38-71.39S474.09,838,446.23,804c0,0,71.09,37.37,70.39,110.13S467.29,1006,467.29,1006"/><line class="cls-6" x1="467.29" y1="1107.37" x2="467.29" y2="1005.97"/><path class="cls-1" d="M467.29,1006c1.09-10.26,2.44-20.42,3.73-30.57s2.61-20.28,3.75-30.41,2.15-20.26,2.71-30.41c.26-5.07.48-10.15.4-15.23a100.85,100.85,0,0,0-1.16-15.27,64.68,64.68,0,0,1,3.88,15,136.78,136.78,0,0,1,1.25,15.52,228.6,228.6,0,0,1-1.56,31c-1.16,10.25-2.85,20.43-5,30.51A259.58,259.58,0,0,1,467.29,1006Z"/><path class="cls-1" d="M650.24,534.58c-2.26-2.32-4.36-4.79-6.43-7.29s-4-5.12-5.87-7.77A166.7,166.7,0,0,1,627.6,503a153.35,153.35,0,0,1-14.3-36.47c-.37-1.6-.82-3.18-1.12-4.8l-.95-4.85c-.32-1.61-.47-3.26-.72-4.89l-.33-2.45c-.1-.82-.15-1.64-.22-2.46l-.41-4.94-.14-4.95c0-.83-.06-1.66-.06-2.48l.07-2.48c.05-1.65.08-3.31.16-5a131,131,0,0,1,8.75-38.6l2-4.54,1-2.27c.33-.75.66-1.51,1.06-2.23l2.29-4.4c.76-1.46,1.51-2.94,2.36-4.32l4.94-8.41c1.65-2.81,3.25-5.64,5.09-8.33l5.34-8.18,1.33-2c.45-.67.94-1.33,1.41-2l2.84-4,2.84-4c.95-1.33,1.88-2.66,2.91-3.92l6.08-7.66c1-1.29,2.06-2.52,3.14-3.74l3.2-3.7c1.07-1.22,2.12-2.46,3.21-3.67l3.39-3.53,3.39-3.52c1.11-1.19,2.35-2.26,3.51-3.4,2.37-2.23,4.69-4.52,7.21-6.6l3.72-3.16c1.26-1,2.57-2,3.85-3,2.54-2,5.24-3.87,7.91-5.72,5.46-3.53,11.08-6.9,17.2-9.07a60.34,60.34,0,0,0-8.34,4.87c-2.7,1.76-5.26,3.71-7.81,5.66s-5,4-7.36,6.2c-1.19,1.07-2.41,2.11-3.58,3.21L689,296.58c-2.34,2.19-4.51,4.55-6.72,6.88-1.08,1.17-2.23,2.29-3.26,3.52l-3.15,3.63-3.15,3.63c-1,1.23-2,2.49-3,3.74l-3,3.75c-1,1.25-2,2.49-2.93,3.8l-5.68,7.75c-1,1.28-1.86,2.61-2.76,3.94l-2.7,4-2.7,4c-.45.66-.91,1.31-1.34,2l-1.27,2-5.07,8.17c-.83,1.38-1.73,2.7-2.51,4.1l-2.4,4.17L632.56,374c-.83,1.38-1.53,2.79-2.24,4.2l-2.16,4.21c-.38.7-.69,1.42-1,2.15l-.94,2.17-1.88,4.34a127.24,127.24,0,0,0-8.67,36.62,133.6,133.6,0,0,0,2.54,37.71,149.43,149.43,0,0,0,5,18.39,172.17,172.17,0,0,0,7.16,17.77,182,182,0,0,0,9,17c1.63,2.77,3.37,5.48,5.15,8.17S648.23,532.05,650.24,534.58Z"/><path class="cls-1" d="M481.59,69c9.37,9,18.32,18.44,27.13,28,4.44,4.73,8.73,9.59,13.09,14.38l12.87,14.59,12.63,14.79c4.14,5,8.35,9.92,12.4,15,8.19,10.06,16.23,20.24,23.86,30.79-9.37-9-18.33-18.43-27.13-27.95-4.45-4.73-8.73-9.59-13.1-14.39l-12.86-14.59-12.63-14.79c-4.13-5-8.34-9.92-12.4-15C497.26,89.7,489.22,79.52,481.59,69Z"/><path class="cls-4" d="M90.44,208.2s110.41,1,136.21-58.82,7.22-102.17,15.48-113.51c0,0-88.74,14.45-119.7,65S90.44,208.2,90.44,208.2Z"/><path class="cls-1" d="M26.79,990.05A54.46,54.46,0,0,0,30,997.36l1.85,3.53,1.95,3.46c2.71,4.57,5.44,9.1,8.43,13.49l2.18,3.32,2.26,3.28c1.5,2.18,3,4.37,4.56,6.51l4.64,6.46,4.73,6.4c1.55,2.15,3.21,4.22,4.82,6.33s3.19,4.24,4.83,6.32l4.91,6.27c1.62,2.1,3.25,4.19,4.93,6.25l5,6.22,2.48,3.11,2.57,3,5.11,6c.86,1,1.69,2,2.56,3l2.73,2.83a285,285,0,0,0,47.77,40.9l6.63,4.31c2.18,1.48,4.5,2.72,6.74,4.12l3.39,2.06c1.13.68,2.31,1.28,3.46,1.93l3.47,1.91,1.74,1,1.77.89c2.36,1.19,4.68,2.48,7.08,3.6s4.78,2.3,7.22,3.35l3.64,1.61,3.69,1.51c2.46,1,5,2,7.49,2.83a120.15,120.15,0,0,1-15.61-3.85c-5.14-1.57-10.18-3.46-15.18-5.44a226,226,0,0,1-28.91-14.46,231.31,231.31,0,0,1-50.3-40.71l-2.8-2.95c-.9-1-1.75-2.06-2.63-3.09l-5.22-6.23-2.6-3.12L78.86,1080,74,1073.66c-3.25-4.25-6.36-8.63-9.5-13s-6.14-8.79-9.09-13.27q-8.94-13.37-16.61-27.57c-.63-1.2-1.27-2.37-1.87-3.57l-1.79-3.62c-.6-1.2-1.18-2.41-1.73-3.64s-1.12-2.44-1.64-3.68C29.69,1000.4,27.68,995.35,26.79,990.05Z"/><path class="cls-2" d="M204.55,1163.08s-12.57-76.8-62.71-110.36S11.48,969.14,18.1,870.87c0,0-52.27,123.75,44.8,242.16C133.4,1182.37,204.55,1163.08,204.55,1163.08Z"/><path class="cls-6" d="M231.4,1006s41.08-33.08,32.37-71.39S224.59,838,252.45,804c0,0-71.09,37.37-70.39,110.13S231.4,1006,231.4,1006"/><line class="cls-6" x1="231.4" y1="1107.37" x2="231.4" y2="1005.97"/><path class="cls-1" d="M231.4,1006a259.63,259.63,0,0,1-8-29.84c-2.13-10.08-3.81-20.26-5-30.51a230.23,230.23,0,0,1-1.56-31,139.12,139.12,0,0,1,1.25-15.52,64.68,64.68,0,0,1,3.88-15,102.16,102.16,0,0,0-1.16,15.27c-.08,5.08.14,10.16.4,15.23.57,10.15,1.58,20.28,2.71,30.41s2.44,20.26,3.75,30.41S230.3,995.71,231.4,1006Z"/><path class="cls-1" d="M217.09,69c-7.63,10.55-15.67,20.73-23.86,30.79-4.06,5.07-8.26,10-12.4,15L168.2,129.54l-12.86,14.59c-4.36,4.8-8.65,9.66-13.09,14.39-8.81,9.52-17.76,18.92-27.13,27.95,7.62-10.55,15.66-20.73,23.85-30.79,4.06-5.07,8.27-10,12.4-15L164,125.9l12.86-14.59c4.36-4.79,8.65-9.65,13.1-14.38C198.77,87.41,207.73,78,217.09,69Z"/></g></g></svg>