<?xml version="1.0" encoding="utf-8"?>
<!-- Generator: Adobe Illustrator 22.0.1, SVG Export Plug-In . SVG Version: 6.00 Build 0)  -->
<svg version="1.1" id="Layer_1" xmlns="http://www.w3.org/2000/svg" xmlns:xlink="http://www.w3.org/1999/xlink" x="0px" y="0px"
	 viewBox="0 0 187.5 622.3" style="enable-background:new 0 0 187.5 622.3;" xml:space="preserve">
<path style="fill:#F5E8CA;" d="M11.7,458.3v149.3c0,3.1,2.5,5.7,5.7,5.7h154.4c3.1,0,5.7-2.5,5.7-5.7V458.3c0-1.5-0.6-2.9-1.7-4
	l-35.4-35.4c-1.1-1.1-2.5-1.7-4-1.7H53.1c-1.5,0-2.9,0.6-4,1.6l-35.7,35.4C12.3,455.3,11.7,456.8,11.7,458.3z"/>
<line style="fill:none;stroke:#F5E8CA;stroke-width:7.5084;stroke-linecap:round;stroke-linejoin:round;stroke-miterlimit:10;" x1="94.6" y1="421.4" x2="94.6" y2="19.9"/>
<g>
	<defs>
		<polygon id="SVGID_1_" points="11.7,455.9 11.7,613.3 177.4,613.3 177.4,455.9 138.8,417.3 50.8,417.3 		"/>
	</defs>
	<clipPath id="SVGID_2_">
		<use xlink:href="#SVGID_1_"  style="overflow:visible;"/>
	</clipPath>
	<g style="clip-path:url(#SVGID_2_);">
		<path style="fill:#B8C17E;" d="M131.5,609.2c0,0,18.2-8.6,29.5-32.9c11.3-24.3,25.4-53.9,24.3-71.8c0,0,4.7,1.7-1.5,31.5
			c-6.2,29.8-16.3,50.4-20,56.2s-14.7,25.1-32.4,22.1S131.5,609.2,131.5,609.2z"/>
		<path style="fill:#B8C17E;" d="M119.7,602.9c0,0,10-1.5,19.7-27.9c9.7-26.4,23.1-69.8,27-75.6c3.9-5.8,11.1-23,10.9-24.8
			c0,0,2.7,4-3.1,21.8s-17.9,93.6-30,104.8c-12.1,11.1-21.5,10-21.5,10L119.7,602.9z"/>
		<path style="fill:#B8C17E;" d="M77.4,560.2c0,0-15.9-24.4-26.7-34.2s-20.6-16.9-28.2-18.4c0,0,16.9-2.3,41,21s44.1,61.2,50.1,64.8
			l0.9,3.7c0,0-16.4-19.9-23.7-26.2C83.4,564.6,77.4,560.2,77.4,560.2z"/>
		<path style="fill:#B8C17E;" d="M115,599c0,0-13.7-49.5-17.9-62.8c-4.2-13.3-12.8-42.6-18.3-50.3c0,0,13.1,10.5,21.3,32.6
			c8.2,22.1,28.1,78.1,28.6,79.6s-8.6,6.7-8.6,6.7L115,599z"/>
		<path style="fill:#B8C17E;" d="M123.5,582.7c0,0,1-31.5,0-39.3c-1-7.8-2-52.6,1.3-56.2c0,0,1.7,26.1,3.5,34.2
			c1.7,8.2,6,46.1,3.9,60.3l-1.6,11.2l-2.3,3.2L123.5,582.7z"/>
		<path style="fill:#B8C17E;" d="M131.5,610.3c0,0-8.4-2-17-13.3s-35.8-43.8-59.2-46.1c0,0,25.5,19.5,33.6,33.8
			c8.1,14.3,13.9,27,25.1,29.3C125.1,616.4,131.5,610.3,131.5,610.3z"/>
		<path style="fill:#B8C17E;" d="M55.3,550.9c0,0,25.5,19.5,33.6,33.8c8.1,14.3,13.9,27,25.1,29.3c11.1,2.3,17.6-3.7,17.6-3.7"/>
		<g>
			
				<path style="fill:none;stroke:#A3AA64;stroke-width:0.6525;stroke-linecap:round;stroke-linejoin:round;stroke-miterlimit:10;" d="
				M131.5,612.3c0,0,11.9,2.2,23.9-14c11.9-16.2,29.3-61.4,30.3-81"/>
			
				<path style="fill:none;stroke:#A3AA64;stroke-width:0.6525;stroke-linecap:round;stroke-linejoin:round;stroke-miterlimit:10;" d="
				M39.3,513.5c0,0,16.5,2.6,49.6,55.7"/>
			
				<path style="fill:none;stroke:#A3AA64;stroke-width:0.6525;stroke-linecap:round;stroke-linejoin:round;stroke-miterlimit:10;" d="
				M127.7,594.4c0,0,5.9-19.3,0.6-58c-5.3-38.7-3.9-40.1-3.9-40.1"/>
			
				<path style="fill:none;stroke:#A3AA64;stroke-width:0.6525;stroke-linecap:round;stroke-linejoin:round;stroke-miterlimit:10;" d="
				M85.2,495c0,0,13.7,19.1,20.9,50.4c7.1,31.3,13.5,48.1,15.6,50.8"/>
			
				<path style="fill:none;stroke:#A3AA64;stroke-width:0.6525;stroke-linecap:round;stroke-linejoin:round;stroke-miterlimit:10;" d="
				M120,602.8c0,0,9.6-1.4,19.4-27.9c9.7-26.4,23.1-69.8,27-75.6c3.9-5.8,11.1-23,10.9-24.8"/>
			
				<path style="fill:none;stroke:#A3AA64;stroke-width:0.6525;stroke-linecap:round;stroke-linejoin:round;stroke-miterlimit:10;" d="
				M137.2,611.9c0,0-14.1-3.6-22.7-14.9s-35.8-43.8-59.2-46.1"/>
			
				<path style="fill:none;stroke:#A3AA64;stroke-width:0.6525;stroke-linecap:round;stroke-linejoin:round;stroke-miterlimit:10;" d="
				M130.9,609.6c0,0,4.8-0.5,10.4-5.7c4.9-4.6,6.2-7.6,6.2-7.6"/>
			
				<path style="fill:none;stroke:#A3AA64;stroke-width:0.6525;stroke-linecap:round;stroke-linejoin:round;stroke-miterlimit:10;" d="
				M131.5,603.7c0,0,10-3.2,18.5-33.2c8.5-30,15.3-58.3,19.2-67.5s6-15.9,6.5-17.9"/>
			
				<path style="fill:none;stroke:#A3AA64;stroke-width:0.6525;stroke-linecap:round;stroke-linejoin:round;stroke-miterlimit:10;" d="
				M64.1,555.6c1.8,1,17.7,12.1,23.5,19.4s22.8,35.3,32.2,36.2"/>
		</g>
	</g>
</g>
<g>
	<path style="fill:#411A22;" d="M69.8,479.6c0-4.6,3.8-8.4,8.5-8.4c4.7,0,8.5,3.8,8.5,8.4c0,4.7-3.8,8.5-8.5,8.5
		C73.6,488.1,69.8,484.3,69.8,479.6z M71.8,479.6c0,3.6,2.9,6.5,6.5,6.5c3.6,0,6.5-2.9,6.5-6.5c0-3.5-2.9-6.4-6.5-6.4
		C74.7,473.2,71.8,476.1,71.8,479.6z"/>
	<path style="fill:#411A22;" d="M102.7,485.4c-0.9,1.7-3.4,2.6-4.8,2.6c-4.8,0-7.3-2.5-7.3-7.3v-7c0-0.3-0.2-0.4-0.2-0.4
		c-0.4-0.2-0.6-0.5-0.6-0.9c0-0.6,0.5-1,1.1-1c1.2,0,1.8,1,1.8,2.2v7.1c0,3.6,1.7,5.2,5.3,5.2c2.7,0,4.8-1.8,4.8-4.4v-7.9
		c0-1.2,0.6-2.2,1.8-2.2c0.6,0,1.1,0.4,1.1,1c0,0.4-0.2,0.8-0.6,0.9c0,0-0.2,0.1-0.2,0.4v11.9c0,0.3,0.2,0.4,0.2,0.4
		c0.4,0.2,0.6,0.5,0.6,0.9c0,0.6-0.5,1-1.1,1C103.1,488,102.6,486.6,102.7,485.4z"/>
	<path style="fill:#411A22;" d="M112.4,472.5c0,0.1,0.1,0.4,0.1,0.7c0.8-1.2,2.3-2,3.9-2c1,0,2,0.2,2.9,0.5c0.4,0.2,0.7,0.5,0.7,1
		c0,0.8-0.7,1.2-1.4,1c-0.7-0.2-1.5-0.4-2.2-0.4c-1.8,0-3.7,1-3.7,3v9.5c0,1.2-0.6,2.2-1.8,2.2c-0.6,0-1.1-0.4-1.1-1
		c0-0.4,0.2-0.8,0.6-0.9c0,0,0.2-0.1,0.2-0.4v-11.9c0-0.3-0.2-0.4-0.2-0.4c-0.4-0.2-0.6-0.5-0.6-0.9c0-0.6,0.5-1,1.1-1
		C111.6,471.3,112.2,471.8,112.4,472.5z"/>
	<path style="fill:#411A22;" d="M40,517.7v-18.8c0-0.3-0.2-0.4-0.2-0.4c-0.4-0.2-0.6-0.5-0.6-0.9c0-0.6,0.5-1,1.1-1
		c1.2,0,1.8,1,1.8,2.2v18.8c0,0.3,0.2,0.4,0.2,0.4c0.4,0.2,0.6,0.5,0.6,0.9c0,0.6-0.5,1-1.1,1C40.6,520,40,518.9,40,517.7z"/>
	<path style="fill:#411A22;" d="M47.1,517.7v-12c0-0.3-0.2-0.4-0.2-0.4c-0.4-0.2-0.6-0.5-0.6-0.9c0-0.6,0.5-1,1.1-1
		c1.2,0,1.8,1,1.8,2.2v12c0,0.3,0.2,0.4,0.2,0.4c0.4,0.2,0.6,0.5,0.6,0.9c0,0.6-0.5,1-1.1,1C47.7,520,47.1,518.9,47.1,517.7z
		 M46.3,498c0-0.8,0.7-1.5,1.5-1.5s1.5,0.6,1.5,1.4c0,0.8-0.7,1.5-1.5,1.5C47,499.5,46.3,498.8,46.3,498z"/>
	<path style="fill:#411A22;" d="M54,518.9c0-0.4,0.2-0.8,0.6-0.9c0,0,0.2-0.1,0.2-0.4v-12.2h-1.1c-0.5,0-0.9-0.5-0.9-1
		c0-0.5,0.4-1,1-1h1v-1.4c0-2.8,1.3-5.4,4.7-5.4c0.9,0,1.7,0.2,2.4,0.4c0.4,0.1,0.8,0.5,0.8,1c0,0.7-0.7,1.2-1.4,1
		c-0.5-0.2-1.2-0.4-1.8-0.4c-2,0-2.7,1.1-2.7,3.3v1.4H61c0.5,0,1,0.4,1,1c0,0.5-0.4,1-0.9,1h-4.3v12.4c0,1.2-0.6,2.2-1.8,2.2
		C54.5,520,54,519.6,54,518.9z"/>
	<path style="fill:#411A22;" d="M65.5,512.7c0.4,2.8,2.7,5.4,5.7,5.4c2.2,0,3.8-0.7,4.9-1.7c0.2-0.2,0.5-0.3,0.8-0.3
		c0.5,0,1,0.4,1,1c0,0.3-0.1,0.5-0.3,0.7c-1.4,1.5-3.5,2.4-6.4,2.4c-4.6,0-7.8-4-7.8-8.5c0-4.4,3.2-8.4,7.8-8.4
		c4.6,0,7.9,4.1,7.9,8.4c0,0.6-0.5,1.1-1.1,1.1H65.5z M77,510.6c-0.4-2.8-2.8-5.4-5.8-5.4c-2.9,0-5.4,2.6-5.7,5.4H77z"/>
	<path style="fill:#411A22;" d="M88,520.1c-1.6,0-3.4-0.6-4.7-1.5c-0.3-0.2-0.4-0.5-0.4-0.9c0-0.7,0.9-1.3,1.8-0.7
		c0.9,0.7,2.2,1,3.6,1c2,0,3.8-1,3.8-2.3c0-1.6-2-2.3-3.8-3.1c-2.1-0.8-5.3-2.2-5.3-5.1c0-2.6,2.7-4.5,5.6-4.5
		c1.7,0,3.4,0.6,4.5,1.5c0.3,0.3,0.4,0.6,0.4,0.9c0,0.7-0.9,1.3-1.7,0.7c-0.9-0.7-2.1-1.1-3.2-1.1c-1.9,0-3.6,1.1-3.6,2.5
		c0,1.5,2.3,2.4,3.8,3c2.4,1,5.4,2.4,5.4,5.1C94,519,90.5,520.1,88,520.1z"/>
	<path style="fill:#411A22;" d="M100.4,500.8v2.6h3.6c0.5,0,0.9,0.5,0.9,1c0,0.6-0.5,1-1,1h-3.5v8.6c0,2,0.3,4,2.7,4
		c0.6,0,1.3-0.2,1.8-0.3c0.6-0.2,1.2,0.2,1.3,0.7c0.1,0.5,0,1.1-0.7,1.3c-0.7,0.2-1.5,0.4-2.4,0.4c-3.4,0-4.7-2.3-4.7-6v-8.6h-1
		c-0.6,0-1-0.5-1-1c0-0.5,0.4-1,0.9-1h1.1v-2.4c0-0.3-0.2-0.4-0.2-0.4c-0.4-0.2-0.6-0.5-0.6-0.9c0-0.6,0.5-1,1.1-1
		C99.8,498.5,100.4,499.6,100.4,500.8z"/>
	<path style="fill:#411A22;" d="M110.3,505.8c-0.1-0.2-0.2-0.4-0.4-0.4c-0.5-0.1-0.8-0.5-0.8-1c0-0.7,0.6-1.1,1.2-1.1
		c0.9,0,1.5,0.6,1.8,1.3l3.9,10.2l0.8,2.8h0l0.8-2.8l4-10.3c0.3-0.8,1-1.3,1.9-1.3c0.6,0,1.2,0.4,1.2,1.1c0,0.5-0.3,0.9-0.8,1
		c-0.2,0-0.4,0.2-0.4,0.4l-5.6,14.3c-0.6,1.6-1.4,3.6-2.9,4.6c-0.7,0.5-1.4,0.7-2.1,0.7c-0.8,0-1.7-0.2-2.5-0.5
		c-0.4-0.2-0.7-0.6-0.7-1c0-0.6,0.5-1,1.1-1c0.6,0,1.3,0.4,2,0.4c0.4,0,0.7-0.1,1-0.3c0,0,1-0.8,1.7-2.6c0.1-0.1,0.1-0.3,0.2-0.4
		L110.3,505.8z"/>
	<path style="fill:#411A22;" d="M128.1,517.7v-18.8c0-0.3-0.2-0.4-0.2-0.4c-0.4-0.2-0.6-0.5-0.6-0.9c0-0.6,0.5-1,1.1-1
		c1.2,0,1.8,1,1.8,2.2v18.8c0,0.3,0.2,0.4,0.2,0.4c0.4,0.2,0.6,0.5,0.6,0.9c0,0.6-0.5,1-1.1,1C128.7,520,128.1,518.9,128.1,517.7z"
		/>
	<path style="fill:#411A22;" d="M136.8,512.7c0.4,2.8,2.7,5.4,5.7,5.4c2.2,0,3.8-0.7,4.9-1.7c0.2-0.2,0.5-0.3,0.8-0.3
		c0.5,0,1,0.4,1,1c0,0.3-0.1,0.5-0.3,0.7c-1.4,1.5-3.5,2.4-6.4,2.4c-4.6,0-7.8-4-7.8-8.5c0-4.4,3.2-8.4,7.8-8.4
		c4.6,0,7.9,4.1,7.9,8.4c0,0.6-0.5,1.1-1.1,1.1H136.8z M148.3,510.6c-0.4-2.8-2.8-5.4-5.8-5.4c-2.9,0-5.4,2.6-5.7,5.4H148.3z"/>
</g>
</svg>
