<?xml version="1.0" encoding="utf-8"?>
<!-- Generator: Adobe Illustrator 22.0.1, SVG Export Plug-In . SVG Version: 6.00 Build 0)  -->
<svg version="1.1" id="Layer_1" xmlns="http://www.w3.org/2000/svg" xmlns:xlink="http://www.w3.org/1999/xlink" x="0px" y="0px"
	 viewBox="0 0 187.5 622.3" style="enable-background:new 0 0 187.5 622.3;" xml:space="preserve">
<g>
	<path style="fill:#F5E8CA;" d="M14.2,458.3v149.3c0,3.1,2.5,5.7,5.7,5.7h154.4c3.1,0,5.7-2.5,5.7-5.7V458.3c0-1.5-0.6-2.9-1.7-4
		l-35.4-35.4c-1.1-1.1-2.5-1.7-4-1.7H55.6c-1.5,0-2.9,0.6-4,1.6l-35.7,35.4C14.8,455.3,14.2,456.8,14.2,458.3z"/>
	
		<line style="fill:none;stroke:#F5E8CA;stroke-width:7.5084;stroke-linecap:round;stroke-linejoin:round;stroke-miterlimit:10;" x1="97.1" y1="421.4" x2="97.1" y2="12.8"/>
	<g>
		<defs>
			<polygon id="SVGID_1_" points="14.2,455.9 14.2,613.3 179.9,613.3 179.9,455.9 141.3,417.3 53.2,417.3 			"/>
		</defs>
		<clipPath id="SVGID_2_">
			<use xlink:href="#SVGID_1_"  style="overflow:visible;"/>
		</clipPath>
		<g style="clip-path:url(#SVGID_2_);">
			<path style="fill:#E3D28A;" d="M136.4,494.8c3.4-3.9,12.2,0,17.5,7.8c7,10.3,6.2,21.4,6.2,21.4s-13,0.9-19.9-9.7
				C133.3,503.8,135.1,496.3,136.4,494.8z"/>
			<path style="fill:none;stroke:#C4B263;stroke-width:0.5;stroke-linecap:round;stroke-linejoin:round;stroke-miterlimit:10;" d="
				M20.5,599c0,0,5.8,18.4,8.6,28s11,29.6,11,29.6"/>
			<path style="fill:none;stroke:#C4B263;stroke-width:0.5;stroke-linecap:round;stroke-linejoin:round;stroke-miterlimit:10;" d="
				M136.4,494.8c0,0,7.4,5.3,12.6,13.1c5.3,7.8,8,13.2,8,13.2"/>
			<path style="fill:#E3D28A;" d="M145.2,482.3c0,0,8.1,13.1,22.5,9.3c0,0,0.7-8.7-8.4-11.4s-13-0.1-13-0.1L145.2,482.3z"/>
			<path style="fill:none;stroke:#C4B263;stroke-width:0.5;stroke-linecap:round;stroke-linejoin:round;stroke-miterlimit:10;" d="
				M146.4,480.1c0,0,4.2,1.4,9.4,4.5c5.2,3,8.9,5.4,8.9,5.4"/>
			<path style="fill:#C4B263;" d="M143.1,478.4c0,0-21.9,29.6-50.8,56.6c-28.9,27-81.6,65.8-81.6,65.8L6,604l2.6,3.5
				c0,0,65.5-46.4,87.6-69.2c22.2-22.8,42.7-43.8,50.1-58.2L143.1,478.4z"/>
			<path style="fill:#E3D28A;" d="M20.5,599c0,0,16.7-2.6,27.1,23.8c10.5,26.4-5.5,37.8-5.5,37.8s-21.6-4-29.7-27.2
				S20.5,599,20.5,599z"/>
			<path style="fill:#E3D28A;" d="M63.3,566.7c0,0,15.4-3.5,27.8,16.8c12.4,20.3,0.2,34.7,0.2,34.7s-19.1,0.2-28.8-18.7
				C52.7,580.5,63.3,566.7,63.3,566.7z"/>
			<path style="fill:#E3D28A;" d="M104.1,530.2c0,0,13.6-3.6,24.3,12.1c10.7,15.7,3.4,30.6,3.4,30.6s-15.7-0.1-25.4-14.3
				S100.5,534,104.1,530.2z"/>
			<path style="fill:#E3D28A;" d="M81.8,488.3c0,0,12.4-3.3,26.8,5.2c9.7,5.7,10.6,13.8,10.6,13.8l-5.5,6.1c0,0-9.8,1.1-19-5.6
				S81.8,488.3,81.8,488.3z"/>
			<path style="fill:#E3D28A;" d="M86.1,540.6c0,0-3.9-14-19.2-21c-15.3-7-23.9-2.3-23.9-2.3s2,14,9.6,20.2
				c10.4,8.5,25.5,10.1,25.5,10.1L86.1,540.6z"/>
			<path style="fill:#E3D28A;" d="M36.7,581.1c0,0-10.1,5.1-26.5-3.9s-13.3-19.5-13.3-19.5s10-6.2,25.8,0.2s19.4,18.9,19.4,18.9
				L36.7,581.1z"/>
			<path style="fill:none;stroke:#C4B263;stroke-width:0.5;stroke-linecap:round;stroke-linejoin:round;stroke-miterlimit:10;" d="
				M104.1,530.2c0,0,6.5,4.7,15.4,17.9c6.2,9.3,10.4,19.7,10.4,19.7"/>
			<path style="fill:none;stroke:#C4B263;stroke-width:0.5;stroke-linecap:round;stroke-linejoin:round;stroke-miterlimit:10;" d="
				M63.3,566.7c0,0,6.7,4.1,16.2,21.6s9.2,26.3,9.2,26.3"/>
			<path style="fill:#E3D28A;" d="M141.7,480.3c0,0-4.3,2-17.3-4.3s-10.6-17-10.6-17s7.4-1.2,17.4,4.2c10.1,5.4,11.9,15.2,11.9,15.2
				L141.7,480.3z"/>
			<path style="fill:none;stroke:#C4B263;stroke-width:0.5;stroke-linecap:round;stroke-linejoin:round;stroke-miterlimit:10;" d="
				M142.7,478.9c0,0-18.8-7.3-25.5-15.6"/>
			<path style="fill:none;stroke:#C4B263;stroke-width:0.5;stroke-linecap:round;stroke-linejoin:round;stroke-miterlimit:10;" d="
				M116.7,510c0,0-20.6-14.8-28.1-18"/>
			<path style="fill:none;stroke:#C4B263;stroke-width:0.5;stroke-linecap:round;stroke-linejoin:round;stroke-miterlimit:10;" d="
				M82.6,543.7c0,0-21.3-20.3-33.4-23.7"/>
			<path style="fill:none;stroke:#C4B263;stroke-width:0.5;stroke-linecap:round;stroke-linejoin:round;stroke-miterlimit:10;" d="
				M39.7,578.8c0,0-23.9-13-35.8-17"/>
		</g>
	</g>
	<g>
		<path style="fill:#411A22;" d="M72.3,479.6c0-4.6,3.8-8.4,8.5-8.4c4.7,0,8.5,3.8,8.5,8.4c0,4.7-3.8,8.5-8.5,8.5
			C76.1,488.1,72.3,484.3,72.3,479.6z M74.3,479.6c0,3.6,2.9,6.5,6.5,6.5c3.6,0,6.5-2.9,6.5-6.5c0-3.5-2.9-6.4-6.5-6.4
			C77.2,473.2,74.3,476.1,74.3,479.6z"/>
		<path style="fill:#411A22;" d="M105.2,485.4c-0.9,1.7-3.4,2.6-4.8,2.6c-4.8,0-7.3-2.5-7.3-7.3v-7c0-0.3-0.2-0.4-0.2-0.4
			c-0.4-0.2-0.6-0.5-0.6-0.9c0-0.6,0.5-1,1.1-1c1.2,0,1.8,1,1.8,2.2v7.1c0,3.6,1.7,5.2,5.3,5.2c2.7,0,4.8-1.8,4.8-4.4v-7.9
			c0-1.2,0.6-2.2,1.8-2.2c0.6,0,1.1,0.4,1.1,1c0,0.4-0.2,0.8-0.6,0.9c0,0-0.2,0.1-0.2,0.4v11.9c0,0.3,0.2,0.4,0.2,0.4
			c0.4,0.2,0.6,0.5,0.6,0.9c0,0.6-0.5,1-1.1,1C105.6,488,105.1,486.6,105.2,485.4z"/>
		<path style="fill:#411A22;" d="M114.9,472.5c0,0.1,0.1,0.4,0.1,0.7c0.8-1.2,2.3-2,3.9-2c1,0,2,0.2,2.9,0.5c0.4,0.2,0.7,0.5,0.7,1
			c0,0.8-0.7,1.2-1.4,1c-0.7-0.2-1.5-0.4-2.2-0.4c-1.8,0-3.7,1-3.7,3v9.5c0,1.2-0.6,2.2-1.8,2.2c-0.6,0-1.1-0.4-1.1-1
			c0-0.4,0.2-0.8,0.6-0.9c0,0,0.2-0.1,0.2-0.4v-11.9c0-0.3-0.2-0.4-0.2-0.4c-0.4-0.2-0.6-0.5-0.6-0.9c0-0.6,0.5-1,1.1-1
			C114.1,471.3,114.7,471.8,114.9,472.5z"/>
		<path style="fill:#411A22;" d="M31.6,524.4c0-0.4,0.2-0.8,0.6-0.9c0,0,0.2-0.1,0.2-0.4v-17.3c0-0.3-0.2-0.4-0.2-0.4
			c-0.4-0.2-0.6-0.5-0.6-0.9c0-0.6,0.5-1,1.1-1c1.2,0,1.8,1,1.8,2.2v1.2c1.1-2.2,3.5-3.4,5.6-3.4c4.5,0,7.6,4,7.6,8.5
			c0,4.4-3.2,8.1-7.6,8.1c-2.1,0-4.3-0.9-5.6-3v6.2c0,1.2-0.6,2.2-1.8,2.2C32.1,525.4,31.6,525,31.6,524.4z M34.5,511.9
			c0,3.3,2.2,6,5.6,6s5.6-2.8,5.6-6.1c0-3.2-2.1-6.5-5.6-6.5C36.6,505.4,34.5,508.7,34.5,511.9z"/>
		<path style="fill:#411A22;" d="M53.7,504.5c0,0.1,0.1,0.4,0.1,0.7c0.8-1.2,2.3-2,3.9-2c1,0,2,0.2,2.9,0.5c0.4,0.2,0.7,0.5,0.7,1
			c0,0.8-0.7,1.2-1.4,1c-0.7-0.2-1.5-0.4-2.2-0.4c-1.8,0-3.7,1-3.7,3v9.5c0,1.2-0.6,2.2-1.8,2.2c-0.6,0-1.1-0.4-1.1-1
			c0-0.4,0.2-0.8,0.6-0.9c0,0,0.2-0.1,0.2-0.4v-11.9c0-0.3-0.2-0.4-0.2-0.4c-0.4-0.2-0.6-0.5-0.6-0.9c0-0.6,0.5-1,1.1-1
			C52.9,503.3,53.5,503.8,53.7,504.5z"/>
		<path style="fill:#411A22;" d="M63.4,511.6c0-4.6,3.8-8.4,8.5-8.4c4.7,0,8.5,3.8,8.5,8.4c0,4.7-3.8,8.5-8.5,8.5
			C67.2,520.1,63.4,516.3,63.4,511.6z M65.4,511.6c0,3.6,2.9,6.5,6.5,6.5c3.6,0,6.5-2.9,6.5-6.5c0-3.5-2.9-6.4-6.5-6.4
			C68.3,505.2,65.4,508.1,65.4,511.6z"/>
		<path style="fill:#411A22;" d="M96.8,517.7v-0.8c-1.2,2-3.5,3.1-5.6,3.1h-0.3c-4.2,0-7.3-4-7.3-8.5c0-4.6,3.2-8.1,7.6-8.1
			c2.1,0,4.7,1,5.6,3v-7.5c0-1.2,0.6-2.2,1.8-2.2c0.6,0,1.1,0.4,1.1,1c0,0.4-0.2,0.8-0.6,0.9c0,0-0.2,0.1-0.2,0.4v18.7
			c0,0.3,0.2,0.4,0.2,0.4c0.4,0.2,0.6,0.5,0.6,0.9c0,0.6-0.5,1-1.1,1C97.4,520,96.8,518.9,96.8,517.7z M91.2,505.3
			c-3.4,0-5.6,2.9-5.6,6.1c0,3.2,2.1,6.5,5.6,6.5c3.5,0,5.6-3.3,5.6-6.5C96.8,508.2,94.5,505.3,91.2,505.3z"/>
		<path style="fill:#411A22;" d="M115.8,517.4c-0.9,1.7-3.4,2.6-4.8,2.6c-4.8,0-7.3-2.5-7.3-7.3v-7c0-0.3-0.2-0.4-0.2-0.4
			c-0.4-0.2-0.6-0.5-0.6-0.9c0-0.6,0.5-1,1.1-1c1.2,0,1.8,1,1.8,2.2v7.1c0,3.6,1.7,5.2,5.3,5.2c2.7,0,4.8-1.8,4.8-4.4v-7.9
			c0-1.2,0.6-2.2,1.8-2.2c0.6,0,1.1,0.4,1.1,1c0,0.4-0.2,0.8-0.6,0.9c0,0-0.2,0.1-0.2,0.4v11.9c0,0.3,0.2,0.4,0.2,0.4
			c0.4,0.2,0.6,0.5,0.6,0.9c0,0.6-0.5,1-1.1,1C116.2,520,115.7,518.6,115.8,517.4z"/>
		<path style="fill:#411A22;" d="M122.1,511.7c0-4.7,3.8-8.5,8.5-8.5c1.9,0,3.7,0.6,5.2,1.7c1.3,1-0.1,2.6-1.3,1.7
			c-1.2-0.9-2.5-1.3-3.9-1.3c-3.6,0-6.5,2.8-6.5,6.4c0,3.5,3,6.4,6.5,6.4c1.4,0,2.7-0.4,3.9-1.3c1.2-0.9,2.5,0.7,1.3,1.7
			c-1.4,1.2-3.3,1.8-5.2,1.8C125.9,520.1,122.1,516.3,122.1,511.7z"/>
		<path style="fill:#411A22;" d="M143.1,500.8v2.6h3.6c0.5,0,0.9,0.5,0.9,1c0,0.6-0.5,1-1,1h-3.5v8.6c0,2,0.3,4,2.7,4
			c0.6,0,1.3-0.2,1.8-0.3c0.6-0.2,1.2,0.2,1.3,0.7c0.1,0.5,0,1.1-0.7,1.3c-0.7,0.2-1.5,0.4-2.4,0.4c-3.4,0-4.7-2.3-4.7-6v-8.6h-1
			c-0.6,0-1-0.5-1-1c0-0.5,0.4-1,0.9-1h1.1v-2.4c0-0.3-0.2-0.4-0.2-0.4c-0.4-0.2-0.6-0.5-0.6-0.9c0-0.6,0.5-1,1.1-1
			C142.4,498.5,143.1,499.6,143.1,500.8z"/>
		<path style="fill:#411A22;" d="M157,520.1c-1.6,0-3.4-0.6-4.7-1.5c-0.3-0.2-0.4-0.5-0.4-0.9c0-0.7,0.9-1.3,1.8-0.7
			c0.9,0.7,2.2,1,3.6,1c2,0,3.8-1,3.8-2.3c0-1.6-2-2.3-3.8-3.1c-2.1-0.8-5.3-2.2-5.3-5.1c0-2.6,2.7-4.5,5.6-4.5
			c1.7,0,3.4,0.6,4.5,1.5c0.3,0.3,0.4,0.6,0.4,0.9c0,0.7-0.9,1.3-1.7,0.7c-0.9-0.7-2.1-1.1-3.2-1.1c-1.9,0-3.6,1.1-3.6,2.5
			c0,1.5,2.3,2.4,3.8,3c2.4,1,5.4,2.4,5.4,5.1C163.1,519,159.5,520.1,157,520.1z"/>
	</g>
</g>
</svg>
