<?xml version="1.0" encoding="utf-8"?>
<!-- Generator: Adobe Illustrator 22.0.1, SVG Export Plug-In . SVG Version: 6.00 Build 0)  -->
<svg version="1.1" id="Layer_1" xmlns="http://www.w3.org/2000/svg" xmlns:xlink="http://www.w3.org/1999/xlink" x="0px" y="0px"
	 viewBox="0 0 187.5 622.3" style="enable-background:new 0 0 187.5 622.3;" xml:space="preserve">
<g>
	
		<line style="fill:none;stroke:#F5E8CA;stroke-width:7.5084;stroke-linecap:round;stroke-linejoin:round;stroke-miterlimit:10;" x1="93.7" y1="417.2" x2="93.7" y2="8.6"/>
	<path style="fill:#F5E8CA;" d="M10.9,454.1v149.3c0,3.1,2.5,5.7,5.7,5.7h154.4c3.1,0,5.7-2.5,5.7-5.7V454c0-1.5-0.6-2.9-1.7-4
		l-35.4-35.4c-1.1-1.1-2.5-1.7-4-1.7H52.2c-1.5,0-2.9,0.6-4,1.6L12.6,450C11.5,451.1,10.9,452.6,10.9,454.1z"/>
	<g>
		<path style="fill:#411A22;" d="M68.9,475.4c0-4.6,3.8-8.4,8.5-8.4c4.7,0,8.5,3.8,8.5,8.4c0,4.7-3.8,8.5-8.5,8.5
			C72.7,483.9,68.9,480.1,68.9,475.4z M71,475.4c0,3.6,2.9,6.5,6.5,6.5c3.6,0,6.5-2.9,6.5-6.5c0-3.5-2.9-6.4-6.5-6.4
			C73.9,469,71,471.9,71,475.4z"/>
		<path style="fill:#411A22;" d="M101.9,481.2c-0.9,1.7-3.4,2.6-4.8,2.6c-4.8,0-7.3-2.5-7.3-7.3v-7c0-0.3-0.2-0.4-0.2-0.4
			c-0.4-0.2-0.6-0.5-0.6-0.9c0-0.6,0.5-1,1.1-1c1.2,0,1.8,1,1.8,2.2v7.1c0,3.6,1.7,5.2,5.3,5.2c2.7,0,4.8-1.8,4.8-4.4v-7.9
			c0-1.2,0.6-2.2,1.8-2.2c0.6,0,1.1,0.4,1.1,1c0,0.4-0.2,0.8-0.6,0.9c0,0-0.2,0.1-0.2,0.4v11.9c0,0.3,0.2,0.4,0.2,0.4
			c0.4,0.2,0.6,0.5,0.6,0.9c0,0.6-0.5,1-1.1,1C102.3,483.7,101.8,482.4,101.9,481.2z"/>
		<path style="fill:#411A22;" d="M111.6,468.2c0,0.1,0.1,0.4,0.1,0.7c0.8-1.2,2.3-2,3.9-2c1,0,2,0.2,2.9,0.5c0.4,0.2,0.7,0.5,0.7,1
			c0,0.8-0.7,1.2-1.4,1c-0.7-0.2-1.5-0.4-2.2-0.4c-1.8,0-3.7,1-3.7,3v9.5c0,1.2-0.6,2.2-1.8,2.2c-0.6,0-1.1-0.4-1.1-1
			c0-0.4,0.2-0.8,0.6-0.9c0,0,0.2-0.1,0.2-0.4v-11.9c0-0.3-0.2-0.4-0.2-0.4c-0.4-0.2-0.6-0.5-0.6-0.9c0-0.6,0.5-1,1.1-1
			C110.8,467.1,111.3,467.6,111.6,468.2z"/>
		<path style="fill:#411A22;" d="M40.3,514.7c0-0.4,0.2-0.8,0.6-0.9c0,0,0.2-0.1,0.2-0.4v-11.9c0-0.3-0.2-0.4-0.2-0.4
			c-0.4-0.2-0.6-0.5-0.6-0.9c0-0.6,0.5-1,1.1-1c1.1,0,1.7,1,1.8,2.1c0,0,0,0.2,0,0.2c1.1-1.7,2.8-2.3,4.5-2.3c2,0,4.3,0.6,5.3,2.8
			c1.1-1.9,3.1-2.8,5.2-2.8c3,0,6,2,6,6.1v8.2c0,0.3,0.2,0.4,0.2,0.4c0.4,0.2,0.6,0.5,0.6,0.9c0,0.6-0.5,1-1.1,1
			c-1.2,0-1.8-1-1.8-2.2v-8.3c0-2.8-2.2-4-4.1-4c-2.7,0-4.4,1.5-4.4,4.3v9.2c0,0.5-0.4,1-1,1c-0.5,0-1-0.5-1-1v-9.5c0-3-2.2-4-4.1-4
			c-2.7,0-4.4,1.7-4.4,4.4v8c0,1.2-0.6,2.2-1.8,2.2C40.8,515.7,40.3,515.3,40.3,514.7z"/>
		<path style="fill:#411A22;" d="M69.2,513.5v-12c0-0.3-0.2-0.4-0.2-0.4c-0.4-0.2-0.6-0.5-0.6-0.9c0-0.6,0.5-1,1.1-1
			c1.2,0,1.8,1,1.8,2.2v12c0,0.3,0.2,0.4,0.2,0.4c0.4,0.2,0.6,0.5,0.6,0.9c0,0.6-0.5,1-1.1,1C69.8,515.7,69.2,514.7,69.2,513.5z
			 M68.4,493.8c0-0.8,0.7-1.5,1.5-1.5s1.5,0.6,1.5,1.4c0,0.8-0.7,1.5-1.5,1.5C69.1,495.3,68.4,494.6,68.4,493.8z"/>
		<path style="fill:#411A22;" d="M81,515.9c-1.6,0-3.4-0.6-4.7-1.5c-0.3-0.2-0.4-0.5-0.4-0.9c0-0.7,0.9-1.3,1.8-0.7
			c0.9,0.7,2.2,1,3.6,1c2,0,3.8-1,3.8-2.3c0-1.6-2-2.3-3.8-3.1c-2.1-0.8-5.3-2.2-5.3-5.1c0-2.6,2.7-4.5,5.6-4.5
			c1.7,0,3.4,0.6,4.5,1.5c0.3,0.3,0.4,0.6,0.4,0.9c0,0.7-0.9,1.3-1.7,0.7c-0.9-0.7-2.1-1.1-3.2-1.1c-1.9,0-3.6,1.1-3.6,2.5
			c0,1.5,2.3,2.4,3.8,3c2.4,1,5.4,2.4,5.4,5.1C87,514.7,83.5,515.9,81,515.9z"/>
		<path style="fill:#411A22;" d="M95.1,515.9c-1.6,0-3.4-0.6-4.7-1.5c-0.3-0.2-0.4-0.5-0.4-0.9c0-0.7,0.9-1.3,1.8-0.7
			c0.9,0.7,2.2,1,3.6,1c2,0,3.8-1,3.8-2.3c0-1.6-2-2.3-3.8-3.1c-2.1-0.8-5.3-2.2-5.3-5.1c0-2.6,2.7-4.5,5.6-4.5
			c1.7,0,3.4,0.6,4.5,1.5c0.3,0.3,0.4,0.6,0.4,0.9c0,0.7-0.9,1.3-1.7,0.7c-0.9-0.7-2.1-1.1-3.2-1.1c-1.9,0-3.6,1.1-3.6,2.5
			c0,1.5,2.3,2.4,3.8,3c2.4,1,5.4,2.4,5.4,5.1C101.2,514.7,97.6,515.9,95.1,515.9z"/>
		<path style="fill:#411A22;" d="M105.2,513.5v-12c0-0.3-0.2-0.4-0.2-0.4c-0.4-0.2-0.6-0.5-0.6-0.9c0-0.6,0.5-1,1.1-1
			c1.2,0,1.8,1,1.8,2.2v12c0,0.3,0.2,0.4,0.2,0.4c0.4,0.2,0.6,0.5,0.6,0.9c0,0.6-0.5,1-1.1,1C105.8,515.7,105.2,514.7,105.2,513.5z
			 M104.4,493.8c0-0.8,0.7-1.5,1.5-1.5s1.5,0.6,1.5,1.4c0,0.8-0.7,1.5-1.5,1.5C105.1,495.3,104.4,494.6,104.4,493.8z"/>
		<path style="fill:#411A22;" d="M111.1,507.4c0-4.6,3.8-8.4,8.5-8.4c4.7,0,8.5,3.8,8.5,8.4c0,4.7-3.8,8.5-8.5,8.5
			C114.9,515.9,111.1,512.1,111.1,507.4z M113.1,507.4c0,3.6,2.9,6.5,6.5,6.5c3.6,0,6.5-2.9,6.5-6.5c0-3.5-2.9-6.4-6.5-6.4
			C116.1,501,113.1,503.9,113.1,507.4z"/>
		<path style="fill:#411A22;" d="M144.3,513.5v-7.1c0-3-1.3-5.2-5.1-5.2c-2.8,0-4.9,2-4.9,4.8v7.6c0,1.2-0.6,2.2-1.8,2.2
			c-0.6,0-1.1-0.4-1.1-1c0-0.4,0.2-0.8,0.6-0.9c0,0,0.2-0.1,0.2-0.4v-11.8c0-0.3-0.2-0.4-0.2-0.4c-0.4-0.2-0.6-0.6-0.6-1
			c0-0.6,0.5-1.1,1.1-1.1c1.1,0,1.8,0.8,1.8,2.1v0.6c0.2-0.3,1.8-2.7,4.9-2.7c4.7,0,7.1,2.8,7.1,7.6v6.7c0,0.3,0.2,0.4,0.2,0.4
			c0.4,0.2,0.6,0.5,0.6,0.9c0,0.6-0.5,1-1.1,1C144.9,515.7,144.3,514.7,144.3,513.5z"/>
	</g>
	<g>
		<defs>
			<polygon id="SVGID_1_" points="10.9,451.7 10.9,609 176.6,609 176.6,451.7 137.9,413 49.9,413 			"/>
		</defs>
		<clipPath id="SVGID_2_">
			<use xlink:href="#SVGID_1_"  style="overflow:visible;"/>
		</clipPath>
		<g style="clip-path:url(#SVGID_2_);">
			<g>
				<path style="fill:#A3906C;" d="M46.2,563.9c0,0-0.8-13.7,2.7-21.5c3.5-7.7,11.8-18,13.7-17.6c1.9,0.4,3.8,15.2,0,24.2
					s-7.1,14.9-7.1,14.9s5.1-5.7,13.5-8.8c8.4-3.1,23.8-4.8,24.9-0.8c1.1,4-4,2.6-7.9,6.6c-4,4-15,12.3-28.2,13.1
					c0,0,15.7,0.8,21.8,4.7c6.1,3.9,10.9,8.6,9.9,10.7c-1,2.2-14.5-1.1-21-3.7s-14.7-6.1-14.7-6.1S65,584,68.3,591.1
					s6.1,20,5.1,22.6c-1,2.6-14.3-5.8-19-14.2s-6-13.8-6-13.8s0,11.4-2.3,16.6c-2.3,5.2-11.3,17.6-12.6,17.5
					c-1.3-0.1-4.1-12.8-0.7-22.7s7.2-15,7.2-15s-9.3,6.8-14.1,9.1c-4.8,2.3-21.1,3.4-22.6-0.2c-1.5-3.6,11.3-10,17.7-12.6s16-3,16-3
					s-15,0.1-19.9-1.2S-1.4,568-0.4,563.1c1-4.9,24.2-6.3,37.2,2.9c0,0-6.1-8.3-8.5-13.7s-5.6-24-3.1-25s13.9,12.3,16.7,19.3
					C44.7,553.5,46.2,563.9,46.2,563.9z"/>
				<g>
					<g>
						<g>
							<path style="fill:#99815C;" d="M26.5,529.7c0,0,2.5,14.5,5.1,20.3s12.3,18.8,12.3,18.8s-3.3-15.7-5.9-20.2
								C35.5,544.1,27.6,530.8,26.5,529.7z"/>
						</g>
						<g>
							<path style="fill:#99815C;" d="M49.8,566.4c0,0,0.5-11.7,2.2-17.9c1.7-6.2,9.9-19.9,9.9-19.9s0.1,14.9-2.1,20.1
								C57.7,553.9,49.8,566.4,49.8,566.4z"/>
						</g>
						<g>
							<path style="fill:#99815C;" d="M54.2,570.7c0,0,10-8.8,15-11.2c5.1-2.4,17.4-6.5,21.6-4.8c0,0-10.8,9.2-17.4,12.2
								S54.2,570.7,54.2,570.7z"/>
						</g>
						<g>
							<path style="fill:#99815C;" d="M57.1,577.2c0,0,11.8,1.4,15.4,2.6c3.6,1.3,11.7,6.5,11.7,6.5s-9.1-2.2-13.5-4.3
								S57.1,577.2,57.1,577.2z"/>
						</g>
						<g>
							<path style="fill:#99815C;" d="M51,581.8c0,0,9.1,7.3,12,11.8c2.8,4.5,5.6,10.2,6.7,14.4c0,0-6.7-2.4-12.6-10.7
								S51,581.8,51,581.8z"/>
						</g>
						<g>
							<path style="fill:#99815C;" d="M44.5,582.3c0,0-0.1,10.6-2.1,16.9c-2.1,6.3-7.2,15.3-7.2,15.3s-1.8-7.9,1.1-16.8
								C39.1,588.9,44.5,582.3,44.5,582.3z"/>
						</g>
						<g>
							<path style="fill:#99815C;" d="M40.1,578.3c0,0-8.7,0.9-16.1,4c-7.4,3.1-15.6,7.6-15.6,7.6s11.8,0.7,16.7-1.2
								C29.9,586.9,40.1,578.3,40.1,578.3z"/>
						</g>
						<g>
							<path style="fill:#99815C;" d="M41.9,572.9c0,0-15-5.5-20.6-6.6c-5.6-1-16.6-2-16.6-2s6.8,5.5,15.8,6.9
								S41.9,572.9,41.9,572.9z"/>
						</g>
						<g>
							<path style="fill:#99815C;" d="M48.2,571.1c1.1,0,0.9,0.6,1.3,1.2c0.4,0.6,1.6,0.7,1.1,2.2c-0.5,1.6-0.6,2.8-1.1,3.3
								c-0.5,0.4-3.2,1-3.9,0c-0.7-1-1-1.7-0.5-2.6c0.5-0.9-0.6-1.7,0.1-2.5s0.9-1.2,1.4-1.3C46.9,571.4,48.2,571.1,48.2,571.1z"/>
						</g>
					</g>
				</g>
			</g>
			<g>
				<path style="fill:#A3906C;" d="M157.9,463c0,0,9.8-1.6,15.6,0.4c5.8,1.9,13.7,7.1,13.6,8.5c-0.1,1.4-10.6,3.9-17.3,1.8
					s-11.2-4-11.2-4s4.4,3.2,7.3,9c2.8,5.8,5.2,16.7,2.4,17.8s-2.2-2.6-5.3-5.2c-3.1-2.5-9.9-9.8-11.4-19.3c0,0,0.6,11.3-1.8,15.9
					c-2.4,4.6-5.3,8.4-7,7.9c-1.6-0.5-0.3-10.5,1.1-15.3c1.4-4.8,3.3-10.9,3.3-10.9s-2.4,8.3-7.2,11.3s-13.9,5.8-15.8,5.3
					c-1.9-0.5,3.1-10.7,8.8-14.6s9.4-5.3,9.4-5.3s-8.2,0.8-12.1-0.4S117,459,117,458.1c0-0.9,8.9-3.9,16.2-2.1
					c7.3,1.8,11.2,4,11.2,4s-5.6-6.2-7.6-9.4c-2-3.3-3.9-14.8-1.5-16.2c2.5-1.3,8,7.4,10.3,11.7s3.3,11.2,3.3,11.2
					s-1.2-10.7-0.6-14.3c0.6-3.6,3.1-13.7,6.6-13.4c3.6,0.3,6.3,16.9,0.7,26.9c0,0,5.5-4.9,9.2-7.1c3.7-2.2,16.8-5.8,17.7-4.1
					c0.9,1.7-7.8,10.9-12.6,13.4C165.2,461.2,157.9,463,157.9,463z"/>
				<g>
					<g>
						<g>
							<path style="fill:#99815C;" d="M180.9,446.5c0,0-10.2,2.8-14.2,5.1c-4,2.3-12.5,10.2-12.5,10.2s11-3.5,14-5.7
								C171.2,453.9,180.2,447.3,180.9,446.5z"/>
						</g>
						<g>
							<path style="fill:#99815C;" d="M156.3,465.8c0,0,8.4-0.5,13,0.3c4.5,0.8,14.9,5.6,14.9,5.6s-10.6,1.1-14.5,0
								C165.8,470.5,156.3,465.8,156.3,465.8z"/>
						</g>
						<g>
							<path style="fill:#99815C;" d="M153.5,469.2c0,0,7,6.5,9.1,10s5.9,12,5,15.1c0,0-7.4-7-10-11.6
								C155,478.2,153.5,469.2,153.5,469.2z"/>
						</g>
						<g>
							<path style="fill:#99815C;" d="M149.1,471.8c0,0-0.1,8.5-0.8,11.2c-0.6,2.7-3.8,8.8-3.8,8.8s0.9-6.7,2.1-10
								C147.8,478.5,149.1,471.8,149.1,471.8z"/>
						</g>
						<g>
							<path style="fill:#99815C;" d="M145.4,467.8c0,0-4.6,7.1-7.6,9.4c-3,2.3-6.9,4.7-9.8,5.8c0,0,1.3-5,6.8-9.8
								C140.3,468.4,145.4,467.8,145.4,467.8z"/>
						</g>
						<g>
							<path style="fill:#99815C;" d="M144.6,463.1c0,0-7.6,0.7-12.3-0.3c-4.7-1-11.5-4-11.5-4s5.5-1.8,12.1-0.5
								C139.4,459.8,144.6,463.1,144.6,463.1z"/>
						</g>
						<g>
							<path style="fill:#99815C;" d="M147.1,459.7c0,0-1.3-6.2-4.1-11.2c-2.8-5.1-6.6-10.6-6.6-10.6s0.3,8.5,2,11.9
								C140.2,453,147.1,459.7,147.1,459.7z"/>
						</g>
						<g>
							<path style="fill:#99815C;" d="M151.1,460.6c0,0,2.9-11.1,3.2-15.2s0.2-12,0.2-12s-3.4,5.3-3.8,11.8
								C150.3,451.7,151.1,460.6,151.1,460.6z"/>
						</g>
						<g>
							<path style="fill:#99815C;" d="M152.8,465c0.1,0.8-0.4,0.7-0.7,1s-0.4,1.2-1.5,0.9c-1.2-0.2-2.1-0.2-2.4-0.6
								c-0.3-0.3-0.9-2.2-0.3-2.8c0.6-0.6,1.1-0.8,1.8-0.6c0.7,0.3,1.2-0.6,1.8-0.1c0.6,0.4,0.9,0.5,1,0.9
								C152.6,464.1,152.8,465,152.8,465z"/>
						</g>
					</g>
				</g>
			</g>
			<g>
				<path style="fill:#A3906C;" d="M137.9,533.2c0,0-4.5,7.1-4.3,12c0.2,4.9,2.7,9.1,2.7,9.1s-2.3-2.8-5.6-5.4
					c-3.4-2.6-9.1-3.2-9.1-3.2s4.7,7.7,11,9.6c0,0-4.5-1.5-9.1-1.2c-4.6,0.3-9.7,2.9-10.2,3.7c-0.9,1.4,8.8,6.3,12.7,5.9
					c4-0.5,8.1-1.9,8.1-1.9s-6.3,3.2-8.6,6.7s-2.5,6.6-2.5,6.6s6.5-2.2,9.5-5.7s4.4-5.1,4.4-5.1s-2.6,4.1-2.9,7.7
					c-0.3,3.6,3.9,13.1,3.9,13.1s5.3-8.1,5.6-12.4s-0.8-7.3-0.8-7.3s1.9,4.5,4.7,7.3c2.8,2.7,10.7,5.6,11.3,5
					c0.5-0.6,0.3-2.7-0.9-4.8c-1.2-2.1-1.7-5.9-4.9-8.3c-3.2-2.4-5.6-3.3-5.6-3.3s11,3.8,14,1.2c0,0-3.4-4.2-8.2-4.9
					s-7.5-0.4-7.5-0.4s5.7-0.9,8.9-6.5c3.2-5.6,3.4-9.9,2.9-10.3c-0.5-0.5-7.3,1.6-10.5,6.2c-3.2,4.5-4.4,8.1-4.4,8.1
					s1.6-5.6,0.8-10.5C142.6,539.5,139.3,533.2,137.9,533.2z"/>
				<path style="fill:#99815C;" d="M140.2,555.4c0,0-4.1-5.5-3.6-10.9c0.6-5.4,1.8-8.9,1.8-8.9s3.7,6.4,3.8,9.4
					C142.3,547.9,140.2,555.4,140.2,555.4z"/>
				<path style="fill:#99815B;" d="M144.3,555c0,0,2.5-5.9,5-7.8s5.9-3.9,5.9-3.9s-0.7,5.6-3.3,8.2C149.4,554.2,144.3,555,144.3,555
					z"/>
				<path style="fill:#99815C;" d="M144.3,563.1c0,0,0.3,3.8,2.9,6.3s8.6,5.3,8.6,5.3s-3.1-6.6-5.1-8.5
					C148.6,564.3,144.3,563.1,144.3,563.1z"/>
				<path style="fill:#99815C;" d="M140.7,563.1c0,0-2.1,4.2-2.6,8.9s0.7,9.4,0.7,9.4s3.2-5.4,3.4-10.2
					C142.4,566.3,140.7,563.1,140.7,563.1z"/>
				<path style="fill:#99815C;" d="M135.6,558.5c0,0-5.7-3.4-9.6-3s-7.4,3-7.4,3s3.9,3.4,8.5,3S135.6,558.5,135.6,558.5z"/>
				<path style="fill:none;stroke:#99815B;stroke-width:0.2987;stroke-linecap:round;stroke-miterlimit:10;" d="M124.7,547.6
					c0,0,4.4,2.7,6.3,4.2s7,5.4,7,5.4"/>
				<path style="fill:none;stroke:#99815B;stroke-width:0.2987;stroke-linecap:round;stroke-miterlimit:10;" d="M145.6,559.3
					c0,0,5,0.3,7.3,0.7s5.7,1.7,5.7,1.7"/>
				<path style="fill:none;stroke:#99815B;stroke-width:0.2987;stroke-linecap:round;stroke-miterlimit:10;" d="M125.2,573.1
					c0,0,4.1-3.4,6.1-5.4s5.7-5.6,5.7-5.6"/>
				<path style="fill:#99815C;" d="M141.3,556.5c0.6,0,1.3-0.1,1.4,0.3c0.1,0.4-0.2,1.3,0.1,1.6c0.3,0.3,0.9,0.6,0.4,1.1
					c-0.5,0.6-1,1.5-1.4,1.5c-0.4,0-1.4-0.2-1.5,0.4s-0.5-0.2-1-0.5c-0.5-0.3-1.5-0.2-1.5-0.7s0.3-0.7,0-1c-0.3-0.3-1.1-0.4-0.7-0.8
					c0.4-0.4,1.4-0.3,1.4-0.9c0-0.5,0-1.1,0.5-1.1c0.5,0,0.2,0.3,0.8,0.3C140.5,556.7,141.3,556.5,141.3,556.5z"/>
			</g>
			<g>
				<path style="fill:#A3906C;" d="M31.9,409.6c0,0-5.7,9-5.4,15.2s3.5,11.6,3.5,11.6s-2.9-3.6-7.1-6.8c-4.2-3.3-11.6-4-11.6-4
					s6,9.8,13.8,12.2c0,0-5.6-1.9-11.5-1.5c-5.8,0.4-12.2,3.7-12.8,4.7c-1.1,1.8,11.1,8,16.1,7.4s10.3-2.4,10.3-2.4s-8,4-10.8,8.5
					c-2.8,4.4-3.2,8.4-3.2,8.4s8.2-2.8,11.9-7.2s5.5-6.4,5.5-6.4s-3.3,5.2-3.7,9.8c-0.4,4.5,4.9,16.5,4.9,16.5s6.7-10.3,7-15.6
					c0.3-5.3-1-9.3-1-9.3s2.4,5.7,5.9,9.2c3.6,3.5,13.5,7.1,14.2,6.3c0.7-0.8,0.4-3.5-1.1-6.1c-1.5-2.7-2.2-7.4-6.2-10.5
					c-4-3.1-7-4.1-7-4.1s13.9,4.8,17.7,1.5c0,0-4.3-5.3-10.4-6.2c-6-0.9-9.5-0.5-9.5-0.5s7.2-1.1,11.3-8.2c4-7.1,4.3-12.4,3.7-13
					c-0.7-0.6-9.2,2.1-13.2,7.8s-5.5,10.2-5.5,10.2s2-7.1,1-13.2C37.7,417.5,33.6,409.6,31.9,409.6z"/>
				<path style="fill:#99815C;" d="M34.8,437.6c0,0-5.2-7-4.5-13.8c0.7-6.8,2.2-11.3,2.2-11.3s4.7,8.1,4.8,11.8
					C37.3,428.2,34.8,437.6,34.8,437.6z"/>
				<path style="fill:#99815C;" d="M39.9,437.1c0,0,3.2-7.4,6.3-9.9c3.2-2.5,7.5-4.9,7.5-4.9s-0.9,7.1-4.2,10.4
					S39.9,437.1,39.9,437.1z"/>
				<path style="fill:#99815C;" d="M39.9,447.3c0,0,0.4,4.8,3.7,7.9s10.8,6.7,10.8,6.7s-3.9-8.3-6.5-10.7
					C45.4,448.8,39.9,447.3,39.9,447.3z"/>
				<path style="fill:#99815C;" d="M35.4,447.3c0,0-2.6,5.3-3.3,11.2c-0.7,5.9,0.9,11.8,0.9,11.8s4.1-6.8,4.3-12.8
					C37.5,451.4,35.4,447.3,35.4,447.3z"/>
				<path style="fill:#99815C;" d="M28.9,441.5c0,0-7.2-4.3-12.1-3.8c-4.8,0.5-9.3,3.8-9.3,3.8s4.9,4.3,10.7,3.7
					S28.9,441.5,28.9,441.5z"/>
				<path style="fill:none;stroke:#99815B;stroke-width:0.3772;stroke-linecap:round;stroke-miterlimit:10;" d="M15.2,427.7
					c0,0,5.6,3.4,7.9,5.3c2.3,1.8,8.8,6.9,8.8,6.9"/>
				<path style="fill:none;stroke:#99815B;stroke-width:0.3772;stroke-linecap:round;stroke-miterlimit:10;" d="M41.5,442.5
					c0,0,6.3,0.4,9.2,0.9c2.8,0.5,7.2,2.1,7.2,2.1"/>
				<path style="fill:none;stroke:#99815B;stroke-width:0.3772;stroke-linecap:round;stroke-miterlimit:10;" d="M15.8,459.9
					c0,0,5.1-4.3,7.8-6.8c2.6-2.6,7.2-7,7.2-7"/>
				<path style="fill:#99815C;" d="M36.2,439c0.8,0,1.6-0.1,1.8,0.4c0.1,0.5-0.2,1.6,0.2,2c0.4,0.4,1.1,0.7,0.5,1.4
					c-0.6,0.7-1.3,1.9-1.8,1.9s-1.8-0.3-1.9,0.5c-0.1,0.8-0.6-0.3-1.2-0.7c-0.6-0.4-2-0.2-1.8-0.8c0.1-0.6,0.4-0.8,0-1.3
					c-0.4-0.4-1.4-0.5-0.9-1.1s1.7-0.4,1.7-1.1c0-0.7,0-1.4,0.7-1.4c0.7,0,0.3,0.3,1,0.3S36.2,439,36.2,439z"/>
			</g>
		</g>
	</g>
</g>
</svg>
