<svg xmlns="http://www.w3.org/2000/svg" viewBox="0 0 2301.17 1368.5"><defs><style>.cls-1{fill:#9a8330;}.cls-10,.cls-11,.cls-12,.cls-13,.cls-2,.cls-3,.cls-4,.cls-6,.cls-7,.cls-8,.cls-9{fill:none;stroke:#c7a861;}.cls-10,.cls-11,.cls-12,.cls-2,.cls-3,.cls-4,.cls-6,.cls-7,.cls-8,.cls-9{stroke-linecap:round;}.cls-10,.cls-11,.cls-12,.cls-2,.cls-3,.cls-4,.cls-6,.cls-9{stroke-linejoin:round;}.cls-2,.cls-8{stroke-width:8.09px;}.cls-3,.cls-7{stroke-width:6.47px;}.cls-4{stroke-width:10.22px;}.cls-5{fill:#c7a861;}.cls-6{stroke-width:6.41px;}.cls-13,.cls-7,.cls-8{stroke-miterlimit:10;}.cls-9{stroke-width:5.56px;}.cls-10{stroke-width:5px;}.cls-11{stroke-width:3.99px;}.cls-12{stroke-width:5.77px;}.cls-13{stroke-width:11.33px;}</style></defs><title>Pukka LeavesAsset 4</title><g id="Layer_2" data-name="Layer 2"><g id="Layer_1-2" data-name="Layer 1"><path class="cls-1" d="M1201,475.13c1.3,4.41,8.56,2.32,9.55-2.79.89-4.56-1-8.22-4.38-11.14-6-5.1-14.47-6-20.62-2.17-6.72,4.16-10,13-7.74,21.24a34.54,34.54,0,0,0,5.85,11.63c15.95,21.23,13.34,45.57-6.71,63.39-5.93,5.26-12.64,9.32-20.28,13.28,11.09,6.79,17.3,17.28,24.42,27,5.18,7.06,12.25,11.85,19.89,16-8.67,4.42-23.13.71-30.59-8.17-5-5.91-9.35-12.31-14.14-18.37-3.84-4.86-8.59-8.5-14.86-9.72-5.19-1-6.29-.1-6.31,5.14,0,8.41,0,16.81,0,25.22,0,6.37-5,9.76-11,7.67-1.9-.67-1.88-2.18-1.88-3.67q0-37.57.07-75.15c0-3.13,1.49-4,4.38-4,4.3,0,8,1,8.35,6,.38,5.52.1,11.09.12,16.63,0,11.21,0,11.14,11,7.63,15.27-4.87,27.89-13.21,35.94-27.42,10-17.61,5.53-36.73-10.71-46.67a23.75,23.75,0,0,0-30.84,5.53c-4.48,5.71-4.54,13.48,0,18.56,2.94,3.28,6.6,4.57,10.9,3.09,3.42-1.17,5.67-3.31,5.63-7.16-.43-.18-.61-.33-.69-.29-2.65,1.54-5.34,3.2-8.14.4a4.55,4.55,0,0,1-.77-6c2.12-3.11,5.4-3.78,8.95-3a11.62,11.62,0,0,1,8.7,12,14.07,14.07,0,0,1-12.93,12.65,18.38,18.38,0,0,1-19.68-22.75A26,26,0,0,1,1154.26,480c.92-.13,2,.33,2.92-1-4.4-2.32-8.93-4.31-13-7-9.35-6-16.18-13.76-15.28-25.87.63-8.6,5.59-14.21,13.15-17.57s15.14-2.81,21.86,2.37c4.27,3.29,5.57,8,4.22,13.12-1.07,4-4.13,6.42-8.33,7.11-5.9,1-10.93-4.06-9.55-9.69.74-3,2.63-5,6-5,3.11,0,4.59,1.6,4.65,4.61,0,.57-.63,1.33.43,1.46a1.72,1.72,0,0,0,1.9-1.29c1.31-3.59-.27-6.24-2.89-8.4-4.68-3.86-9.85-3.74-15.15-1.47-6.09,2.61-9.62,7.24-10.11,13.86-.72,9.93,4.27,17,12,22.45s16.62,7.82,25.13,12.85c-.52-5-1.29-9.24.08-13.53A21.37,21.37,0,0,1,1193.71,452c9.78.28,18.61,6.92,20.68,15.54,1.17,4.88-.85,10.66-4.8,13.46-3.5,2.49-7.19,2.79-10.81.38-3.06-2-4.6-4.85-3.46-8.63.92-3.05,2.81-4.9,6.17-4.89,2.6,0,5,.79,5.06,3.69s-2.16,3.42-4.6,3.18c-.31-.4-.59-.6-1-.11A.42.42,0,0,0,1201,475.13Z"/><path class="cls-1" d="M955.42,602.88c0,10.08,0,19.44,0,28.81,0,3.92-1.32,6.93-5.58,7.76-6.16,1.19-7.47.11-7.47-6.17,0-31.91,0-63.81.11-95.72,0-2.71-1.84-6.83,3.7-7,6-.23,8.77,1.8,9.28,7.27.07.83.11,1.66.21,3.24,12.16-9.22,25.19-12.91,39.81-8.61a39,39,0,0,1,21.69,15.44c11.43,16.4,10.15,37.74-3.06,51.91C999.23,615.72,979.06,617,955.42,602.88Zm56.57-31a28.27,28.27,0,1,0-28,28.26A28.08,28.08,0,0,0,1012,571.88Z"/><path class="cls-1" d="M1345.74,541.27c.55-8.65,2.93-11.09,9.62-10.61,2.48.18,3.63,1.09,3.62,3.68q-.07,37.54-.07,75.09c0,1.92-.11,3.85-2.77,3.88-3.66.05-7.51.72-9.55-3.67-.91-1.94-.38-4-1-6.54-11.82,9.08-24.71,12.69-39.16,8.54-9.16-2.62-16.81-7.45-22.38-15.33a41.56,41.56,0,0,1,3.49-52.38C1302.25,528.17,1321.79,527.21,1345.74,541.27Zm-28.64,59.05c15.69.12,28.67-12.26,28.8-27.46a28.3,28.3,0,1,0-56.59-.94A28,28,0,0,0,1317.1,600.32Z"/><path class="cls-1" d="M1287.1,526.39c-12.57,6.13-20.42,16.76-28.07,27.71a45.48,45.48,0,0,1-16.16,14c9.85,6,16,14.79,22,23.7,5.76,8.59,13.56,14.75,22.94,19.57-13.07,3.54-24.63-.1-32.61-10.17-4.37-5.53-8.36-11.38-12.82-16.84-4.11-5-9-9-15.93-9.59-3.62-.31-5.15.66-5,4.63.23,8.56,0,17.14,0,25.71,0,3.88-1.22,6.89-5.52,7.84-5.75,1.27-7.25.13-7.25-5.75,0-23.7,0-47.4.08-71.11,0-2.14-1.53-5.58,2.7-5.75,3.79-.15,8-.83,9.56,4.26a20.53,20.53,0,0,1,.59,6.48c-.07,5.88.08,11.77-.09,17.64-.09,3.1,1.07,4.21,4.13,4a20.26,20.26,0,0,0,15.57-8.06c3.94-5,7.95-10,11.54-15.27C1261.08,527.18,1272.81,523.78,1287.1,526.39Z"/><path class="cls-1" d="M1114.06,555.71c-.5,8.53.91,17.13-1.06,25.61C1108.45,601,1089.47,615,1070.29,613c-22.61-2.39-38.17-18.78-38.32-40.49q-.13-18.15,0-36.31c0-2.2-1.33-5.49,2.9-5.65,3.95-.15,8.06-.29,9.32,4.67a27.15,27.15,0,0,1,.53,6.51c0,10.26-.15,20.51.07,30.76a28.37,28.37,0,0,0,25.23,27.58c13.33,1.53,26.51-7.48,30.11-20.81,1.73-6.4,1.25-13,1.3-19.55,0-7.39-.09-14.79.09-22.18.13-5.16,6.17-8.77,10.91-6.81,1.91.78,1.59,2.34,1.59,3.81C1114.07,541.59,1114.06,548.64,1114.06,555.71Z"/><path class="cls-1" d="M1201.53,475.13a5.53,5.53,0,0,1-.53-.51c.36-.49.68-.31,1,.11Z"/><path class="cls-2" d="M1451.09,534.58s-105.58-48.72-51-177.35S1595,229.9,1595,229.9,1373.48,443,1451.09,534.58Z"/><path class="cls-3" d="M1374.09,838s-23.52-88.35,10.33-126,88.35-41.58,105.28-55.87c0,0,1.72,43.72,0,66C1486.21,767.19,1468.94,825,1374.09,838Z"/><path class="cls-4" d="M1409.09,208.2s-110.41,1-136.2-58.82-7.23-102.17-15.48-113.51c0,0,88.74,14.45,119.7,65S1409.09,208.2,1409.09,208.2Z"/><path class="cls-5" d="M1472.75,990.05c-.89,5.3-2.91,10.35-5,15.3-.53,1.24-1.08,2.46-1.64,3.68s-1.13,2.44-1.74,3.64l-1.78,3.62c-.6,1.2-1.25,2.37-1.87,3.57q-7.65,14.17-16.62,27.57c-3,4.48-6,8.89-9.08,13.27s-6.25,8.71-9.5,13l-4.87,6.38-2.45,3.19-2.59,3.12-5.22,6.23c-.88,1-1.73,2.08-2.63,3.09l-2.8,2.95a231.55,231.55,0,0,1-50.3,40.71,226,226,0,0,1-28.91,14.46c-5,2-10,3.87-15.18,5.44a120.55,120.55,0,0,1-15.61,3.85c2.53-.88,5-1.8,7.48-2.83l3.69-1.51,3.65-1.61c2.43-1.05,4.81-2.25,7.21-3.35s4.73-2.41,7.09-3.6l1.77-.89,1.74-1,3.47-1.91c1.15-.65,2.32-1.25,3.46-1.93l3.38-2.06c2.24-1.4,4.57-2.64,6.75-4.12l6.63-4.31a285,285,0,0,0,47.76-40.9l2.73-2.83c.88-1,1.71-2,2.56-3l5.11-6,2.57-3,2.48-3.11,5-6.22c1.68-2.06,3.31-4.15,4.94-6.25l4.91-6.27c1.64-2.08,3.2-4.22,4.83-6.32s3.27-4.18,4.82-6.33l4.73-6.4,4.63-6.46c1.58-2.14,3.07-4.33,4.57-6.51l2.25-3.28,2.18-3.32c3-4.39,5.72-8.92,8.43-13.49l2-3.46,1.84-3.53A54.51,54.51,0,0,0,1472.75,990.05Z"/><path class="cls-2" d="M1295,1163.08s12.57-76.8,62.7-110.36,130.36-83.58,123.75-181.85c0,0,52.27,123.75-44.81,242.16C1366.14,1182.37,1295,1163.08,1295,1163.08Z"/><path class="cls-5" d="M1818.56,638a56.26,56.26,0,0,1-1.92,12.6c-.53,2.06-1.06,4.13-1.7,6.16s-1.24,4.07-1.93,6.08q-4.17,12.07-9.45,23.69c-3.44,7.77-7.28,15.35-11.16,22.89a239.55,239.55,0,0,1-12.87,22.16,184,184,0,0,1-34.09,38.29,179,179,0,0,1-20.74,15c-3.66,2.19-7.36,4.32-11.17,6.2a95.06,95.06,0,0,1-11.71,5c14.8-8.24,28.07-18.63,40.29-30a224.47,224.47,0,0,0,32.09-38.11l1.77-2.57c.56-.87,1.08-1.77,1.62-2.66l3.22-5.34,1.63-2.66,1.54-2.75,3.09-5.5c2.1-3.65,4.06-7.37,6.1-11.05l5.9-11.14,2.88-5.6,2.79-5.65c1-1.87,1.84-3.78,2.74-5.68l1.34-2.85,1.27-2.88c1.78-3.81,3.33-7.71,4.86-11.62l1.08-3,1-3A42.82,42.82,0,0,0,1818.56,638Z"/><path class="cls-6" d="M1701.82,796.15s0-61.66,34.84-94.34,91.18-82.09,73.38-158.06c0,0,56.76,90-3.92,195.07C1759.92,802.09,1701.82,796.15,1701.82,796.15Z"/><path class="cls-5" d="M1882,638a44.16,44.16,0,0,0,1.53,6.12l1,3,1.08,3c1.54,3.91,3.09,7.81,4.86,11.62l1.28,2.88,1.34,2.85c.89,1.9,1.78,3.81,2.74,5.68l2.79,5.65,2.87,5.6,5.91,11.14c2,3.68,4,7.4,6.09,11.05l3.1,5.5,1.54,2.75,1.62,2.66,3.23,5.34c.54.89,1.06,1.79,1.62,2.66l1.77,2.57a224.87,224.87,0,0,0,32.08,38.11c12.23,11.34,25.5,21.73,40.3,30a95.06,95.06,0,0,1-11.71-5c-3.82-1.88-7.51-4-11.17-6.2a179,179,0,0,1-20.74-15,184,184,0,0,1-34.1-38.29,241.73,241.73,0,0,1-12.86-22.16c-3.89-7.54-7.72-15.12-11.16-22.89s-6.68-15.64-9.45-23.69c-.7-2-1.32-4-1.93-6.08s-1.17-4.1-1.7-6.16A55.69,55.69,0,0,1,1882,638Z"/><path class="cls-6" d="M1998.72,796.15s0-61.66-34.85-94.34-91.17-82.09-73.37-158.06c0,0-56.77,90,3.91,195.07C1940.62,802.09,1998.72,796.15,1998.72,796.15Z"/><path class="cls-5" d="M417.11,638a55.69,55.69,0,0,1-1.92,12.6c-.53,2.06-1.05,4.13-1.7,6.16s-1.23,4.07-1.93,6.08q-4.15,12.07-9.45,23.69c-3.44,7.77-7.27,15.35-11.16,22.89a241.73,241.73,0,0,1-12.86,22.16A184,184,0,0,1,344,769.91a179,179,0,0,1-20.74,15c-3.66,2.19-7.35,4.32-11.17,6.2a95.06,95.06,0,0,1-11.71,5c14.8-8.24,28.07-18.63,40.29-30a224.47,224.47,0,0,0,32.09-38.11l1.77-2.57c.56-.87,1.08-1.77,1.62-2.66l3.23-5.34,1.62-2.66,1.54-2.75,3.1-5.5c2.1-3.65,4.05-7.37,6.09-11.05l5.91-11.14,2.87-5.6,2.79-5.65c1-1.87,1.85-3.78,2.74-5.68l1.34-2.85,1.28-2.88c1.77-3.81,3.32-7.71,4.86-11.62l1.08-3,1-3A44.16,44.16,0,0,0,417.11,638Z"/><path class="cls-6" d="M300.37,796.15s0-61.66,34.85-94.34,91.17-82.09,73.37-158.06c0,0,56.77,90-3.91,195.07C358.47,802.09,300.37,796.15,300.37,796.15Z"/><path class="cls-5" d="M480.53,638a42.82,42.82,0,0,0,1.54,6.12l1,3,1.08,3c1.53,3.91,3.08,7.81,4.86,11.62l1.27,2.88,1.34,2.85c.9,1.9,1.78,3.81,2.74,5.68l2.79,5.65,2.88,5.6,5.9,11.14c2,3.68,4,7.4,6.1,11.05l3.09,5.5,1.54,2.75,1.63,2.66,3.22,5.34c.54.89,1.06,1.79,1.62,2.66l1.77,2.57A224.47,224.47,0,0,0,557,766.18c12.22,11.34,25.49,21.73,40.29,30a95.06,95.06,0,0,1-11.71-5c-3.81-1.88-7.51-4-11.17-6.2a179,179,0,0,1-20.74-15,184,184,0,0,1-34.09-38.29,239.55,239.55,0,0,1-12.87-22.16c-3.88-7.54-7.72-15.12-11.16-22.89s-6.67-15.64-9.45-23.69c-.69-2-1.32-4-1.93-6.08s-1.17-4.1-1.7-6.16A56.26,56.26,0,0,1,480.53,638Z"/><path class="cls-6" d="M597.27,796.15s0-61.66-34.84-94.34-91.18-82.09-73.38-158.06c0,0-56.76,90,3.92,195.07C539.17,802.09,597.27,796.15,597.27,796.15Z"/><path class="cls-7" d="M1300.46,799.11s34.26,4.88,71.58,41.65c44.14,43.49,84.06,125.53,84.06,125.53"/><path class="cls-3" d="M1268.14,1006s-41.08-33.08-32.37-71.39S1274.94,838,1247.08,804c0,0,71.1,37.37,70.39,110.13s-49.33,91.85-49.33,91.85"/><line class="cls-3" x1="1268.14" y1="1107.37" x2="1268.14" y2="1005.97"/><path class="cls-8" d="M1147.91,1364.33s-.56-91.34,43.12-123.11S1303.85,1214,1303.85,1214s-1.63,78.8-41.91,113.41S1147.91,1364.33,1147.91,1364.33Z"/><path class="cls-5" d="M1165.11,1345.61c8.69-9.91,17.76-19.42,27-28.8,4.56-4.72,9.27-9.3,13.91-14l14.12-13.72,14.34-13.51c4.85-4.43,9.63-8.93,14.55-13.28,9.77-8.79,19.67-17.43,30-25.67-8.69,9.91-17.76,19.43-27,28.8-4.57,4.72-9.28,9.3-13.92,14L1224,1293.15l-14.34,13.5c-4.84,4.43-9.63,8.93-14.55,13.28C1185.29,1328.72,1175.39,1337.36,1165.11,1345.61Z"/><path class="cls-5" d="M1174.48,1312.35a67.09,67.09,0,0,1,2.22-13,82.72,82.72,0,0,1,4.48-12.52,64.67,64.67,0,0,1,15.7-21.79,95.33,95.33,0,0,1,22.3-14.55,89.47,89.47,0,0,1,12.43-4.67,58.19,58.19,0,0,1,13-2.33,108.5,108.5,0,0,0-12,4.89c-3.91,1.8-7.67,3.86-11.36,6a139,139,0,0,0-20.66,14.83,77,77,0,0,0-15.51,19.62,117.67,117.67,0,0,0-5.79,11.43C1177.48,1304.18,1175.91,1308.21,1174.48,1312.35Z"/><path class="cls-5" d="M1202.58,1338.23c6.82-3.65,13.5-7.3,19.94-11.26,1.63-1,3.18-2,4.78-3s3.15-2,4.64-3.18l2.28-1.62,2.2-1.7c.75-.55,1.47-1.14,2.17-1.74s1.42-1.18,2.11-1.78c1.33-1.27,2.72-2.44,4-3.82.66-.67,1.33-1.31,2-2l1.92-2.06c2.53-2.76,5-5.59,7.39-8.52,4.77-5.85,9.3-12,13.67-18.33a86.19,86.19,0,0,1-10.14,20.91,92.56,92.56,0,0,1-15.13,18,77,77,0,0,1-9.52,7.05,89.29,89.29,0,0,1-10.27,5.64,101.76,101.76,0,0,1-10.8,4.39A80.72,80.72,0,0,1,1202.58,1338.23Z"/><path class="cls-5" d="M1158.14,1294.3a54.2,54.2,0,0,1-3.18-12.65c-.28-2.16-.55-4.34-.66-6.52-.06-1.09-.17-2.18-.19-3.27l-.07-3.28a148.5,148.5,0,0,1,2.33-26.11l1.2-6.45c.46-2.14,1-4.25,1.51-6.38l.78-3.19c.26-1.06.59-2.1.88-3.15l1.82-6.3c.57-2.11,1.37-4.15,2-6.23l2.15-6.21c1.61-4.12,3.28-8.09,5-12.1,3.53-8,7.25-15.82,11.23-23.56,2-3.85,4.09-7.68,6.24-11.47,1.06-1.9,2.16-3.78,3.26-5.65s2.27-3.73,3.44-5.57c2.32-3.68,4.73-7.32,7.26-10.87s5.17-7,8-10.37c5.63-6.63,11.85-13,19.21-17.6a103.09,103.09,0,0,0-17.06,19.27,249.12,249.12,0,0,0-13.69,21.8c-4.18,7.5-8.22,15.09-12,22.83s-7.43,15.52-10.84,23.41c-1.74,3.92-3.45,7.91-5,11.83-1.42,4-2.9,8-4.27,12.09l-2,6.11c-.32,1-.67,2-1,3.07l-.85,3.09-1.69,6.2-1.48,6.24a174.93,174.93,0,0,0-3.85,25.35l-.22,3.21c-.08,1.07-.06,2.14-.1,3.21-.08,2.14,0,4.28,0,6.43s.23,4.29.5,6.43A40.6,40.6,0,0,0,1158.14,1294.3Z"/><path class="cls-9" d="M1166.73,1212.68s-22.67-64,28-107.79,89.8-24.17,116.28-38c0,0-52.43,34.54-89,89.8S1166.73,1212.68,1166.73,1212.68Z"/><path class="cls-5" d="M1268.14,1006c1.1-10.26,2.45-20.42,3.73-30.57s2.61-20.28,3.75-30.41,2.15-20.26,2.71-30.41c.27-5.07.49-10.15.41-15.23a103.5,103.5,0,0,0-1.16-15.27,64.66,64.66,0,0,1,3.87,15,136.78,136.78,0,0,1,1.25,15.52,227,227,0,0,1-1.56,31c-1.16,10.25-2.85,20.43-5,30.51A261.68,261.68,0,0,1,1268.14,1006Z"/><path class="cls-5" d="M1389.25,814c5.78-11.23,12-22.16,18.43-33,3.15-5.44,6.48-10.77,9.73-16.15l10-16,10.24-15.83c3.51-5.22,6.93-10.5,10.52-15.66,7.09-10.39,14.35-20.67,22.08-30.66-5.78,11.23-12,22.16-18.42,33-3.16,5.44-6.49,10.77-9.74,16.15l-10,16-10.25,15.83c-3.51,5.22-6.93,10.5-10.52,15.66C1404.22,793.74,1397,804,1389.25,814Z"/><path class="cls-5" d="M1389.25,784a58.18,58.18,0,0,1-3-23,64.19,64.19,0,0,1,1.86-11.67c.44-1.92,1.1-3.79,1.7-5.68s1.39-3.7,2.25-5.49a64.24,64.24,0,0,1,13.56-19.26A58.22,58.22,0,0,1,1425,706.19a106.2,106.2,0,0,0-16.2,15.69,84.06,84.06,0,0,0-11.72,18.62,75.5,75.5,0,0,0-3.94,10.27,86.75,86.75,0,0,0-2.59,10.75A105,105,0,0,0,1389.25,784Z"/><path class="cls-5" d="M1421.33,804a194.76,194.76,0,0,0,16.23-15.7,143.11,143.11,0,0,0,24.49-36.86,200.89,200.89,0,0,0,8.2-21,76.23,76.23,0,0,1-4.14,22.65,89.48,89.48,0,0,1-25.5,38.36A76.36,76.36,0,0,1,1421.33,804Z"/><path class="cls-5" d="M1451.09,534.58c-2.25-2.32-4.36-4.79-6.43-7.29s-4-5.12-5.87-7.77A168.57,168.57,0,0,1,1428.45,503a153.77,153.77,0,0,1-14.3-36.47c-.37-1.6-.82-3.18-1.12-4.8l-.94-4.85c-.33-1.61-.48-3.26-.72-4.89l-.34-2.45c-.1-.82-.14-1.64-.22-2.46l-.41-4.94-.14-4.95c0-.83-.06-1.66-.06-2.48l.07-2.48c0-1.65.08-3.31.16-5a131,131,0,0,1,8.75-38.6l2-4.54,1-2.27c.33-.75.67-1.51,1.07-2.23l2.28-4.4c.77-1.46,1.51-2.94,2.36-4.32l4.94-8.41c1.65-2.81,3.25-5.64,5.09-8.33l5.34-8.18,1.34-2c.45-.67.94-1.33,1.4-2l2.85-4,2.83-4c1-1.33,1.88-2.66,2.91-3.92l6.08-7.66c1-1.29,2.07-2.52,3.14-3.74l3.2-3.7c1.07-1.22,2.12-2.46,3.21-3.67l3.39-3.53,3.39-3.52c1.11-1.19,2.35-2.26,3.52-3.4,2.37-2.23,4.68-4.52,7.2-6.6l3.73-3.16c1.25-1,2.57-2,3.85-3,2.53-2,5.23-3.87,7.91-5.72,5.45-3.53,11.07-6.9,17.19-9.07a60.34,60.34,0,0,0-8.34,4.87c-2.69,1.76-5.26,3.71-7.8,5.66s-5,4-7.37,6.2c-1.19,1.07-2.41,2.11-3.57,3.21l-3.44,3.36c-2.35,2.19-4.52,4.55-6.72,6.88-1.09,1.17-2.24,2.29-3.27,3.52l-3.14,3.63-3.15,3.63c-1,1.23-2,2.49-3,3.74l-3,3.75c-1,1.25-2,2.49-2.94,3.8l-5.68,7.75c-1,1.28-1.86,2.61-2.76,3.94l-2.7,4-2.7,4c-.45.66-.91,1.31-1.34,2l-1.27,2-5.07,8.17c-.82,1.38-1.73,2.7-2.51,4.1l-2.4,4.17-4.8,8.34c-.84,1.38-1.53,2.79-2.25,4.2l-2.16,4.21c-.37.7-.69,1.42-1,2.15l-.94,2.17-1.88,4.34a127.9,127.9,0,0,0-8.67,36.62,133.6,133.6,0,0,0,2.54,37.71,149.43,149.43,0,0,0,5,18.39,172.17,172.17,0,0,0,7.16,17.77,182,182,0,0,0,9,17c1.63,2.77,3.37,5.48,5.15,8.17S1449.08,532.05,1451.09,534.58Z"/><path class="cls-5" d="M1282.44,69c9.37,9,18.32,18.44,27.13,28,4.44,4.73,8.73,9.59,13.1,14.38l12.86,14.59,12.64,14.79c4.13,5,8.34,9.92,12.39,15,8.19,10.06,16.24,20.24,23.86,30.79-9.37-9-18.33-18.43-27.13-27.95-4.45-4.73-8.73-9.59-13.1-14.39l-12.85-14.59-12.64-14.79c-4.13-5-8.34-9.92-12.39-15C1298.12,89.7,1290.07,79.52,1282.44,69Z"/><path class="cls-5" d="M1282.44,107.48c4.58,7.7,8.94,15.42,13.57,22.92,2.31,3.74,4.66,7.44,7.19,10.94,1.27,1.75,2.56,3.46,3.94,5,.7.79,1.36,1.52,2.13,2.27s1.53,1.51,2.33,2.23a142.21,142.21,0,0,0,20.78,15.69c7.41,4.7,15.14,9,23.13,13a104.18,104.18,0,0,1-25.29-9.19,99,99,0,0,1-22.4-15.42c-.84-.78-1.65-1.59-2.46-2.4s-1.65-1.73-2.39-2.63a62.13,62.13,0,0,1-4.1-5.6,112.23,112.23,0,0,1-6.68-11.81A153.91,153.91,0,0,1,1282.44,107.48Z"/><path class="cls-5" d="M1319,74.9a139.83,139.83,0,0,1,23.76,14.21A124.62,124.62,0,0,1,1353.53,98c1.76,1.54,3.37,3.25,5,4.91.81.85,1.58,1.76,2.37,2.64.39.44.79.87,1.17,1.33l1.1,1.4c.72,1,1.5,1.86,2.15,2.84l2,2.93c1.23,2,2.5,4,3.58,6.06a113.56,113.56,0,0,1,5.94,12.65,125.78,125.78,0,0,1,7.56,26.66c-3.68-8.46-7.4-16.78-11.54-24.85-1-2-2.1-4-3.16-6s-2.18-3.93-3.37-5.84a97,97,0,0,0-7.51-11,105.48,105.48,0,0,0-8.94-9.92c-3.16-3.2-6.5-6.25-9.89-9.26s-6.85-6-10.38-8.88S1322.55,77.82,1319,74.9Z"/><path class="cls-2" d="M849.3,534.58s105.58-48.72,51-177.35S705.42,229.9,705.42,229.9,926.91,443,849.3,534.58Z"/><path class="cls-3" d="M926.29,838s23.53-88.35-10.32-126-88.35-41.58-105.28-55.87c0,0-2.11,44.19,0,66C812.85,744.35,831.45,825,926.29,838Z"/><path class="cls-4" d="M891.29,208.2s110.41,1,136.21-58.82S1034.72,47.21,1043,35.87c0,0-88.74,14.45-119.7,65S891.29,208.2,891.29,208.2Z"/><path class="cls-5" d="M827.64,990.05a54.51,54.51,0,0,0,3.17,7.31l1.84,3.53,2,3.46c2.71,4.57,5.43,9.1,8.43,13.49l2.18,3.32,2.25,3.28c1.5,2.18,3,4.37,4.57,6.51l4.63,6.46,4.73,6.4c1.55,2.15,3.22,4.22,4.82,6.33s3.19,4.24,4.83,6.32l4.91,6.27c1.63,2.1,3.25,4.19,4.93,6.25l5,6.22,2.48,3.11,2.57,3,5.1,6c.86,1,1.69,2,2.57,3l2.73,2.83a285,285,0,0,0,47.76,40.9l6.63,4.31c2.18,1.48,4.51,2.72,6.74,4.12l3.39,2.06c1.13.68,2.31,1.28,3.46,1.93l3.47,1.91,1.74,1,1.77.89c2.36,1.19,4.68,2.48,7.08,3.6s4.78,2.3,7.22,3.35l3.64,1.61,3.7,1.51c2.46,1,5,2,7.48,2.83a120.15,120.15,0,0,1-15.61-3.85c-5.14-1.57-10.17-3.46-15.18-5.44a226,226,0,0,1-28.91-14.46,231.55,231.55,0,0,1-50.3-40.71l-2.8-2.95c-.9-1-1.75-2.06-2.63-3.09l-5.22-6.23-2.59-3.12-2.45-3.19-4.87-6.38c-3.25-4.25-6.36-8.63-9.5-13s-6.14-8.79-9.08-13.27q-9-13.37-16.62-27.57c-.62-1.2-1.27-2.37-1.87-3.57l-1.78-3.62c-.61-1.2-1.19-2.41-1.74-3.64s-1.11-2.44-1.64-3.68C830.54,1000.4,828.53,995.35,827.64,990.05Z"/><path class="cls-2" d="M1005.4,1163.08s-12.57-76.8-62.7-110.36S812.34,969.14,819,870.87c0,0-52.27,123.75,44.81,242.16C934.25,1182.37,1005.4,1163.08,1005.4,1163.08Z"/><path class="cls-7" d="M999.93,799.11s-34.27,4.88-71.58,41.65c-44.14,43.49-84.06,125.53-84.06,125.53"/><path class="cls-3" d="M1032.25,1006s41.08-33.08,32.37-71.39S1025.45,838,1053.31,804c0,0-71.1,37.37-70.39,110.13s49.33,91.85,49.33,91.85"/><line class="cls-3" x1="1032.25" y1="1107.37" x2="1032.25" y2="1005.97"/><path class="cls-8" d="M1152.48,1364.33s.56-91.34-43.12-123.11S996.54,1214,996.54,1214s1.63,78.8,41.91,113.41S1152.48,1364.33,1152.48,1364.33Z"/><path class="cls-5" d="M1135.28,1345.61c-10.28-8.25-20.18-16.89-30-25.68-4.93-4.35-9.71-8.85-14.56-13.28l-14.33-13.5-14.14-13.72c-4.63-4.65-9.34-9.23-13.91-14-9.21-9.37-18.28-18.89-27-28.8,10.28,8.24,20.19,16.88,30,25.67,4.92,4.35,9.7,8.85,14.55,13.28l14.33,13.51,14.13,13.72c4.64,4.65,9.34,9.23,13.91,14C1117.52,1326.19,1126.59,1335.7,1135.28,1345.61Z"/><path class="cls-5" d="M1125.91,1312.35c-1.43-4.14-3-8.17-4.77-12.1a120,120,0,0,0-5.79-11.43,77.23,77.23,0,0,0-15.51-19.62,139.5,139.5,0,0,0-20.66-14.83c-3.69-2.13-7.45-4.19-11.36-6a109.29,109.29,0,0,0-12-4.89,58.29,58.29,0,0,1,13,2.33,89.47,89.47,0,0,1,12.43,4.67,95.54,95.54,0,0,1,22.3,14.55,64.81,64.81,0,0,1,15.7,21.79,82.72,82.72,0,0,1,4.48,12.52A67.86,67.86,0,0,1,1125.91,1312.35Z"/><path class="cls-5" d="M1097.81,1338.23a80.34,80.34,0,0,1-11.21-3,101.76,101.76,0,0,1-10.8-4.39,89.29,89.29,0,0,1-10.27-5.64,77,77,0,0,1-9.52-7.05,92.56,92.56,0,0,1-15.13-18,85.82,85.82,0,0,1-10.14-20.91c4.37,6.38,8.9,12.48,13.66,18.33,2.38,2.93,4.87,5.76,7.4,8.52l1.91,2.06c.64.68,1.32,1.32,2,2,1.29,1.38,2.67,2.55,4,3.82.69.6,1.41,1.18,2.11,1.78s1.42,1.19,2.17,1.74l2.2,1.7,2.28,1.62c1.49,1.13,3.1,2.1,4.64,3.18s3.15,2,4.78,3C1084.31,1330.93,1091,1334.58,1097.81,1338.23Z"/><path class="cls-5" d="M1142.25,1294.3a40.6,40.6,0,0,0,1.15-6.36c.27-2.14.4-4.29.5-6.43s.13-4.29,0-6.43c0-1.07,0-2.14-.09-3.21l-.22-3.21a174.93,174.93,0,0,0-3.85-25.35l-1.48-6.24-1.69-6.2-.85-3.09c-.29-1-.64-2-1-3.07l-2-6.11c-1.38-4-2.85-8.08-4.27-12.09-1.58-3.92-3.3-7.91-5-11.83-3.41-7.89-7-15.69-10.84-23.41s-7.78-15.33-12-22.83a246.87,246.87,0,0,0-13.7-21.8,102.68,102.68,0,0,0-17-19.27c7.36,4.63,13.58,11,19.21,17.6,2.82,3.34,5.42,6.85,8,10.37s4.94,7.19,7.26,10.87c1.17,1.84,2.3,3.71,3.43,5.57s2.21,3.75,3.27,5.65c2.15,3.79,4.21,7.62,6.23,11.47,4,7.74,7.71,15.61,11.24,23.56,1.72,4,3.39,8,5,12.1l2.14,6.21c.69,2.08,1.49,4.12,2.06,6.23l1.82,6.3c.29,1,.62,2.09.88,3.15l.77,3.19c.51,2.13,1.06,4.24,1.52,6.38l1.2,6.45a148.5,148.5,0,0,1,2.33,26.11l-.07,3.28c0,1.09-.13,2.18-.2,3.27-.1,2.18-.37,4.36-.65,6.52A54.7,54.7,0,0,1,1142.25,1294.3Z"/><path class="cls-9" d="M1133.66,1212.68s22.67-64-28-107.79-89.79-24.17-116.27-38c0,0,52.42,34.54,88.95,89.8S1133.66,1212.68,1133.66,1212.68Z"/><path class="cls-5" d="M1032.25,1006a259.63,259.63,0,0,1-8-29.84c-2.12-10.08-3.81-20.26-5-30.51a227,227,0,0,1-1.56-31,136.76,136.76,0,0,1,1.24-15.52,64.68,64.68,0,0,1,3.88-15,102.16,102.16,0,0,0-1.16,15.27c-.08,5.08.14,10.16.4,15.23.57,10.15,1.58,20.28,2.72,30.41s2.43,20.26,3.74,30.41S1031.15,995.71,1032.25,1006Z"/><path class="cls-10" d="M755,133.76s-21.12-20.24-14.48-41S766.76,41.23,753,21.14c0,0,37.5,24,33.64,64.22S755,133.76,755,133.76"/><path class="cls-5" d="M755,133.76c.92-5.67,2-11.24,3.19-16.8l3.4-16.63q1.71-8.3,3-16.62A91.81,91.81,0,0,0,766,66.85c.39,1.37.77,2.77,1.09,4.2s.37,2.86.55,4.31.11,2.88.16,4.33a17.44,17.44,0,0,1,0,2.17L767.71,84a111.28,111.28,0,0,1-2.22,17.1,157.1,157.1,0,0,1-4.31,16.62A120.23,120.23,0,0,1,755,133.76Z"/><path class="cls-10" d="M842.62,133.76s21.12-20.24,14.48-41-26.26-51.54-12.48-71.63c0,0-37.51,24-33.65,64.22s31.65,48.4,31.65,48.4"/><path class="cls-5" d="M842.62,133.76a120.18,120.18,0,0,1-6.19-16,154.75,154.75,0,0,1-4.32-16.62A112.53,112.53,0,0,1,829.89,84l-.09-2.16a19.62,19.62,0,0,1,0-2.17c.05-1.45.08-2.89.16-4.33s.35-2.89.56-4.31.69-2.83,1.09-4.2A91.81,91.81,0,0,0,833,83.71c.9,5.55,1.9,11.09,3,16.62l3.4,16.63C840.59,122.52,841.7,128.09,842.62,133.76Z"/><path class="cls-10" d="M1457.45,133.76s-21.12-20.24-14.48-41,26.26-51.54,12.48-71.63c0,0,37.51,24,33.65,64.22s-31.65,48.4-31.65,48.4"/><path class="cls-5" d="M1457.45,133.76c.92-5.67,2-11.24,3.18-16.8l3.41-16.63c1.14-5.53,2.14-11.07,3-16.62a91.81,91.81,0,0,0,1.4-16.86c.4,1.37.78,2.77,1.09,4.2s.37,2.86.56,4.31.11,2.88.16,4.33a19.62,19.62,0,0,1,0,2.17l-.09,2.16a111.28,111.28,0,0,1-2.22,17.1,154.75,154.75,0,0,1-4.32,16.62A120.18,120.18,0,0,1,1457.45,133.76Z"/><path class="cls-10" d="M1545.09,133.76s21.12-20.24,14.48-41-26.26-51.54-12.49-71.63c0,0-37.5,24-33.64,64.22s31.65,48.4,31.65,48.4"/><path class="cls-5" d="M1545.09,133.76a120.23,120.23,0,0,1-6.2-16,157.1,157.1,0,0,1-4.31-16.62,111.28,111.28,0,0,1-2.22-17.1l-.09-2.16a17.44,17.44,0,0,1,0-2.17c0-1.45.07-2.89.16-4.33s.35-2.89.55-4.31.7-2.83,1.09-4.2a91.81,91.81,0,0,0,1.41,16.86q1.33,8.33,3,16.62l3.4,16.63C1543.05,122.52,1544.17,128.09,1545.09,133.76Z"/><path class="cls-5" d="M911.14,814c-7.72-10-15-20.28-22.07-30.67-3.59-5.16-7-10.44-10.52-15.66L868.3,751.86l-10-16c-3.25-5.38-6.58-10.71-9.74-16.15-6.4-10.83-12.64-21.76-18.42-33,7.73,10,15,20.27,22.08,30.66,3.59,5.16,7,10.44,10.52,15.66L873,748.88l10,16c3.25,5.38,6.57,10.71,9.73,16.15C899.12,791.86,905.36,802.79,911.14,814Z"/><path class="cls-5" d="M911.14,784a105,105,0,0,0-1.31-22.51,86.75,86.75,0,0,0-2.59-10.75,75.5,75.5,0,0,0-3.94-10.27,84.42,84.42,0,0,0-11.72-18.62,105.82,105.82,0,0,0-16.21-15.69,58.16,58.16,0,0,1,19.42,12.73,64.24,64.24,0,0,1,13.56,19.26c.86,1.79,1.53,3.65,2.25,5.49s1.26,3.76,1.7,5.68A63.31,63.31,0,0,1,914.15,761,58.18,58.18,0,0,1,911.14,784Z"/><path class="cls-5" d="M879.06,804a76.36,76.36,0,0,1-19.28-12.59A89.48,89.48,0,0,1,834.28,753a76.23,76.23,0,0,1-4.14-22.65,200.89,200.89,0,0,0,8.2,21,143.11,143.11,0,0,0,24.49,36.86A193.22,193.22,0,0,0,879.06,804Z"/><path class="cls-5" d="M849.3,534.58c2-2.53,3.85-5.19,5.64-7.86s3.53-5.4,5.16-8.17a179.56,179.56,0,0,0,9-17,172.24,172.24,0,0,0,7.17-17.77,149.43,149.43,0,0,0,5.05-18.39,133.6,133.6,0,0,0,2.53-37.71,127.56,127.56,0,0,0-8.66-36.62l-1.89-4.34-.94-2.17c-.3-.73-.62-1.45-1-2.15l-2.16-4.21c-.72-1.41-1.41-2.82-2.25-4.2l-4.8-8.34-2.4-4.17c-.79-1.4-1.69-2.72-2.51-4.1l-5.07-8.17-1.27-2c-.43-.68-.9-1.33-1.34-2l-2.7-4-2.7-4c-.9-1.33-1.8-2.66-2.76-3.94l-5.68-7.75c-.92-1.31-1.93-2.55-2.94-3.8l-3-3.75c-1-1.25-2-2.51-3-3.74l-3.15-3.63L820.49,307c-1-1.23-2.18-2.35-3.27-3.52-2.2-2.33-4.37-4.69-6.72-6.88l-3.44-3.36c-1.16-1.1-2.38-2.14-3.57-3.21-2.36-2.19-4.89-4.15-7.37-6.2s-5.11-3.9-7.8-5.66a60.93,60.93,0,0,0-8.34-4.87c6.11,2.17,11.74,5.54,17.19,9.07,2.68,1.85,5.38,3.68,7.91,5.72,1.28,1,2.6,2,3.85,3l3.72,3.16c2.52,2.08,4.84,4.37,7.21,6.6,1.17,1.14,2.41,2.21,3.52,3.4l3.39,3.52,3.38,3.53c1.09,1.21,2.14,2.45,3.22,3.67l3.2,3.7c1.07,1.22,2.15,2.45,3.14,3.74l6.07,7.66c1,1.26,2,2.59,2.91,3.92l2.84,4,2.84,4c.47.66,1,1.32,1.41,2l1.34,2,5.34,8.18c1.84,2.69,3.44,5.52,5.09,8.33l4.94,8.41c.85,1.38,1.59,2.86,2.36,4.32l2.28,4.4c.4.72.74,1.48,1.07,2.23l1,2.27,2,4.54a130.74,130.74,0,0,1,8.76,38.6c.08,1.65.1,3.31.16,5l.07,2.48c0,.82,0,1.65-.06,2.48l-.14,4.95-.41,4.94c-.08.82-.12,1.64-.23,2.46L889,452c-.24,1.63-.39,3.28-.72,4.89l-.94,4.85c-.3,1.62-.75,3.2-1.12,4.8A153.38,153.38,0,0,1,871.93,503a164.87,164.87,0,0,1-10.34,16.55c-1.87,2.65-3.84,5.24-5.86,7.77S851.55,532.26,849.3,534.58Z"/><path class="cls-5" d="M1018,69c-7.63,10.55-15.68,20.73-23.87,30.79-4.05,5.07-8.26,10-12.4,15l-12.63,14.79L956.2,144.13c-4.37,4.8-8.66,9.66-13.1,14.39-8.81,9.52-17.76,18.92-27.13,27.95,7.62-10.55,15.66-20.73,23.85-30.79,4.06-5.07,8.27-10,12.4-15l12.64-14.79,12.86-14.59c4.37-4.79,8.66-9.65,13.1-14.38C999.63,87.41,1008.58,78,1018,69Z"/><path class="cls-5" d="M1018,107.48a153,153,0,0,1-9.76,25,110.38,110.38,0,0,1-6.67,11.81,62.13,62.13,0,0,1-4.1,5.6c-.74.9-1.58,1.81-2.39,2.63s-1.62,1.62-2.46,2.4a99.18,99.18,0,0,1-22.4,15.42,104.18,104.18,0,0,1-25.29,9.19c8-4,15.72-8.29,23.13-13a141.58,141.58,0,0,0,20.77-15.69c.81-.72,1.57-1.47,2.34-2.23s1.43-1.48,2.12-2.27c1.39-1.58,2.68-3.29,3.94-5,2.54-3.5,4.89-7.2,7.2-10.94C1009,122.9,1013.36,115.18,1018,107.48Z"/><path class="cls-5" d="M981.41,74.9c-3.57,2.92-7.15,5.78-10.65,8.72s-7,5.87-10.38,8.88-6.73,6.06-9.89,9.26a105.48,105.48,0,0,0-8.94,9.92,97,97,0,0,0-7.51,11c-1.19,1.91-2.25,3.89-3.38,5.84s-2.15,4-3.15,6c-4.14,8.07-7.86,16.39-11.54,24.85a125.78,125.78,0,0,1,7.56-26.66,113.56,113.56,0,0,1,5.94-12.65c1.08-2.07,2.35-4,3.57-6.06l2-2.93c.65-1,1.43-1.89,2.15-2.84l1.1-1.4c.38-.46.78-.89,1.17-1.33.79-.88,1.55-1.79,2.36-2.64,1.67-1.66,3.28-3.37,5-4.91a126.15,126.15,0,0,1,10.79-8.85A140.3,140.3,0,0,1,981.41,74.9Z"/><path class="cls-2" d="M2153.24,534.58s-105.58-48.72-51-177.35S2297.12,229.9,2297.12,229.9,2075.63,443,2153.24,534.58Z"/><path class="cls-3" d="M2076.24,838s-23.52-88.35,10.33-126,88.35-41.58,105.28-55.87c0,0-1.34,43.69,0,66S2171.09,825,2076.24,838Z"/><path class="cls-4" d="M2111.24,208.2s-110.41,1-136.2-58.82-7.23-102.17-15.48-113.51c0,0,88.74,14.45,119.7,65S2111.24,208.2,2111.24,208.2Z"/><path class="cls-5" d="M2174.9,990.05c-.89,5.3-2.91,10.35-5,15.3-.53,1.24-1.08,2.46-1.64,3.68s-1.13,2.44-1.74,3.64l-1.78,3.62c-.6,1.2-1.25,2.37-1.87,3.57q-7.65,14.17-16.62,27.57c-3,4.48-6,8.89-9.08,13.27s-6.25,8.71-9.5,13l-4.87,6.38-2.45,3.19-2.59,3.12-5.22,6.23c-.88,1-1.73,2.08-2.63,3.09l-2.8,2.95a231.55,231.55,0,0,1-50.3,40.71,226,226,0,0,1-28.91,14.46c-5,2-10,3.87-15.18,5.44a120.55,120.55,0,0,1-15.61,3.85c2.53-.88,5-1.8,7.48-2.83l3.69-1.51,3.65-1.61c2.43-1.05,4.81-2.25,7.21-3.35s4.73-2.41,7.09-3.6l1.77-.89,1.74-1,3.47-1.91c1.15-.65,2.32-1.25,3.46-1.93l3.38-2.06c2.24-1.4,4.57-2.64,6.75-4.12l6.63-4.31a285,285,0,0,0,47.76-40.9l2.73-2.83c.88-1,1.71-2,2.56-3l5.11-6,2.57-3,2.48-3.11,5-6.22c1.68-2.06,3.31-4.15,4.94-6.25l4.91-6.27c1.64-2.08,3.2-4.22,4.83-6.32s3.26-4.18,4.82-6.33l4.73-6.4,4.63-6.46c1.58-2.14,3.07-4.33,4.57-6.51l2.25-3.28,2.18-3.32c3-4.39,5.72-8.92,8.43-13.49l2-3.46,1.84-3.53A54.51,54.51,0,0,0,2174.9,990.05Z"/><path class="cls-2" d="M1997.14,1163.08s12.57-76.8,62.7-110.36,130.36-83.58,123.75-181.85c0,0,52.27,123.75-44.81,242.16C2068.29,1182.37,1997.14,1163.08,1997.14,1163.08Z"/><path class="cls-7" d="M2002.61,799.11s34.26,4.88,71.58,41.65c44.14,43.49,84.06,125.53,84.06,125.53"/><path class="cls-3" d="M1970.29,1006s-41.08-33.08-32.37-71.39S1977.09,838,1949.23,804c0,0,71.1,37.37,70.39,110.13s-49.33,91.85-49.33,91.85"/><line class="cls-3" x1="1970.29" y1="1107.37" x2="1970.29" y2="1005.97"/><path class="cls-8" d="M1850.06,1364.33s-.56-91.34,43.12-123.11S2006,1214,2006,1214s-1.63,78.8-41.91,113.41S1850.06,1364.33,1850.06,1364.33Z"/><path class="cls-5" d="M1867.26,1345.61c8.69-9.91,17.76-19.42,27-28.8,4.56-4.72,9.27-9.3,13.91-14l14.12-13.72,14.34-13.51c4.85-4.43,9.63-8.93,14.55-13.28,9.77-8.79,19.67-17.43,30-25.67-8.69,9.91-17.76,19.43-27,28.8-4.57,4.72-9.28,9.3-13.92,14l-14.13,13.72-14.34,13.5c-4.84,4.43-9.63,8.93-14.55,13.28C1887.44,1328.72,1877.54,1337.36,1867.26,1345.61Z"/><path class="cls-5" d="M1876.63,1312.35a67.09,67.09,0,0,1,2.22-13,82.72,82.72,0,0,1,4.48-12.52A64.67,64.67,0,0,1,1899,1265a95.33,95.33,0,0,1,22.3-14.55,89.47,89.47,0,0,1,12.43-4.67,58.19,58.19,0,0,1,13-2.33,108.5,108.5,0,0,0-12,4.89c-3.91,1.8-7.67,3.86-11.36,6a139,139,0,0,0-20.66,14.83,77,77,0,0,0-15.51,19.62,117.67,117.67,0,0,0-5.79,11.43C1879.63,1304.18,1878.06,1308.21,1876.63,1312.35Z"/><path class="cls-5" d="M1904.73,1338.23c6.82-3.65,13.5-7.3,19.94-11.26,1.63-1,3.18-2,4.78-3s3.15-2,4.64-3.18l2.28-1.62,2.2-1.7c.75-.55,1.47-1.14,2.17-1.74s1.42-1.18,2.11-1.78c1.33-1.27,2.72-2.44,4-3.82.66-.67,1.33-1.31,2-2l1.92-2.06c2.53-2.76,5-5.59,7.39-8.52,4.77-5.85,9.3-12,13.67-18.33a86.19,86.19,0,0,1-10.14,20.91,92.56,92.56,0,0,1-15.13,18,77.77,77.77,0,0,1-9.52,7.05,89.29,89.29,0,0,1-10.27,5.64,101.76,101.76,0,0,1-10.8,4.39A80.72,80.72,0,0,1,1904.73,1338.23Z"/><path class="cls-5" d="M1860.29,1294.3a54.2,54.2,0,0,1-3.18-12.65c-.28-2.16-.55-4.34-.66-6.52-.06-1.09-.17-2.18-.19-3.27l-.07-3.28a148.5,148.5,0,0,1,2.33-26.11l1.2-6.45c.46-2.14,1-4.25,1.51-6.38l.78-3.19c.26-1.06.59-2.1.88-3.15l1.82-6.3c.57-2.11,1.37-4.15,2-6.23l2.15-6.21c1.61-4.12,3.28-8.09,5-12.1,3.53-8,7.25-15.82,11.23-23.56,2-3.85,4.09-7.68,6.24-11.47,1.06-1.9,2.16-3.78,3.26-5.65s2.27-3.73,3.44-5.57c2.32-3.68,4.73-7.32,7.26-10.87s5.17-7,8-10.37c5.63-6.63,11.84-13,19.21-17.6a103.09,103.09,0,0,0-17.06,19.27,246.76,246.76,0,0,0-13.69,21.8c-4.18,7.5-8.22,15.09-12,22.83s-7.43,15.52-10.84,23.41c-1.74,3.92-3.45,7.91-5,11.83-1.42,4-2.9,8-4.27,12.09l-2,6.11c-.32,1-.67,2-1,3.07l-.85,3.09-1.69,6.2-1.48,6.24a176.34,176.34,0,0,0-3.86,25.35l-.21,3.21c-.08,1.07-.06,2.14-.1,3.21-.08,2.14,0,4.28.05,6.43s.23,4.29.5,6.43A40.6,40.6,0,0,0,1860.29,1294.3Z"/><path class="cls-9" d="M1868.88,1212.68s-22.67-64,28-107.79,89.8-24.17,116.28-38c0,0-52.43,34.54-89,89.8S1868.88,1212.68,1868.88,1212.68Z"/><path class="cls-5" d="M1970.29,1006c1.1-10.26,2.45-20.42,3.73-30.57s2.61-20.28,3.75-30.41,2.15-20.26,2.71-30.41c.26-5.07.49-10.15.4-15.23a102.14,102.14,0,0,0-1.15-15.27,64.66,64.66,0,0,1,3.87,15,136.78,136.78,0,0,1,1.25,15.52,227,227,0,0,1-1.56,31c-1.16,10.25-2.85,20.43-5,30.51A261.68,261.68,0,0,1,1970.29,1006Z"/><path class="cls-5" d="M2091.4,814c5.78-11.23,12-22.16,18.43-33,3.15-5.44,6.48-10.77,9.73-16.15l10-16,10.25-15.83c3.51-5.22,6.93-10.5,10.52-15.66,7.09-10.39,14.35-20.67,22.08-30.66-5.78,11.23-12,22.16-18.42,33-3.16,5.44-6.49,10.77-9.74,16.15l-10,16L2124,767.69c-3.51,5.22-6.93,10.5-10.52,15.66C2106.37,793.74,2099.12,804,2091.4,814Z"/><path class="cls-5" d="M2091.4,784a58.18,58.18,0,0,1-3-23,64.19,64.19,0,0,1,1.86-11.67c.44-1.92,1.1-3.79,1.7-5.68s1.39-3.7,2.25-5.49a64.24,64.24,0,0,1,13.56-19.26,58.22,58.22,0,0,1,19.41-12.73,106.2,106.2,0,0,0-16.2,15.69,84.06,84.06,0,0,0-11.72,18.62,75.5,75.5,0,0,0-3.94,10.27,86.75,86.75,0,0,0-2.59,10.75A105,105,0,0,0,2091.4,784Z"/><path class="cls-5" d="M2123.48,804a194.76,194.76,0,0,0,16.23-15.7,143.11,143.11,0,0,0,24.49-36.86,200.89,200.89,0,0,0,8.2-21,76.23,76.23,0,0,1-4.14,22.65,89.48,89.48,0,0,1-25.5,38.36A76.36,76.36,0,0,1,2123.48,804Z"/><path class="cls-5" d="M2153.24,534.58c-2.25-2.32-4.36-4.79-6.43-7.29s-4-5.12-5.87-7.77A168.57,168.57,0,0,1,2130.6,503a153.77,153.77,0,0,1-14.3-36.47c-.37-1.6-.82-3.18-1.12-4.8l-.94-4.85c-.33-1.61-.48-3.26-.72-4.89l-.34-2.45c-.1-.82-.14-1.64-.22-2.46l-.41-4.94-.14-4.95c0-.83-.06-1.66-.06-2.48l.07-2.48c0-1.65.08-3.31.16-5a131,131,0,0,1,8.75-38.6l2-4.54,1-2.27c.33-.75.67-1.51,1.07-2.23l2.28-4.4c.77-1.46,1.51-2.94,2.36-4.32l4.94-8.41c1.65-2.81,3.25-5.64,5.09-8.33l5.34-8.18,1.34-2c.45-.67.94-1.33,1.4-2l2.84-4,2.84-4c.95-1.33,1.88-2.66,2.91-3.92l6.08-7.66c1-1.29,2.07-2.52,3.14-3.74l3.2-3.7c1.07-1.22,2.12-2.46,3.21-3.67l3.39-3.53,3.39-3.52c1.11-1.19,2.35-2.26,3.52-3.4,2.37-2.23,4.68-4.52,7.2-6.6l3.73-3.16c1.25-1,2.57-2,3.85-3,2.53-2,5.23-3.87,7.91-5.72,5.45-3.53,11.07-6.9,17.19-9.07a60.34,60.34,0,0,0-8.34,4.87c-2.69,1.76-5.26,3.71-7.8,5.66s-5,4-7.37,6.2c-1.19,1.07-2.41,2.11-3.57,3.21l-3.44,3.36c-2.35,2.19-4.52,4.55-6.72,6.88-1.09,1.17-2.24,2.29-3.27,3.52l-3.14,3.63-3.15,3.63c-1,1.23-2,2.49-3,3.74l-3,3.75c-1,1.25-2,2.49-2.94,3.8l-5.68,7.75c-1,1.28-1.86,2.61-2.76,3.94l-2.7,4-2.7,4c-.45.66-.91,1.31-1.34,2l-1.27,2-5.07,8.17c-.82,1.38-1.73,2.7-2.51,4.1l-2.4,4.17-4.8,8.34c-.84,1.38-1.53,2.79-2.25,4.2l-2.16,4.21c-.37.7-.69,1.42-1,2.15l-.94,2.17-1.88,4.34a127.9,127.9,0,0,0-8.67,36.62,133.6,133.6,0,0,0,2.54,37.71,149.43,149.43,0,0,0,5.05,18.39,172.17,172.17,0,0,0,7.16,17.77,182,182,0,0,0,9,17c1.63,2.77,3.37,5.48,5.15,8.17S2151.23,532.05,2153.24,534.58Z"/><path class="cls-5" d="M1984.59,69c9.37,9,18.32,18.44,27.13,28,4.44,4.73,8.73,9.59,13.1,14.38l12.86,14.59,12.64,14.79c4.13,5,8.34,9.92,12.39,15,8.19,10.06,16.24,20.24,23.86,30.79-9.37-9-18.33-18.43-27.13-27.95-4.45-4.73-8.73-9.59-13.1-14.39l-12.86-14.59-12.63-14.79c-4.13-5-8.34-9.92-12.39-15C2000.27,89.7,1992.22,79.52,1984.59,69Z"/><path class="cls-5" d="M1984.59,107.48c4.58,7.7,8.94,15.42,13.57,22.92,2.31,3.74,4.66,7.44,7.19,10.94,1.27,1.75,2.56,3.46,3.94,5,.7.79,1.36,1.52,2.13,2.27s1.53,1.51,2.33,2.23a142.21,142.21,0,0,0,20.78,15.69c7.41,4.7,15.14,9,23.13,13a104.18,104.18,0,0,1-25.29-9.19A99,99,0,0,1,2010,155c-.84-.78-1.65-1.59-2.46-2.4s-1.65-1.73-2.39-2.63a62.13,62.13,0,0,1-4.1-5.6,112.23,112.23,0,0,1-6.68-11.81A153.91,153.91,0,0,1,1984.59,107.48Z"/><path class="cls-5" d="M2021.13,74.9a139.83,139.83,0,0,1,23.76,14.21A124.62,124.62,0,0,1,2055.68,98c1.76,1.54,3.37,3.25,5,4.91.81.85,1.58,1.76,2.37,2.64.39.44.79.87,1.17,1.33l1.1,1.4c.72,1,1.5,1.86,2.15,2.84l2,2.93c1.23,2,2.5,4,3.58,6.06a113.56,113.56,0,0,1,5.94,12.65,125.78,125.78,0,0,1,7.56,26.66c-3.68-8.46-7.4-16.78-11.54-24.85-1-2-2.1-4-3.16-6s-2.18-3.93-3.37-5.84a98.33,98.33,0,0,0-7.51-11,105.48,105.48,0,0,0-8.94-9.92c-3.16-3.2-6.5-6.25-9.89-9.26s-6.85-6-10.38-8.88S2024.7,77.82,2021.13,74.9Z"/><path class="cls-2" d="M1551.45,534.58s105.58-48.72,51-177.35S1407.57,229.9,1407.57,229.9,1629.06,443,1551.45,534.58Z"/><path class="cls-3" d="M1628.44,838s23.53-88.35-10.32-126-88.35-41.58-105.28-55.87c0,0-2.57,36.21,0,66C1515.28,750.31,1533.6,825,1628.44,838Z"/><path class="cls-4" d="M1593.44,208.2s110.41,1,136.21-58.82,7.22-102.17,15.48-113.51c0,0-88.74,14.45-119.7,65S1593.44,208.2,1593.44,208.2Z"/><path class="cls-5" d="M1529.79,990.05a54.51,54.51,0,0,0,3.17,7.31l1.84,3.53,2,3.46c2.71,4.57,5.43,9.1,8.43,13.49l2.18,3.32,2.25,3.28c1.5,2.18,3,4.37,4.57,6.51l4.63,6.46,4.73,6.4c1.55,2.15,3.22,4.22,4.82,6.33s3.19,4.24,4.83,6.32l4.91,6.27c1.63,2.1,3.25,4.19,4.93,6.25l5,6.22,2.48,3.11,2.57,3,5.1,6c.86,1,1.69,2,2.57,3l2.73,2.83a285,285,0,0,0,47.76,40.9l6.63,4.31c2.18,1.48,4.51,2.72,6.74,4.12l3.39,2.06c1.13.68,2.31,1.28,3.46,1.93l3.47,1.91,1.74,1,1.77.89c2.36,1.19,4.68,2.48,7.08,3.6s4.78,2.3,7.22,3.35l3.64,1.61,3.7,1.51c2.46,1,5,2,7.48,2.83a120.15,120.15,0,0,1-15.61-3.85c-5.14-1.57-10.17-3.46-15.18-5.44a226,226,0,0,1-28.91-14.46,231.55,231.55,0,0,1-50.3-40.71l-2.8-2.95c-.9-1-1.75-2.06-2.63-3.09l-5.22-6.23-2.59-3.12-2.45-3.19-4.87-6.38c-3.25-4.25-6.36-8.63-9.5-13s-6.14-8.79-9.08-13.27q-9-13.37-16.62-27.57c-.62-1.2-1.27-2.37-1.87-3.57l-1.78-3.62c-.61-1.2-1.19-2.41-1.74-3.64s-1.11-2.44-1.64-3.68C1532.69,1000.4,1530.68,995.35,1529.79,990.05Z"/><path class="cls-2" d="M1707.55,1163.08s-12.57-76.8-62.7-110.36-130.36-83.58-123.75-181.85c0,0-52.27,123.75,44.81,242.16C1636.4,1182.37,1707.55,1163.08,1707.55,1163.08Z"/><path class="cls-7" d="M1702.08,799.11s-34.27,4.88-71.58,41.65c-44.14,43.49-84.06,125.53-84.06,125.53"/><path class="cls-3" d="M1734.4,1006s41.08-33.08,32.37-71.39S1727.6,838,1755.46,804c0,0-71.1,37.37-70.39,110.13S1734.4,1006,1734.4,1006"/><line class="cls-3" x1="1734.4" y1="1107.37" x2="1734.4" y2="1005.97"/><path class="cls-8" d="M1854.63,1364.33s.56-91.34-43.12-123.11S1698.69,1214,1698.69,1214s1.63,78.8,41.91,113.41S1854.63,1364.33,1854.63,1364.33Z"/><path class="cls-5" d="M1837.43,1345.61c-10.28-8.25-20.18-16.89-30-25.68-4.93-4.35-9.71-8.85-14.56-13.28l-14.34-13.5-14.13-13.72c-4.63-4.65-9.34-9.23-13.91-14-9.21-9.37-18.28-18.89-27-28.8,10.28,8.24,20.19,16.88,30,25.67,4.92,4.35,9.7,8.85,14.55,13.28l14.33,13.51,14.13,13.72c4.64,4.65,9.34,9.23,13.91,14C1819.67,1326.19,1828.74,1335.7,1837.43,1345.61Z"/><path class="cls-5" d="M1828.06,1312.35c-1.43-4.14-3-8.17-4.77-12.1a120,120,0,0,0-5.79-11.43A77.23,77.23,0,0,0,1802,1269.2a139.5,139.5,0,0,0-20.66-14.83c-3.69-2.13-7.45-4.19-11.36-6a109.29,109.29,0,0,0-12-4.89,58.29,58.29,0,0,1,13,2.33,89.47,89.47,0,0,1,12.43,4.67,95.54,95.54,0,0,1,22.3,14.55,64.81,64.81,0,0,1,15.7,21.79,82.72,82.72,0,0,1,4.48,12.52A67.86,67.86,0,0,1,1828.06,1312.35Z"/><path class="cls-5" d="M1800,1338.23a80.34,80.34,0,0,1-11.21-3,101.76,101.76,0,0,1-10.8-4.39,89.29,89.29,0,0,1-10.27-5.64,77,77,0,0,1-9.52-7.05,92.56,92.56,0,0,1-15.13-18,85.82,85.82,0,0,1-10.14-20.91c4.37,6.38,8.9,12.48,13.66,18.33,2.38,2.93,4.86,5.76,7.4,8.52l1.91,2.06c.64.68,1.32,1.32,2,2,1.29,1.38,2.67,2.55,4,3.82.69.6,1.41,1.18,2.11,1.78s1.42,1.19,2.17,1.74l2.2,1.7,2.28,1.62c1.49,1.13,3.1,2.1,4.64,3.18s3.15,2,4.78,3C1786.46,1330.93,1793.14,1334.58,1800,1338.23Z"/><path class="cls-5" d="M1844.4,1294.3a39.45,39.45,0,0,0,1.14-6.36c.28-2.14.41-4.29.51-6.43s.13-4.29,0-6.43c0-1.07,0-2.14-.09-3.21l-.22-3.21a174.93,174.93,0,0,0-3.85-25.35l-1.48-6.24-1.69-6.2-.85-3.09c-.29-1-.64-2-1-3.07l-2-6.11c-1.38-4-2.85-8.08-4.27-12.09-1.58-3.92-3.3-7.91-5-11.83-3.41-7.89-7-15.69-10.84-23.41s-7.78-15.33-12-22.83a246.87,246.87,0,0,0-13.7-21.8,102.68,102.68,0,0,0-17-19.27c7.36,4.63,13.58,11,19.21,17.6,2.82,3.34,5.42,6.85,8,10.37s4.94,7.19,7.26,10.87c1.17,1.84,2.3,3.71,3.43,5.57s2.21,3.75,3.27,5.65c2.15,3.79,4.21,7.62,6.23,11.47,4,7.74,7.71,15.61,11.24,23.56,1.72,4,3.39,8,5,12.1l2.14,6.21c.69,2.08,1.49,4.12,2.06,6.23l1.82,6.3c.29,1,.62,2.09.88,3.15l.77,3.19c.51,2.13,1.06,4.24,1.52,6.38l1.2,6.45a148.5,148.5,0,0,1,2.33,26.11l-.07,3.28c0,1.09-.13,2.18-.2,3.27-.1,2.18-.37,4.36-.65,6.52A54.7,54.7,0,0,1,1844.4,1294.3Z"/><path class="cls-9" d="M1835.81,1212.68s22.67-64-28-107.79-89.79-24.17-116.27-38c0,0,52.42,34.54,89,89.8S1835.81,1212.68,1835.81,1212.68Z"/><path class="cls-5" d="M1734.4,1006a259.63,259.63,0,0,1-8-29.84c-2.12-10.08-3.81-20.26-5-30.51a227,227,0,0,1-1.56-31,136.76,136.76,0,0,1,1.24-15.52,64.68,64.68,0,0,1,3.88-15,102.16,102.16,0,0,0-1.16,15.27c-.08,5.08.14,10.16.4,15.23.57,10.15,1.58,20.28,2.72,30.41s2.43,20.26,3.74,30.41S1733.3,995.71,1734.4,1006Z"/><path class="cls-11" d="M1851.71,891.63s17-20,20-44c3.28-27.16-5.27-57.23-18.1-80.45,0,0-32.68,23-32.24,67.85s30.39,56.59,30.39,56.59"/><line class="cls-11" x1="1851.71" y1="954.1" x2="1851.71" y2="891.63"/><path class="cls-5" d="M1851.71,891.63a158.35,158.35,0,0,1-4.94-18.39c-1.33-6.21-2.32-12.48-3.07-18.8a142.87,142.87,0,0,1-1-19.08,80.67,80.67,0,0,1,.76-9.56,39.38,39.38,0,0,1,2.39-9.27c-1,6.28-.77,12.54-.48,18.79.19,3.13.4,6.26.71,9.38s.59,6.24,1,9.36.72,6.24,1.11,9.36l1.19,9.37C1850.21,879.05,1851,885.31,1851.71,891.63Z"/><line class="cls-11" x1="448.56" y1="954.1" x2="448.56" y2="891.63"/><path class="cls-5" d="M448.56,891.63a156.38,156.38,0,0,1-4.94-18.39c-1.33-6.21-2.32-12.48-3.07-18.8a141.22,141.22,0,0,1-.95-19.08,80.67,80.67,0,0,1,.76-9.56,39.38,39.38,0,0,1,2.39-9.27c-1,6.28-.78,12.54-.48,18.79.19,3.13.4,6.26.71,9.38s.59,6.24,1,9.36.72,6.24,1.11,9.36l1.19,9.37C447.06,879.05,447.88,885.31,448.56,891.63Z"/><path class="cls-12" d="M1624.31,696.47s-5-46.71,24.57-65.35,85.55-36.2,89.39-75.13c0,0,21.24,68.31-25,113.7s-88.93,26.78-88.93,26.78"/><path class="cls-5" d="M1624.31,696.47c7.16-5.76,14.39-11.33,21.62-16.89s14.41-11.13,21.5-16.8,14.11-11.42,20.87-17.44c3.36-3,6.69-6.1,9.84-9.35a90.07,90.07,0,0,0,8.89-10.35,57.07,57.07,0,0,1-7,11.92,117.49,117.49,0,0,1-9,10.55,200.63,200.63,0,0,1-20.48,18.54q-10.8,8.58-22.37,16.07A226.36,226.36,0,0,1,1624.31,696.47Z"/><path class="cls-12" d="M2078.88,696.47s5-46.71-24.57-65.35-85.55-36.2-89.39-75.13c0,0-21.24,68.31,25,113.7s88.93,26.78,88.93,26.78"/><path class="cls-5" d="M2078.88,696.47A226.36,226.36,0,0,1,2055,682.72q-11.57-7.47-22.37-16.07a200.63,200.63,0,0,1-20.48-18.54,117.49,117.49,0,0,1-9-10.55,57.07,57.07,0,0,1-7-11.92,90.07,90.07,0,0,0,8.89,10.35c3.15,3.25,6.48,6.32,9.83,9.35,6.77,6,13.78,11.78,20.88,17.44s14.3,11.21,21.5,16.8S2071.72,690.71,2078.88,696.47Z"/><path class="cls-12" d="M221.54,696.47s-5-46.71,24.57-65.35,85.55-36.2,89.39-75.13c0,0,21.24,68.31-25,113.7s-88.93,26.78-88.93,26.78"/><path class="cls-5" d="M221.54,696.47c7.15-5.76,14.39-11.33,21.61-16.89s14.41-11.13,21.51-16.8,14.1-11.42,20.87-17.44c3.36-3,6.68-6.1,9.84-9.35a91.07,91.07,0,0,0,8.89-10.35,57.51,57.51,0,0,1-7,11.92,119.26,119.26,0,0,1-9,10.55,198.54,198.54,0,0,1-20.48,18.54q-10.78,8.58-22.36,16.07A226.36,226.36,0,0,1,221.54,696.47Z"/><path class="cls-12" d="M676.11,696.47s5-46.71-24.58-65.35S566,594.92,562.15,556c0,0-21.25,68.31,25,113.7s88.93,26.78,88.93,26.78"/><path class="cls-5" d="M676.11,696.47a226.5,226.5,0,0,1-23.85-13.75q-11.55-7.47-22.36-16.07a200.63,200.63,0,0,1-20.48-18.54,119.26,119.26,0,0,1-9-10.55,57.47,57.47,0,0,1-7-11.92A90,90,0,0,0,602.27,636c3.16,3.25,6.49,6.32,9.84,9.35,6.77,6,13.77,11.78,20.87,17.44s14.31,11.21,21.51,16.8S669,690.71,676.11,696.47Z"/><path class="cls-5" d="M1613.29,814c-7.72-10-15-20.28-22.07-30.67-3.59-5.16-7-10.44-10.52-15.66l-10.25-15.83-10-16c-3.25-5.38-6.58-10.71-9.74-16.15-6.4-10.83-12.64-21.76-18.42-33,7.73,10,15,20.27,22.08,30.66,3.59,5.16,7,10.44,10.51,15.66l10.25,15.83,10,16c3.25,5.38,6.57,10.71,9.73,16.15C1601.27,791.86,1607.51,802.79,1613.29,814Z"/><path class="cls-5" d="M1613.29,784a105,105,0,0,0-1.31-22.51,86.75,86.75,0,0,0-2.59-10.75,75.5,75.5,0,0,0-3.94-10.27,84.42,84.42,0,0,0-11.72-18.62,105.82,105.82,0,0,0-16.21-15.69,58.16,58.16,0,0,1,19.42,12.73,64.24,64.24,0,0,1,13.56,19.26c.86,1.79,1.53,3.65,2.25,5.49s1.26,3.76,1.7,5.68A63.31,63.31,0,0,1,1616.3,761,58.18,58.18,0,0,1,1613.29,784Z"/><path class="cls-5" d="M1581.21,804a76.36,76.36,0,0,1-19.28-12.59,89.48,89.48,0,0,1-25.5-38.36,76.23,76.23,0,0,1-4.14-22.65,200.89,200.89,0,0,0,8.2,21A143.11,143.11,0,0,0,1565,788.29,193.22,193.22,0,0,0,1581.21,804Z"/><path class="cls-5" d="M1551.45,534.58c2-2.53,3.85-5.19,5.64-7.86s3.53-5.4,5.16-8.17a179.56,179.56,0,0,0,9-17,172.24,172.24,0,0,0,7.17-17.77,149.43,149.43,0,0,0,5-18.39,133.6,133.6,0,0,0,2.53-37.71,127.56,127.56,0,0,0-8.66-36.62l-1.89-4.34-.94-2.17a22,22,0,0,0-1-2.15l-2.15-4.21c-.72-1.41-1.41-2.82-2.25-4.2l-4.8-8.34-2.4-4.17c-.79-1.4-1.69-2.72-2.51-4.1l-5.07-8.17-1.27-2c-.43-.68-.9-1.33-1.34-2l-2.7-4-2.7-4c-.9-1.33-1.8-2.66-2.76-3.94l-5.68-7.75c-.92-1.31-1.93-2.55-2.94-3.8l-3-3.75c-1-1.25-2-2.51-3-3.74l-3.15-3.63-3.14-3.63c-1-1.23-2.18-2.35-3.27-3.52-2.2-2.33-4.38-4.69-6.72-6.88l-3.44-3.36c-1.16-1.1-2.38-2.14-3.57-3.21-2.36-2.19-4.89-4.15-7.37-6.2s-5.11-3.9-7.8-5.66a60.93,60.93,0,0,0-8.34-4.87c6.11,2.17,11.74,5.54,17.19,9.07,2.68,1.85,5.38,3.68,7.91,5.72,1.28,1,2.6,2,3.85,3l3.72,3.16c2.52,2.08,4.84,4.37,7.21,6.6,1.17,1.14,2.41,2.21,3.52,3.4l3.39,3.52,3.38,3.53c1.09,1.21,2.14,2.45,3.22,3.67l3.2,3.7c1.07,1.22,2.15,2.45,3.14,3.74l6.07,7.66c1,1.26,2,2.59,2.91,3.92l2.84,4,2.84,4c.47.66,1,1.32,1.41,2l1.34,2,5.34,8.18c1.84,2.69,3.44,5.52,5.09,8.33l4.94,8.41c.85,1.38,1.59,2.86,2.35,4.32l2.29,4.4c.4.72.74,1.48,1.07,2.23l1,2.27,2,4.54a130.74,130.74,0,0,1,8.76,38.6c.08,1.65.1,3.31.16,5l.07,2.48c0,.82,0,1.65-.06,2.48l-.14,4.95-.41,4.94c-.08.82-.12,1.64-.23,2.46l-.33,2.45c-.24,1.63-.39,3.28-.72,4.89l-.94,4.85c-.3,1.62-.75,3.2-1.12,4.8A153.38,153.38,0,0,1,1574.08,503a164.87,164.87,0,0,1-10.34,16.55c-1.87,2.65-3.84,5.24-5.86,7.77S1553.7,532.26,1551.45,534.58Z"/><path class="cls-2" d="M1782,251.59s105.59,48.72,51,177.35-194.9,127.33-194.9,127.33S1859.57,343.2,1782,251.59Z"/><path class="cls-5" d="M1794.86,263.66A97.84,97.84,0,0,1,1806,278.49a130.89,130.89,0,0,1,8.66,16.51,135,135,0,0,1,6.18,17.68,128.24,128.24,0,0,1,3.49,18.47,126.51,126.51,0,0,1-1.47,37.6,146.26,146.26,0,0,1-11.94,35.69q-2.06,4.23-4.33,8.34c-1.52,2.74-3.08,5.39-4.62,8.09l-4.78,8c-1.66,2.62-3.32,5.24-5,7.83A309,309,0,0,1,1770,466.61a221.71,221.71,0,0,1-26.09,26.54,158.18,158.18,0,0,1-14.87,11.18,81.32,81.32,0,0,1-16.44,8.56,60.72,60.72,0,0,0,8-4.6c2.55-1.7,5.05-3.48,7.46-5.36a172.28,172.28,0,0,0,13.82-12.05,257.67,257.67,0,0,0,24.33-27.35c1.88-2.41,3.69-4.87,5.5-7.32s3.57-4.95,5.3-7.47c3.52-5,6.83-10.13,10.09-15.29l4.78-7.82,4.64-7.91c1.49-2.66,3-5.32,4.48-8s2.82-5.35,4.1-8.07a146.42,146.42,0,0,0,11.65-34.11,129.62,129.62,0,0,0,2.49-17.86,137.78,137.78,0,0,0-.07-18.06,128,128,0,0,0-2.58-17.93,129.56,129.56,0,0,0-5-17.5,137.35,137.35,0,0,0-7.23-16.8q-2.07-4.09-4.45-8A86.61,86.61,0,0,0,1794.86,263.66Z"/><path class="cls-2" d="M1922.74,251.59s-105.59,48.72-51,177.35,194.89,127.33,194.89,127.33S1845.12,343.2,1922.74,251.59Z"/><path class="cls-5" d="M1912,261.86a85.16,85.16,0,0,0-5.19,7.71c-1.62,2.62-3.15,5.31-4.58,8a142.14,142.14,0,0,0-7.57,16.81,134,134,0,0,0-5.39,17.54,131.06,131.06,0,0,0-3,18c-2.42,24.24,2.46,48.78,12.88,70.72.63,1.38,1.28,2.75,2,4.1s1.37,2.72,2.09,4.06c1.41,2.68,3,5.36,4.48,8.05s3.12,5.31,4.67,8l4.79,7.89q9.77,15.67,21,30.35a259.28,259.28,0,0,0,24.47,27.59,172.79,172.79,0,0,0,13.91,12.15q3.65,2.85,7.51,5.41a61.56,61.56,0,0,0,8,4.64,81.49,81.49,0,0,1-16.55-8.64,157.42,157.42,0,0,1-15-11.28,223.58,223.58,0,0,1-26.25-26.78,319.54,319.54,0,0,1-22.23-30.2c-1.67-2.64-3.4-5.25-5-7.91s-3.25-5.34-4.8-8.05-3.14-5.38-4.63-8.17q-1.15-2.07-2.21-4.2t-2.1-4.25a142.39,142.39,0,0,1-11.52-36.14,126.76,126.76,0,0,1-.63-37.9,129.22,129.22,0,0,1,3.94-18.52,137.28,137.28,0,0,1,6.57-17.68,135.38,135.38,0,0,1,9-16.49A101.24,101.24,0,0,1,1912,261.86Z"/><path class="cls-2" d="M378.43,251.59s105.58,48.72,51,177.35S234.55,556.27,234.55,556.27,456,343.2,378.43,251.59Z"/><path class="cls-5" d="M390.79,263.82A96.81,96.81,0,0,1,402,278.58,128.27,128.27,0,0,1,410.77,295a132.49,132.49,0,0,1,6.28,17.64,128.19,128.19,0,0,1,3.58,18.45,125.24,125.24,0,0,1-1.35,37.61,144.84,144.84,0,0,1-11.9,35.7c-1.36,2.83-2.82,5.61-4.33,8.35s-3.08,5.39-4.61,8.09l-4.78,8c-1.66,2.61-3.32,5.24-5,7.83a312.19,312.19,0,0,1-22.13,29.92,221.81,221.81,0,0,1-26.1,26.54,154,154,0,0,1-14.87,11.18,81.24,81.24,0,0,1-16.43,8.56,60,60,0,0,0,8-4.6q3.84-2.55,7.47-5.36a175.82,175.82,0,0,0,13.82-12.05,257.57,257.57,0,0,0,24.32-27.35c1.88-2.4,3.69-4.86,5.5-7.32s3.58-4.95,5.31-7.47c3.51-5,6.83-10.12,10.09-15.29l4.77-7.82,4.65-7.9c1.49-2.67,3-5.33,4.47-8s2.82-5.35,4.11-8.08a145.7,145.7,0,0,0,11.61-34.11,129.5,129.5,0,0,0,2.43-17.86,137.63,137.63,0,0,0-.13-18.05,126.39,126.39,0,0,0-2.67-17.92,130.58,130.58,0,0,0-5.08-17.47,138.92,138.92,0,0,0-7.34-16.75c-1.4-2.72-2.9-5.4-4.5-8A83.16,83.16,0,0,0,390.79,263.82Z"/><path class="cls-2" d="M519.21,251.59s-105.58,48.72-51,177.35S663.09,556.27,663.09,556.27,441.6,343.2,519.21,251.59Z"/><path class="cls-5" d="M505.48,263.82a84.24,84.24,0,0,0-5,7.72q-2.34,4-4.38,8.07A138.6,138.6,0,0,0,489,296.45,130.65,130.65,0,0,0,484.16,314a127.69,127.69,0,0,0-2.43,17.93,137.3,137.3,0,0,0,.06,18,132,132,0,0,0,2.58,17.83,148.58,148.58,0,0,0,11.75,34.05c1.29,2.72,2.67,5.41,4.11,8.06s3,5.32,4.48,8l4.64,7.89c1.6,2.6,3.15,5.23,4.77,7.81,3.26,5.16,6.57,10.29,10.08,15.28,1.73,2.51,3.54,5,5.3,7.46s3.62,4.91,5.5,7.3a258.18,258.18,0,0,0,24.3,27.32,173.64,173.64,0,0,0,13.81,12q3.61,2.82,7.46,5.35a60.49,60.49,0,0,0,8,4.6,80.55,80.55,0,0,1-16.41-8.55,152.12,152.12,0,0,1-14.86-11.17,221.13,221.13,0,0,1-26.07-26.49,313,313,0,0,1-22.12-29.89c-1.7-2.59-3.35-5.21-5-7.82l-4.77-8c-1.54-2.69-3.09-5.35-4.61-8.07s-3-5.51-4.34-8.33a147.7,147.7,0,0,1-12-35.6,126.41,126.41,0,0,1,1.63-56,133.32,133.32,0,0,1,6-17.71,131.26,131.26,0,0,1,8.51-16.56A97,97,0,0,1,505.48,263.82Z"/><path class="cls-5" d="M1720.09,69c-7.63,10.55-15.67,20.73-23.86,30.79-4,5.07-8.26,10-12.4,15l-12.63,14.79-12.85,14.59c-4.37,4.8-8.66,9.66-13.1,14.39-8.81,9.52-17.76,18.92-27.13,27.95,7.62-10.55,15.66-20.73,23.85-30.79,4.06-5.07,8.27-10,12.4-15L1667,125.9l12.86-14.59c4.37-4.79,8.66-9.65,13.1-14.38C1701.78,87.41,1710.73,78,1720.09,69Z"/><path class="cls-5" d="M1720.09,107.48a152.1,152.1,0,0,1-9.75,25,110.38,110.38,0,0,1-6.67,11.81,62.13,62.13,0,0,1-4.1,5.6c-.74.9-1.58,1.81-2.39,2.63s-1.62,1.62-2.46,2.4a99.18,99.18,0,0,1-22.4,15.42,104.18,104.18,0,0,1-25.29,9.19c8-4,15.72-8.29,23.13-13a141.58,141.58,0,0,0,20.77-15.69c.81-.72,1.57-1.47,2.34-2.23s1.43-1.48,2.12-2.27c1.39-1.58,2.68-3.29,3.94-5,2.54-3.5,4.88-7.2,7.2-10.94C1711.15,122.9,1715.51,115.18,1720.09,107.48Z"/><path class="cls-5" d="M1683.56,74.9c-3.57,2.92-7.15,5.78-10.65,8.72s-7,5.87-10.38,8.88-6.73,6.06-9.89,9.26a105.48,105.48,0,0,0-8.94,9.92,97,97,0,0,0-7.51,11c-1.19,1.91-2.25,3.89-3.38,5.84s-2.15,4-3.15,6c-4.14,8.07-7.86,16.39-11.54,24.85a125.78,125.78,0,0,1,7.56-26.66,113.56,113.56,0,0,1,5.94-12.65c1.08-2.07,2.35-4,3.57-6.06l2-2.93c.65-1,1.43-1.89,2.15-2.84l1.1-1.4c.38-.46.78-.89,1.17-1.33.79-.88,1.55-1.79,2.36-2.64,1.67-1.66,3.28-3.37,5-4.91a126.15,126.15,0,0,1,10.79-8.85A140.3,140.3,0,0,1,1683.56,74.9Z"/><path class="cls-13" d="M1050.69,1361.58s-55.83-52.23-55.83-153.08,167.5-268.36,203.52-306.18,255.75-225.13,255.75-405.23-299-218.56-299-335S1283,5.4,1283,5.4"/><path class="cls-13" d="M1248.08,1361.58s55.83-52.23,55.83-153.08-167.5-268.36-203.52-306.18S844.64,677.19,844.64,497.09s299-218.56,299-335S1015.74,5.4,1015.74,5.4"/><path class="cls-13" d="M1752.84,1361.58S1697,1309.35,1697,1208.5s167.5-268.36,203.52-306.18,255.75-225.13,255.75-405.23-299-218.56-299-335S1985.18,5.4,1985.18,5.4"/><path class="cls-13" d="M1950.23,1361.58s55.83-52.23,55.83-153.08-167.5-268.36-203.52-306.18-255.75-225.13-255.75-405.23,299-218.56,299-335S1717.89,5.4,1717.89,5.4"/><path class="cls-13" d="M349.32,1361.58s-55.83-52.23-55.83-153.08S461,940.14,497,902.32,752.75,677.19,752.75,497.09s-299-218.56-299-335S581.66,5.4,581.66,5.4"/><path class="cls-13" d="M546.7,1361.58s55.84-52.23,55.84-153.08S435,940.14,399,902.32,143.27,677.19,143.27,497.09s299-218.56,299-335S314.37,5.4,314.37,5.4"/><path class="cls-2" d="M749.72,534.58s-105.58-48.72-51-177.35S893.6,229.9,893.6,229.9,672.11,443,749.72,534.58Z"/><path class="cls-3" d="M672.72,838s-23.52-88.35,10.33-126,88.35-41.58,105.27-55.87c0,0,1.87,42.65,0,66C786.54,744.39,767.57,825,672.72,838Z"/><path class="cls-4" d="M707.72,208.2s-110.41,1-136.2-58.82S564.29,47.21,556,35.87c0,0,88.74,14.45,119.69,65S707.72,208.2,707.72,208.2Z"/><path class="cls-5" d="M771.38,990.05c-.89,5.3-2.91,10.35-5,15.3-.53,1.24-1.09,2.46-1.65,3.68s-1.13,2.44-1.73,3.64l-1.79,3.62c-.6,1.2-1.24,2.37-1.86,3.57q-7.67,14.17-16.62,27.57c-3,4.48-6,8.89-9.08,13.27s-6.25,8.71-9.5,13L719.3,1080l-2.44,3.19-2.59,3.12-5.23,6.23c-.87,1-1.73,2.08-2.63,3.09l-2.79,2.95a231.37,231.37,0,0,1-50.31,40.71,225.38,225.38,0,0,1-28.91,14.46c-5,2-10,3.87-15.18,5.44a120.41,120.41,0,0,1-15.6,3.85c2.52-.88,5-1.8,7.48-2.83l3.69-1.51,3.65-1.61c2.43-1.05,4.81-2.25,7.21-3.35s4.73-2.41,7.09-3.6l1.76-.89,1.74-1,3.48-1.91c1.15-.65,2.32-1.25,3.45-1.93l3.39-2.06c2.24-1.4,4.57-2.64,6.75-4.12l6.62-4.31a284.64,284.64,0,0,0,47.77-40.9l2.73-2.83c.87-1,1.71-2,2.56-3l5.11-6,2.57-3,2.48-3.11,5-6.22c1.68-2.06,3.31-4.15,4.93-6.25l4.91-6.27c1.65-2.08,3.21-4.22,4.83-6.32s3.27-4.18,4.83-6.33l4.72-6.4L747,1031c1.58-2.14,3.06-4.33,4.57-6.51l2.25-3.28,2.18-3.32c3-4.39,5.72-8.92,8.43-13.49l2-3.46,1.85-3.53A54.51,54.51,0,0,0,771.38,990.05Z"/><path class="cls-2" d="M593.62,1163.08s12.56-76.8,62.7-110.36,130.36-83.58,123.74-181.85c0,0,52.27,123.75-44.8,242.16C664.77,1182.37,593.62,1163.08,593.62,1163.08Z"/><path class="cls-7" d="M599.09,799.11s34.26,4.88,71.58,41.65c44.14,43.49,84.06,125.53,84.06,125.53"/><path class="cls-3" d="M566.77,1006s-41.08-33.08-32.38-71.39S573.57,838,545.71,804c0,0,71.09,37.37,70.39,110.13S566.77,1006,566.77,1006"/><line class="cls-3" x1="566.77" y1="1107.37" x2="566.77" y2="1005.97"/><path class="cls-8" d="M446.54,1364.33S446,1273,489.66,1241.22,602.48,1214,602.48,1214s-1.63,78.8-41.91,113.41S446.54,1364.33,446.54,1364.33Z"/><path class="cls-5" d="M463.73,1345.61c8.7-9.91,17.77-19.42,27-28.8,4.57-4.72,9.28-9.3,13.92-14l14.12-13.72,14.34-13.51c4.85-4.43,9.62-8.93,14.55-13.28,9.77-8.79,19.67-17.43,30-25.67-8.69,9.91-17.76,19.43-27,28.8-4.56,4.72-9.27,9.3-13.91,14l-14.13,13.72-14.34,13.5c-4.85,4.43-9.63,8.93-14.55,13.28C483.92,1328.72,474,1337.36,463.73,1345.61Z"/><path class="cls-5" d="M473.11,1312.35a66.34,66.34,0,0,1,2.22-13,82.72,82.72,0,0,1,4.48-12.52A64.64,64.64,0,0,1,495.5,1265a95.59,95.59,0,0,1,22.31-14.55,89.35,89.35,0,0,1,12.42-4.67,58.38,58.38,0,0,1,13-2.33,109.45,109.45,0,0,0-12,4.89c-3.9,1.8-7.66,3.86-11.35,6a139,139,0,0,0-20.66,14.83,77,77,0,0,0-15.51,19.62,117.67,117.67,0,0,0-5.79,11.43C476.1,1304.18,474.54,1308.21,473.11,1312.35Z"/><path class="cls-5" d="M501.21,1338.23c6.81-3.65,13.5-7.3,19.93-11.26,1.63-1,3.19-2,4.79-3s3.14-2,4.64-3.18l2.27-1.62,2.21-1.7c.75-.55,1.46-1.14,2.16-1.74s1.43-1.18,2.12-1.78c1.33-1.27,2.72-2.44,4-3.82.66-.67,1.33-1.31,2-2l1.92-2.06c2.53-2.76,5-5.59,7.39-8.52,4.77-5.85,9.3-12,13.67-18.33a86.19,86.19,0,0,1-10.14,20.91,93,93,0,0,1-15.14,18,76.91,76.91,0,0,1-9.51,7.05,88.59,88.59,0,0,1-10.28,5.64,100.75,100.75,0,0,1-10.79,4.39A80.72,80.72,0,0,1,501.21,1338.23Z"/><path class="cls-5" d="M456.77,1294.3a53.7,53.7,0,0,1-3.18-12.65c-.29-2.16-.55-4.34-.66-6.52-.06-1.09-.18-2.18-.19-3.27l-.07-3.28a148.5,148.5,0,0,1,2.33-26.11l1.2-6.45c.45-2.14,1-4.25,1.51-6.38l.77-3.19c.27-1.06.6-2.1.89-3.15l1.81-6.3c.58-2.11,1.37-4.15,2.06-6.23l2.15-6.21c1.61-4.12,3.27-8.09,5-12.1,3.53-8,7.24-15.82,11.23-23.56,2-3.85,4.09-7.68,6.24-11.47,1.06-1.9,2.16-3.78,3.26-5.65s2.26-3.73,3.44-5.57c2.32-3.68,4.73-7.32,7.26-10.87s5.17-7,8-10.37c5.64-6.63,11.85-13,19.22-17.6A103.09,103.09,0,0,0,512,1126.64a246.76,246.76,0,0,0-13.69,21.8c-4.18,7.5-8.22,15.09-12,22.83s-7.44,15.52-10.84,23.41c-1.74,3.92-3.46,7.91-5,11.83s-2.9,8-4.27,12.09l-2,6.11c-.32,1-.68,2-1,3.07l-.84,3.09-1.69,6.2-1.49,6.24a177.72,177.72,0,0,0-3.85,25.35l-.21,3.21c-.08,1.07-.06,2.14-.1,3.21-.08,2.14,0,4.28,0,6.43s.24,4.29.51,6.43A39.48,39.48,0,0,0,456.77,1294.3Z"/><path class="cls-9" d="M465.36,1212.68s-22.68-64,28-107.79,89.8-24.17,116.28-38c0,0-52.43,34.54-89,89.8S465.36,1212.68,465.36,1212.68Z"/><path class="cls-5" d="M566.77,1006c1.09-10.26,2.44-20.42,3.73-30.57s2.61-20.28,3.75-30.41,2.15-20.26,2.71-30.41c.26-5.07.48-10.15.4-15.23a100.85,100.85,0,0,0-1.16-15.27,64.68,64.68,0,0,1,3.88,15,136.78,136.78,0,0,1,1.25,15.52,228.6,228.6,0,0,1-1.56,31c-1.16,10.25-2.85,20.43-5,30.51A259.58,259.58,0,0,1,566.77,1006Z"/><path class="cls-5" d="M687.88,814c5.78-11.23,12-22.16,18.42-33,3.16-5.44,6.49-10.77,9.74-16.15l10-16,10.25-15.83c3.51-5.22,6.92-10.5,10.52-15.66,7.09-10.39,14.35-20.67,22.07-30.66-5.77,11.23-12,22.16-18.42,33-3.15,5.44-6.49,10.77-9.73,16.15l-10,16-10.26,15.83c-3.5,5.22-6.92,10.5-10.51,15.66C702.85,793.74,695.59,804,687.88,814Z"/><path class="cls-5" d="M687.88,784a58.18,58.18,0,0,1-3-23,63.33,63.33,0,0,1,1.86-11.67c.44-1.92,1.1-3.79,1.69-5.68s1.39-3.7,2.26-5.49a64.06,64.06,0,0,1,13.56-19.26,58.22,58.22,0,0,1,19.41-12.73,106.2,106.2,0,0,0-16.2,15.69,84.06,84.06,0,0,0-11.72,18.62,74.21,74.21,0,0,0-3.94,10.27,86.75,86.75,0,0,0-2.59,10.75A105,105,0,0,0,687.88,784Z"/><path class="cls-5" d="M720,804a196.32,196.32,0,0,0,16.23-15.7,143.11,143.11,0,0,0,24.49-36.86,198.66,198.66,0,0,0,8.19-21A76.21,76.21,0,0,1,764.74,753a89.72,89.72,0,0,1-25.5,38.36A76.54,76.54,0,0,1,720,804Z"/><path class="cls-5" d="M749.72,534.58c-2.26-2.32-4.36-4.79-6.43-7.29s-4-5.12-5.87-7.77A166.7,166.7,0,0,1,727.08,503a153.35,153.35,0,0,1-14.3-36.47c-.37-1.6-.82-3.18-1.12-4.8l-.95-4.85c-.32-1.61-.47-3.26-.72-4.89l-.33-2.45c-.1-.82-.15-1.64-.22-2.46l-.41-4.94-.14-4.95c0-.83-.06-1.66-.06-2.48l.07-2.48c.05-1.65.08-3.31.16-5a131,131,0,0,1,8.75-38.6l2-4.54,1-2.27c.33-.75.66-1.51,1.06-2.23l2.29-4.4c.76-1.46,1.51-2.94,2.36-4.32l4.94-8.41c1.65-2.81,3.25-5.64,5.09-8.33L741.9,346l1.33-2c.45-.67.94-1.33,1.41-2l2.84-4,2.84-4c.95-1.33,1.88-2.66,2.91-3.92l6.08-7.66c1-1.29,2.06-2.52,3.14-3.74l3.2-3.7c1.07-1.22,2.12-2.46,3.21-3.67l3.39-3.53,3.39-3.52c1.11-1.19,2.35-2.26,3.51-3.4,2.37-2.23,4.69-4.52,7.21-6.6l3.72-3.16c1.26-1,2.57-2,3.85-3,2.54-2,5.24-3.87,7.91-5.72,5.46-3.53,11.08-6.9,17.2-9.07a60.34,60.34,0,0,0-8.34,4.87c-2.7,1.76-5.26,3.71-7.81,5.66s-5,4-7.36,6.2c-1.19,1.07-2.41,2.11-3.58,3.21l-3.44,3.36c-2.34,2.19-4.51,4.55-6.72,6.88-1.08,1.17-2.23,2.29-3.26,3.52l-3.15,3.63-3.15,3.63c-1,1.23-2,2.49-3,3.74l-3,3.75c-1,1.25-2,2.49-2.93,3.8l-5.68,7.75c-1,1.28-1.86,2.61-2.76,3.94l-2.7,4-2.7,4c-.45.66-.91,1.31-1.34,2l-1.27,2-5.07,8.17c-.83,1.38-1.73,2.7-2.51,4.1l-2.4,4.17L732,374c-.83,1.38-1.53,2.79-2.24,4.2l-2.16,4.21c-.38.7-.69,1.42-1,2.15l-.94,2.17-1.88,4.34a127.24,127.24,0,0,0-8.67,36.62,133.6,133.6,0,0,0,2.54,37.71,149.43,149.43,0,0,0,5,18.39,172.17,172.17,0,0,0,7.16,17.77,182,182,0,0,0,9,17c1.63,2.77,3.37,5.48,5.15,8.17S747.71,532.05,749.72,534.58Z"/><path class="cls-5" d="M581.07,69c9.37,9,18.32,18.44,27.13,28,4.44,4.73,8.73,9.59,13.09,14.38l12.87,14.59,12.63,14.79c4.14,5,8.35,9.92,12.4,15,8.19,10.06,16.23,20.24,23.86,30.79-9.37-9-18.33-18.43-27.13-27.95-4.45-4.73-8.73-9.59-13.1-14.39L630,129.54l-12.63-14.79c-4.13-5-8.34-9.92-12.4-15C596.74,89.7,588.7,79.52,581.07,69Z"/><path class="cls-5" d="M581.07,107.48c4.58,7.7,8.94,15.42,13.56,22.92,2.32,3.74,4.67,7.44,7.2,10.94,1.27,1.75,2.56,3.46,3.94,5,.7.79,1.36,1.52,2.13,2.27s1.53,1.51,2.33,2.23A142.21,142.21,0,0,0,631,166.57c7.41,4.7,15.14,9,23.13,13a104.18,104.18,0,0,1-25.29-9.19A99,99,0,0,1,606.45,155c-.85-.78-1.65-1.59-2.47-2.4s-1.64-1.73-2.38-2.63a60.25,60.25,0,0,1-4.1-5.6,112.23,112.23,0,0,1-6.68-11.81A153.91,153.91,0,0,1,581.07,107.48Z"/><path class="cls-5" d="M617.6,74.9a139.91,139.91,0,0,1,23.77,14.21A126.15,126.15,0,0,1,652.16,98c1.75,1.54,3.37,3.25,5,4.91.81.85,1.58,1.76,2.37,2.64.38.44.78.87,1.16,1.33l1.11,1.4c.71,1,1.49,1.86,2.14,2.84l2,2.93c1.22,2,2.5,4,3.58,6.06a113.56,113.56,0,0,1,5.94,12.65,125.78,125.78,0,0,1,7.56,26.66c-3.68-8.46-7.4-16.78-11.54-24.85-1-2-2.11-4-3.16-6s-2.18-3.93-3.37-5.84a99.7,99.7,0,0,0-7.51-11,105.6,105.6,0,0,0-9-9.92c-3.15-3.2-6.5-6.25-9.88-9.26s-6.85-6-10.38-8.88S621.18,77.82,617.6,74.9Z"/><path class="cls-2" d="M147.92,534.58s105.59-48.72,51-177.35S4.05,229.9,4.05,229.9,225.54,443,147.92,534.58Z"/><path class="cls-3" d="M224.92,838s23.52-88.35-10.32-126-88.36-41.58-105.28-55.87c0,0,1.33,43.69,0,66S130.08,825,224.92,838Z"/><path class="cls-4" d="M189.92,208.2s110.41,1,136.21-58.82,7.22-102.17,15.48-113.51c0,0-88.74,14.45-119.7,65S189.92,208.2,189.92,208.2Z"/><path class="cls-5" d="M126.27,990.05a54.46,54.46,0,0,0,3.16,7.31l1.85,3.53,1.95,3.46c2.71,4.57,5.44,9.1,8.43,13.49l2.18,3.32,2.26,3.28c1.5,2.18,3,4.37,4.56,6.51l4.64,6.46,4.73,6.4c1.55,2.15,3.21,4.22,4.82,6.33s3.19,4.24,4.83,6.32l4.91,6.27c1.62,2.1,3.25,4.19,4.93,6.25l5,6.22,2.48,3.11,2.57,3,5.11,6c.86,1,1.69,2,2.56,3l2.73,2.83a285,285,0,0,0,47.77,40.9l6.63,4.31c2.18,1.48,4.5,2.72,6.74,4.12l3.39,2.06c1.13.68,2.31,1.28,3.46,1.93l3.47,1.91,1.74,1,1.77.89c2.36,1.19,4.68,2.48,7.08,3.6s4.78,2.3,7.22,3.35l3.64,1.61,3.69,1.51c2.46,1,5,2,7.49,2.83a120.15,120.15,0,0,1-15.61-3.85c-5.14-1.57-10.18-3.46-15.18-5.44a226,226,0,0,1-28.91-14.46,231.31,231.31,0,0,1-50.3-40.71l-2.8-2.95c-.9-1-1.75-2.06-2.63-3.09l-5.22-6.23-2.6-3.12-2.44-3.19-4.87-6.38c-3.25-4.25-6.36-8.63-9.5-13s-6.14-8.79-9.09-13.27q-8.94-13.37-16.61-27.57c-.63-1.2-1.27-2.37-1.87-3.57l-1.79-3.62c-.6-1.2-1.18-2.41-1.73-3.64s-1.12-2.44-1.64-3.68C129.17,1000.4,127.16,995.35,126.27,990.05Z"/><path class="cls-2" d="M304,1163.08s-12.57-76.8-62.71-110.36S111,969.14,117.58,870.87c0,0-52.27,123.75,44.8,242.16C232.88,1182.37,304,1163.08,304,1163.08Z"/><path class="cls-7" d="M298.56,799.11S264.29,804,227,840.76c-44.13,43.49-84.05,125.53-84.05,125.53"/><path class="cls-7" d="M1300.46,301.58s34.26-4.89,71.58-41.66c44.14-43.48,84.06-125.53,84.06-125.53"/><path class="cls-7" d="M999.93,301.58s-34.27-4.89-71.58-41.66c-44.14-43.48-84.06-125.53-84.06-125.53"/><path class="cls-7" d="M2002.61,301.58s34.26-4.89,71.58-41.66c44.14-43.48,84.06-125.53,84.06-125.53"/><path class="cls-7" d="M1702.08,301.58s-34.27-4.89-71.58-41.66c-44.14-43.48-84.06-125.53-84.06-125.53"/><path class="cls-7" d="M599.09,301.58s34.26-4.89,71.58-41.66c44.14-43.48,84.06-125.53,84.06-125.53"/><path class="cls-7" d="M298.56,301.58s-34.27-4.89-71.59-41.66c-44.13-43.48-84.05-125.53-84.05-125.53"/><path class="cls-3" d="M330.88,1006s41.08-33.08,32.37-71.39S324.07,838,351.93,804c0,0-71.09,37.37-70.39,110.13S330.88,1006,330.88,1006"/><line class="cls-3" x1="330.88" y1="1107.37" x2="330.88" y2="1005.97"/><path class="cls-8" d="M451.1,1364.33s.57-91.34-43.11-123.11S295.17,1214,295.17,1214s1.62,78.8,41.9,113.41S451.1,1364.33,451.1,1364.33Z"/><path class="cls-5" d="M433.91,1345.61c-10.28-8.25-20.19-16.89-30-25.68-4.92-4.35-9.7-8.85-14.55-13.28l-14.34-13.5-14.13-13.72c-4.64-4.65-9.35-9.23-13.91-14-9.21-9.37-18.28-18.89-27-28.8,10.29,8.24,20.2,16.88,30,25.67,4.92,4.35,9.7,8.85,14.55,13.28l14.33,13.51L393,1302.86c4.64,4.65,9.34,9.23,13.91,14C416.14,1326.19,425.22,1335.7,433.91,1345.61Z"/><path class="cls-5" d="M424.53,1312.35c-1.42-4.14-3-8.17-4.76-12.1a117.74,117.74,0,0,0-5.8-11.43,77,77,0,0,0-15.51-19.62,139,139,0,0,0-20.66-14.83c-3.68-2.13-7.44-4.19-11.35-6a109.29,109.29,0,0,0-12-4.89,58.29,58.29,0,0,1,13,2.33,90,90,0,0,1,12.43,4.67,95.54,95.54,0,0,1,22.3,14.55,64.81,64.81,0,0,1,15.7,21.79,83.78,83.78,0,0,1,4.47,12.52A66.34,66.34,0,0,1,424.53,1312.35Z"/><path class="cls-5" d="M396.44,1338.23a80.48,80.48,0,0,1-11.22-3,101.6,101.6,0,0,1-10.79-4.39,88.59,88.59,0,0,1-10.28-5.64,77.67,77.67,0,0,1-9.51-7.05,93,93,0,0,1-15.14-18,86.16,86.16,0,0,1-10.13-20.91c4.37,6.38,8.89,12.48,13.66,18.33,2.38,2.93,4.86,5.76,7.39,8.52l1.92,2.06c.64.68,1.32,1.32,2,2,1.29,1.38,2.67,2.55,4,3.82.69.6,1.42,1.18,2.12,1.78s1.41,1.19,2.16,1.74l2.21,1.7,2.28,1.62c1.49,1.13,3.1,2.1,4.63,3.18s3.16,2,4.79,3C382.94,1330.93,389.62,1334.58,396.44,1338.23Z"/><path class="cls-5" d="M440.88,1294.3a40.58,40.58,0,0,0,1.14-6.36c.28-2.14.41-4.29.51-6.43s.13-4.29,0-6.43c0-1.07,0-2.14-.09-3.21l-.22-3.21a176.31,176.31,0,0,0-3.85-25.35l-1.49-6.24-1.68-6.2-.85-3.09c-.29-1-.65-2-1-3.07l-2-6.11c-1.38-4-2.86-8.08-4.27-12.09-1.58-3.92-3.3-7.91-5-11.83-3.41-7.89-7.05-15.69-10.85-23.41s-7.77-15.33-12-22.83a244.46,244.46,0,0,0-13.69-21.8,102.73,102.73,0,0,0-17.06-19.27c7.37,4.63,13.59,11,19.22,17.6,2.82,3.34,5.42,6.85,8,10.37s4.93,7.19,7.26,10.87c1.17,1.84,2.29,3.71,3.43,5.57s2.21,3.75,3.27,5.65c2.15,3.79,4.21,7.62,6.23,11.47,4,7.74,7.7,15.61,11.23,23.56,1.73,4,3.39,8,5,12.1l2.14,6.21c.69,2.08,1.49,4.12,2.06,6.23l1.81,6.3c.3,1,.63,2.09.89,3.15l.77,3.19c.5,2.13,1.06,4.24,1.52,6.38l1.2,6.45a149.45,149.45,0,0,1,2.32,26.11l-.06,3.28c0,1.09-.14,2.18-.2,3.27-.11,2.18-.37,4.36-.66,6.52A54.18,54.18,0,0,1,440.88,1294.3Z"/><path class="cls-9" d="M432.29,1212.68s22.67-64-28-107.79-89.8-24.17-116.28-38c0,0,52.43,34.54,89,89.8S432.29,1212.68,432.29,1212.68Z"/><path class="cls-5" d="M330.88,1006a259.63,259.63,0,0,1-8-29.84c-2.13-10.08-3.81-20.26-5-30.51a230.23,230.23,0,0,1-1.56-31,139.12,139.12,0,0,1,1.25-15.52,64.68,64.68,0,0,1,3.88-15,102.16,102.16,0,0,0-1.16,15.27c-.08,5.08.14,10.16.4,15.23.57,10.15,1.58,20.28,2.71,30.41s2.44,20.26,3.75,30.41S329.78,995.71,330.88,1006Z"/><path class="cls-5" d="M209.77,814c-7.72-10-15-20.28-22.07-30.67-3.59-5.16-7-10.44-10.52-15.66l-10.25-15.83-10-16c-3.24-5.38-6.57-10.71-9.73-16.15-6.41-10.83-12.65-21.76-18.42-33,7.72,10,15,20.27,22.08,30.66,3.59,5.16,7,10.44,10.51,15.66l10.25,15.83,10,16c3.24,5.38,6.57,10.71,9.73,16.15C197.75,791.86,204,802.79,209.77,814Z"/><path class="cls-5" d="M209.77,784a105.59,105.59,0,0,0-1.31-22.51,86.79,86.79,0,0,0-2.6-10.75,75.46,75.46,0,0,0-3.93-10.27,84.1,84.1,0,0,0-11.73-18.62A105.75,105.75,0,0,0,174,706.19a58.22,58.22,0,0,1,19.41,12.73A63.89,63.89,0,0,1,207,738.18c.87,1.79,1.54,3.65,2.26,5.49s1.25,3.76,1.7,5.68A64.17,64.17,0,0,1,212.78,761,58.36,58.36,0,0,1,209.77,784Z"/><path class="cls-5" d="M177.68,804A76.72,76.72,0,0,1,158.4,791.4,89.58,89.58,0,0,1,132.91,753a76.23,76.23,0,0,1-4.14-22.65,198.71,198.71,0,0,0,8.2,21,143.42,143.42,0,0,0,24.48,36.86A196.32,196.32,0,0,0,177.68,804Z"/><path class="cls-5" d="M147.92,534.58c2-2.53,3.86-5.19,5.65-7.86s3.52-5.4,5.16-8.17a181.9,181.9,0,0,0,9-17,172.24,172.24,0,0,0,7.17-17.77A151.22,151.22,0,0,0,180,465.38a133.6,133.6,0,0,0,2.53-37.71,127.56,127.56,0,0,0-8.66-36.62l-1.89-4.34-.94-2.17a22,22,0,0,0-1-2.15l-2.15-4.21c-.72-1.41-1.41-2.82-2.25-4.2l-4.8-8.34-2.41-4.17c-.78-1.4-1.68-2.72-2.51-4.1l-5.07-8.17-1.26-2c-.43-.68-.9-1.33-1.34-2l-2.7-4-2.71-4c-.89-1.33-1.79-2.66-2.76-3.94l-5.67-7.75c-.93-1.31-1.94-2.55-2.94-3.8l-3-3.75c-1-1.25-2-2.51-3-3.74l-3.15-3.63L119.12,307c-1-1.23-2.18-2.35-3.27-3.52-2.21-2.33-4.38-4.69-6.72-6.88l-3.44-3.36c-1.16-1.1-2.38-2.14-3.58-3.21-2.35-2.19-4.89-4.15-7.36-6.2s-5.11-3.9-7.8-5.66a60.93,60.93,0,0,0-8.34-4.87c6.11,2.17,11.74,5.54,17.19,9.07,2.68,1.85,5.37,3.68,7.91,5.72,1.28,1,2.59,2,3.85,3l3.72,3.16c2.52,2.08,4.84,4.37,7.21,6.6,1.17,1.14,2.4,2.21,3.51,3.4l3.4,3.52,3.38,3.53c1.09,1.21,2.14,2.45,3.21,3.67l3.21,3.7c1.07,1.22,2.15,2.45,3.14,3.74l6.07,7.66c1,1.26,2,2.59,2.91,3.92l2.84,4,2.84,4c.47.66,1,1.32,1.41,2l1.34,2,5.34,8.18c1.84,2.69,3.44,5.52,5.09,8.33l4.94,8.41c.84,1.38,1.59,2.86,2.35,4.32l2.29,4.4c.4.72.74,1.48,1.07,2.23l1,2.27,2,4.54a131.37,131.37,0,0,1,8.76,38.6c.07,1.65.1,3.31.16,5l.06,2.48c0,.82,0,1.65-.05,2.48l-.14,4.95-.41,4.94c-.08.82-.12,1.64-.23,2.46l-.33,2.45c-.24,1.63-.4,3.28-.72,4.89L186,461.7c-.31,1.62-.76,3.2-1.13,4.8A152.93,152.93,0,0,1,170.56,503a164.87,164.87,0,0,1-10.34,16.55q-2.82,4-5.87,7.77C152.29,529.79,150.18,532.26,147.92,534.58Z"/><path class="cls-5" d="M316.57,69c-7.63,10.55-15.67,20.73-23.86,30.79-4.06,5.07-8.26,10-12.4,15l-12.63,14.79-12.86,14.59c-4.36,4.8-8.65,9.66-13.09,14.39C232.92,168,224,177.44,214.6,186.47c7.62-10.55,15.66-20.73,23.85-30.79,4.06-5.07,8.27-10,12.4-15l12.64-14.79,12.86-14.59c4.36-4.79,8.65-9.65,13.1-14.38C298.25,87.41,307.21,78,316.57,69Z"/><path class="cls-5" d="M316.57,107.48a153,153,0,0,1-9.75,25,114,114,0,0,1-6.67,11.81,64.13,64.13,0,0,1-4.1,5.6c-.74.9-1.58,1.81-2.39,2.63s-1.62,1.62-2.46,2.4a99.18,99.18,0,0,1-22.4,15.42,104.1,104.1,0,0,1-25.3,9.19c8-4,15.73-8.29,23.14-13a141.58,141.58,0,0,0,20.77-15.69c.8-.72,1.57-1.47,2.33-2.23s1.43-1.48,2.13-2.27c1.38-1.58,2.67-3.29,3.94-5,2.53-3.5,4.88-7.2,7.2-10.94C307.63,122.9,312,115.18,316.57,107.48Z"/><path class="cls-5" d="M280,74.9c-3.58,2.92-7.15,5.78-10.65,8.72s-7,5.87-10.38,8.88-6.73,6.06-9.89,9.26a105.48,105.48,0,0,0-8.94,9.92,98.41,98.41,0,0,0-7.52,11c-1.18,1.91-2.24,3.89-3.37,5.84s-2.15,4-3.16,6c-4.14,8.07-7.85,16.39-11.53,24.85a125.78,125.78,0,0,1,7.56-26.66,115.31,115.31,0,0,1,5.93-12.65c1.08-2.07,2.36-4,3.58-6.06l2-2.93c.65-1,1.43-1.89,2.14-2.84l1.11-1.4c.38-.46.78-.89,1.17-1.33.79-.88,1.55-1.79,2.36-2.64,1.66-1.66,3.28-3.37,5-4.91a126.15,126.15,0,0,1,10.79-8.85A140.3,140.3,0,0,1,280,74.9Z"/><path class="cls-11" d="M448.58,891.63s17-20,19.95-44c3.28-27.16-5.27-57.23-18.1-80.45,0,0-32.68,23-32.24,67.85s30.39,56.59,30.39,56.59"/></g></g></svg>