<svg id="Layer_1" data-name="Layer 1" xmlns="http://www.w3.org/2000/svg" viewBox="0 0 720 398.16"><defs><style>.cls-1{fill:#9a8430;}</style></defs><title>Pukka LogoArtboard 1</title><path class="cls-1" d="M427,114.33c1.73,5.86,11.39,3.07,12.71-3.71,1.17-6.07-1.27-10.93-5.83-14.82-8-6.78-19.24-8-27.41-2.88-8.94,5.53-13.29,17.31-10.29,28.24A45.68,45.68,0,0,0,404,136.62c21.21,28.22,17.74,60.59-8.93,84.28-7.87,7-16.8,12.4-27,17.67,14.74,9,23,23,32.48,35.88,6.88,9.39,16.28,15.75,26.44,21.24-11.52,5.87-30.76.94-40.68-10.87-6.6-7.86-12.42-16.37-18.79-24.43-5.11-6.46-11.42-11.3-19.76-12.91-6.9-1.34-8.37-.14-8.39,6.83,0,11.17,0,22.35-.07,33.53-.07,8.47-6.7,13-14.62,10.19-2.53-.89-2.5-2.89-2.5-4.87q0-50,.08-99.93c0-4.16,2-5.34,5.83-5.31,5.71,0,10.65,1.36,11.1,7.93.51,7.34.13,14.75.17,22.12.06,14.9,0,14.81,14.62,10.15,20.3-6.49,37.08-17.57,47.79-36.47,13.28-23.42,7.35-48.83-14.25-62.05a31.55,31.55,0,0,0-41,7.35c-6,7.6-6,17.93,0,24.68,3.91,4.36,8.78,6.07,14.5,4.12,4.54-1.56,7.53-4.41,7.48-9.53-.57-.24-.82-.44-.92-.38-3.52,2-7.1,4.25-10.83.53-2.31-2.32-2.79-5.39-1-8,2.82-4.13,7.18-5,11.9-3.93a15.45,15.45,0,0,1,11.58,16c-.67,8.82-7.92,15.9-17.2,16.83A24.44,24.44,0,0,1,335.86,147a34.61,34.61,0,0,1,29-26.16c1.22-.17,2.68.44,3.88-1.29-5.84-3.08-11.87-5.73-17.34-9.25-12.43-8-21.51-18.29-20.32-34.4.85-11.44,7.43-18.89,17.5-23.36s20.13-3.73,29.06,3.15c5.68,4.38,7.4,10.69,5.61,17.45-1.42,5.36-5.49,8.53-11.08,9.45-7.84,1.29-14.53-5.4-12.69-12.89,1-4,3.49-6.66,8-6.68,4.13,0,6.11,2.12,6.19,6.13,0,.75-.84,1.76.57,1.93a2.26,2.26,0,0,0,2.52-1.71c1.74-4.77-.36-8.3-3.84-11.17-6.23-5.13-13.11-5-20.15-2-8.1,3.47-12.79,9.64-13.44,18.44-1,13.19,5.68,22.59,15.9,29.85,10.07,7.15,22.1,10.4,33.41,17.08-.69-6.66-1.7-12.29.11-18a28.43,28.43,0,0,1,28.52-20.06c13,.38,24.75,9.2,27.5,20.66,1.55,6.49-1.13,14.17-6.38,17.9-4.65,3.3-9.56,3.71-14.38.51-4.07-2.71-6.11-6.45-4.59-11.49,1.22-4.05,3.74-6.51,8.2-6.5,3.45,0,6.59,1,6.73,4.92s-2.87,4.53-6.12,4.23c-.42-.55-.78-.8-1.27-.16A.61.61,0,0,0,427,114.33Z"/><path class="cls-1" d="M100.5,284.19V322.5c0,5.21-1.76,9.2-7.43,10.3-8.19,1.6-9.94.15-9.93-8.2,0-42.42,0-84.84.15-127.26,0-3.61-2.45-9.1,4.91-9.37,8-.31,11.66,2.39,12.34,9.67.1,1.1.14,2.21.28,4.3,16.18-12.26,33.49-17.15,52.94-11.44A51.86,51.86,0,0,1,182.59,211c15.21,21.82,13.51,50.19-4.07,69C158.75,301.25,131.93,302.92,100.5,284.19ZM175.72,243a37.59,37.59,0,1,0-37.23,37.57A37.33,37.33,0,0,0,175.72,243Z"/><path class="cls-1" d="M619.49,202.27c.73-11.51,3.89-14.75,12.79-14.11,3.3.24,4.83,1.45,4.82,4.89Q637,243,637,292.89c0,2.56-.14,5.12-3.68,5.17-4.87.06-10,.95-12.71-4.88-1.2-2.58-.5-5.3-1.32-8.7-15.71,12.07-32.85,16.87-52.07,11.36-12.18-3.5-22.35-9.91-29.75-20.39a55.26,55.26,0,0,1,4.64-69.65C561.66,184.85,587.64,183.57,619.49,202.27Zm-38.08,78.51c20.86.16,38.12-16.3,38.29-36.51.18-21.4-16.69-38.71-37.71-38.7A37.83,37.83,0,0,0,544.46,243,37.22,37.22,0,0,0,581.41,280.78Z"/><path class="cls-1" d="M541.52,182.48c-16.71,8.15-27.16,22.29-37.33,36.85A60.29,60.29,0,0,1,482.7,238C495.8,246,504,257.65,512,269.5c7.66,11.41,18,19.6,30.51,26-17.38,4.7-32.75-.13-43.35-13.52-5.82-7.36-11.12-15.13-17-22.38-5.47-6.69-12-12-21.19-12.76-4.8-.42-6.84.88-6.7,6.15.31,11.39,0,22.8,0,34.19,0,5.16-1.62,9.17-7.34,10.42-7.64,1.69-9.64.18-9.64-7.64,0-31.52,0-63,.11-94.55,0-2.85-2-7.42,3.59-7.64,5-.2,10.62-1.11,12.71,5.66a27.48,27.48,0,0,1,.79,8.61c-.1,7.82.1,15.65-.13,23.46-.12,4.12,1.43,5.6,5.49,5.39a27,27,0,0,0,20.71-10.72c5.24-6.67,10.57-13.3,15.34-20.31C506.93,183.52,522.52,179,541.52,182.48Z"/><path class="cls-1" d="M311.44,221.46c-.67,11.34,1.21,22.79-1.41,34-6.06,26.13-31.28,44.83-56.78,42.13-30.08-3.18-50.77-25-51-53.84q-.17-24.13.05-48.27c0-2.93-1.77-7.31,3.85-7.52,5.26-.19,10.71-.39,12.4,6.22a36.08,36.08,0,0,1,.7,8.65c.07,13.63-.2,27.27.1,40.9a37.71,37.71,0,0,0,33.54,36.67c17.73,2,35.24-9.95,40-27.67,2.3-8.5,1.66-17.29,1.72-26,.07-9.84-.11-19.67.13-29.5.17-6.86,8.2-11.65,14.5-9.06,2.54,1.05,2.11,3.12,2.12,5.07Q311.46,207.39,311.44,221.46Z"/><path class="cls-1" d="M427.74,114.33a8.13,8.13,0,0,1-.71-.69c.49-.64.91-.4,1.27.16Z"/></svg>